solid OpenSCAD_Model
  facet normal 0 0 1
    outer loop
      vertex 55.6407 6 30
      vertex 81.6312 66.574 30
      vertex 75.9249 68.4281 30
    endloop
  endfacet
  facet normal 0 0 1
    outer loop
      vertex 81.6312 66.574 30
      vertex 55.6407 6 30
      vertex 60 0 30
    endloop
  endfacet
  facet normal 0 0 1
    outer loop
      vertex 21.25 0 30
      vertex 55.6407 6 30
      vertex 21.25 6 30
    endloop
  endfacet
  facet normal 0 0 1
    outer loop
      vertex 55.6407 6 30
      vertex 21.25 0 30
      vertex 60 0 30
    endloop
  endfacet
  facet normal -0 0 1
    outer loop
      vertex -55.6407 6 30
      vertex -21.25 0 30
      vertex -21.25 6 30
    endloop
  endfacet
  facet normal 0 0 1
    outer loop
      vertex -55.6407 6 30
      vertex -60 0 30
      vertex -21.25 0 30
    endloop
  endfacet
  facet normal -0 0 1
    outer loop
      vertex -81.6312 66.574 30
      vertex -55.6407 6 30
      vertex -75.9249 68.4281 30
    endloop
  endfacet
  facet normal 0 0 1
    outer loop
      vertex -55.6407 6 30
      vertex -81.6312 66.574 30
      vertex -60 0 30
    endloop
  endfacet
  facet normal 0 0 -1
    outer loop
      vertex 55.6407 6 0
      vertex 81.6312 66.574 0
      vertex 60 0 0
    endloop
  endfacet
  facet normal -0 0 -1
    outer loop
      vertex 81.6312 66.574 0
      vertex 55.6407 6 0
      vertex 75.9249 68.4281 0
    endloop
  endfacet
  facet normal 0 0 -1
    outer loop
      vertex 21.25 0 0
      vertex 55.6407 6 0
      vertex 60 0 0
    endloop
  endfacet
  facet normal 0 0 -1
    outer loop
      vertex -21.25 0 0
      vertex 55.6407 6 0
      vertex 21.25 0 0
    endloop
  endfacet
  facet normal 0 0 -1
    outer loop
      vertex -21.25 0 0
      vertex -55.6407 6 0
      vertex 55.6407 6 0
    endloop
  endfacet
  facet normal 0 0 -1
    outer loop
      vertex -60 0 0
      vertex -55.6407 6 0
      vertex -21.25 0 0
    endloop
  endfacet
  facet normal 0 0 -1
    outer loop
      vertex -81.6312 66.574 0
      vertex -55.6407 6 0
      vertex -60 0 0
    endloop
  endfacet
  facet normal 0 0 -1
    outer loop
      vertex -55.6407 6 0
      vertex -81.6312 66.574 0
      vertex -75.9249 68.4281 0
    endloop
  endfacet
  facet normal 0 -1 0
    outer loop
      vertex 21.25 0 0
      vertex 60 0 30
      vertex 21.25 0 30
    endloop
  endfacet
  facet normal 0 -1 -0
    outer loop
      vertex 60 0 30
      vertex 21.25 0 0
      vertex 60 0 0
    endloop
  endfacet
  facet normal 0 -1 0
    outer loop
      vertex -60 0 0
      vertex -21.25 0 30
      vertex -60 0 30
    endloop
  endfacet
  facet normal 0 -1 -0
    outer loop
      vertex -21.25 0 30
      vertex -60 0 0
      vertex -21.25 0 0
    endloop
  endfacet
  facet normal 0 1 -0
    outer loop
      vertex 55.6407 6 0
      vertex 21.25 6 30
      vertex 55.6407 6 30
    endloop
  endfacet
  facet normal 0 1 0
    outer loop
      vertex 21.25 6 30
      vertex 55.6407 6 0
      vertex -21.25 6 30
    endloop
  endfacet
  facet normal 0 1 0
    outer loop
      vertex -55.6407 6 0
      vertex -21.25 6 30
      vertex 55.6407 6 0
    endloop
  endfacet
  facet normal 0 1 0
    outer loop
      vertex -21.25 6 30
      vertex -55.6407 6 0
      vertex -55.6407 6 30
    endloop
  endfacet
  facet normal 0 1 -0
    outer loop
      vertex 21.25 6 30
      vertex -21.25 6 55
      vertex 21.25 6 55
    endloop
  endfacet
  facet normal 0 1 0
    outer loop
      vertex -21.25 6 55
      vertex 21.25 6 30
      vertex -21.25 6 30
    endloop
  endfacet
  facet normal -1 0 0
    outer loop
      vertex -21.25 0 0
      vertex -21.25 -10 30
      vertex -21.25 0 30
    endloop
  endfacet
  facet normal -1 0 0
    outer loop
      vertex -21.25 0 30
      vertex -21.25 6 55
      vertex -21.25 6 30
    endloop
  endfacet
  facet normal -1 0 0
    outer loop
      vertex -21.25 -10 55
      vertex -21.25 0 30
      vertex -21.25 -10 30
    endloop
  endfacet
  facet normal -1 0 0
    outer loop
      vertex -21.25 0 30
      vertex -21.25 -10 55
      vertex -21.25 6 55
    endloop
  endfacet
  facet normal -0 0 1
    outer loop
      vertex -21.25 6 55
      vertex 21.25 -10 55
      vertex 21.25 6 55
    endloop
  endfacet
  facet normal 0 0 1
    outer loop
      vertex 21.25 -10 55
      vertex -21.25 6 55
      vertex -21.25 -10 55
    endloop
  endfacet
  facet normal 0 -1 0
    outer loop
      vertex -21.25 -10 30
      vertex 21.25 -10 55
      vertex -21.25 -10 55
    endloop
  endfacet
  facet normal 0 -1 -0
    outer loop
      vertex 21.25 -10 55
      vertex -21.25 -10 30
      vertex 21.25 -10 30
    endloop
  endfacet
  facet normal 0 -0.948683 -0.316228
    outer loop
      vertex -21.25 0 0
      vertex 21.25 -10 30
      vertex -21.25 -10 30
    endloop
  endfacet
  facet normal 0 -0.948683 -0.316228
    outer loop
      vertex 21.25 -10 30
      vertex -21.25 0 0
      vertex 21.25 0 0
    endloop
  endfacet
  facet normal 1 0 0
    outer loop
      vertex 21.25 6 55
      vertex 21.25 0 30
      vertex 21.25 6 30
    endloop
  endfacet
  facet normal 1 -0 0
    outer loop
      vertex 21.25 -10 55
      vertex 21.25 0 30
      vertex 21.25 6 55
    endloop
  endfacet
  facet normal 1 0 0
    outer loop
      vertex 21.25 -10 30
      vertex 21.25 0 30
      vertex 21.25 -10 55
    endloop
  endfacet
  facet normal 1 0 0
    outer loop
      vertex 21.25 0 30
      vertex 21.25 -10 30
      vertex 21.25 0 0
    endloop
  endfacet
  facet normal 0.951056 0.309018 0
    outer loop
      vertex -55.6407 6 30
      vertex -75.9249 68.4281 0
      vertex -75.9249 68.4281 30
    endloop
  endfacet
  facet normal 0.951056 0.309018 0
    outer loop
      vertex -75.9249 68.4281 0
      vertex -55.6407 6 30
      vertex -55.6407 6 0
    endloop
  endfacet
  facet normal -0.951057 -0.309017 0
    outer loop
      vertex -60 0 0
      vertex -81.6312 66.574 30
      vertex -81.6312 66.574 0
    endloop
  endfacet
  facet normal -0.951057 -0.309017 0
    outer loop
      vertex -81.6312 66.574 30
      vertex -60 0 0
      vertex -60 0 30
    endloop
  endfacet
  facet normal -0.309019 0.951056 0
    outer loop
      vertex -75.9249 68.4281 0
      vertex -81.6312 66.574 30
      vertex -75.9249 68.4281 30
    endloop
  endfacet
  facet normal -0.309019 0.951056 0
    outer loop
      vertex -81.6312 66.574 30
      vertex -75.9249 68.4281 0
      vertex -81.6312 66.574 0
    endloop
  endfacet
  facet normal -0.951056 0.309018 0
    outer loop
      vertex 55.6407 6 0
      vertex 75.9249 68.4281 30
      vertex 75.9249 68.4281 0
    endloop
  endfacet
  facet normal -0.951056 0.309018 0
    outer loop
      vertex 75.9249 68.4281 30
      vertex 55.6407 6 0
      vertex 55.6407 6 30
    endloop
  endfacet
  facet normal 0.951057 -0.309017 0
    outer loop
      vertex 60 0 30
      vertex 81.6312 66.574 0
      vertex 81.6312 66.574 30
    endloop
  endfacet
  facet normal 0.951057 -0.309017 0
    outer loop
      vertex 81.6312 66.574 0
      vertex 60 0 30
      vertex 60 0 0
    endloop
  endfacet
  facet normal 0.309019 0.951056 -0
    outer loop
      vertex 81.6312 66.574 0
      vertex 75.9249 68.4281 30
      vertex 81.6312 66.574 30
    endloop
  endfacet
  facet normal 0.309019 0.951056 0
    outer loop
      vertex 75.9249 68.4281 30
      vertex 81.6312 66.574 0
      vertex 75.9249 68.4281 0
    endloop
  endfacet
endsolid OpenSCAD_Model
