solid OpenSCAD_Model
  facet normal 0 0 -1
    outer loop
      vertex -3.25 0 0
      vertex -3.17898 0.675713 0
      vertex -3.17898 -0.675713 0
    endloop
  endfacet
  facet normal 0 0 -1
    outer loop
      vertex -3.17898 -0.675713 0
      vertex -3.17898 0.675713 0
      vertex -2.96902 1.32189 0
    endloop
  endfacet
  facet normal 0 0 -1
    outer loop
      vertex -3.17898 -0.675713 0
      vertex -2.96902 1.32189 0
      vertex -2.62931 1.9103 0
    endloop
  endfacet
  facet normal 0 0 -1
    outer loop
      vertex -3.17898 -0.675713 0
      vertex -2.62931 1.9103 0
      vertex -2.17467 2.41522 0
    endloop
  endfacet
  facet normal 0 0 -1
    outer loop
      vertex -3.17898 -0.675713 0
      vertex -2.17467 2.41522 0
      vertex -1.625 2.81458 0
    endloop
  endfacet
  facet normal 0 0 -1
    outer loop
      vertex -3.17898 -0.675713 0
      vertex -1.625 2.81458 0
      vertex -1.00431 3.09093 0
    endloop
  endfacet
  facet normal 0 0 -1
    outer loop
      vertex -3.17898 -0.675713 0
      vertex -1.00431 3.09093 0
      vertex -0.339718 3.2322 0
    endloop
  endfacet
  facet normal 0 0 -1
    outer loop
      vertex -3.17898 -0.675713 0
      vertex -0.339718 3.2322 0
      vertex 0.339718 3.2322 0
    endloop
  endfacet
  facet normal 0 0 -1
    outer loop
      vertex -3.17898 -0.675713 0
      vertex 0.339718 3.2322 0
      vertex 1.00431 3.09093 0
    endloop
  endfacet
  facet normal 0 0 -1
    outer loop
      vertex -3.17898 -0.675713 0
      vertex 1.00431 3.09093 0
      vertex 1.625 2.81458 0
    endloop
  endfacet
  facet normal 0 0 -1
    outer loop
      vertex -3.17898 -0.675713 0
      vertex 1.625 2.81458 0
      vertex 2.17467 2.41522 0
    endloop
  endfacet
  facet normal 0 0 -1
    outer loop
      vertex -0.5 0.866025 0
      vertex 2.17467 2.41522 0
      vertex 2.62931 1.9103 0
    endloop
  endfacet
  facet normal 0 0 -1
    outer loop
      vertex 0.5 0.866025 0
      vertex 2.62931 1.9103 0
      vertex 2.96902 1.32189 0
    endloop
  endfacet
  facet normal 0 0 -1
    outer loop
      vertex 1 0 0
      vertex 3.17898 0.675713 0
      vertex 3.25 0 0
    endloop
  endfacet
  facet normal 0 0 -1
    outer loop
      vertex 0.5 -0.866025 0
      vertex 3.17898 -0.675713 0
      vertex 2.96902 -1.32189 0
    endloop
  endfacet
  facet normal 0 0 -1
    outer loop
      vertex -3.17898 -0.675713 0
      vertex 2.96902 -1.32189 0
      vertex 2.62931 -1.9103 0
    endloop
  endfacet
  facet normal 0 0 -1
    outer loop
      vertex -3.17898 -0.675713 0
      vertex 2.62931 -1.9103 0
      vertex 2.17467 -2.41522 0
    endloop
  endfacet
  facet normal 0 0 -1
    outer loop
      vertex -3.17898 -0.675713 0
      vertex 2.17467 -2.41522 0
      vertex 1.625 -2.81458 0
    endloop
  endfacet
  facet normal 0 0 -1
    outer loop
      vertex -3.17898 -0.675713 0
      vertex 1.625 -2.81458 0
      vertex 1.00431 -3.09093 0
    endloop
  endfacet
  facet normal 0 0 -1
    outer loop
      vertex -3.17898 -0.675713 0
      vertex 1.00431 -3.09093 0
      vertex 0.339718 -3.2322 0
    endloop
  endfacet
  facet normal 0 0 -1
    outer loop
      vertex -3.17898 -0.675713 0
      vertex 0.339718 -3.2322 0
      vertex -0.339718 -3.2322 0
    endloop
  endfacet
  facet normal 0 0 -1
    outer loop
      vertex -3.17898 -0.675713 0
      vertex -0.339718 -3.2322 0
      vertex -1.00431 -3.09093 0
    endloop
  endfacet
  facet normal 0 0 -1
    outer loop
      vertex -3.17898 -0.675713 0
      vertex -1.00431 -3.09093 0
      vertex -1.625 -2.81458 0
    endloop
  endfacet
  facet normal 0 0 -1
    outer loop
      vertex -3.17898 -0.675713 0
      vertex -1.625 -2.81458 0
      vertex -2.17467 -2.41522 0
    endloop
  endfacet
  facet normal 0 0 -1
    outer loop
      vertex -3.17898 -0.675713 0
      vertex -2.17467 -2.41522 0
      vertex -2.62931 -1.9103 0
    endloop
  endfacet
  facet normal 0 0 -1
    outer loop
      vertex -3.17898 -0.675713 0
      vertex -2.62931 -1.9103 0
      vertex -2.96902 -1.32189 0
    endloop
  endfacet
  facet normal 0 0 -1
    outer loop
      vertex -0.5 -0.866025 0
      vertex -3.17898 -0.675713 0
      vertex -1 0 0
    endloop
  endfacet
  facet normal 0 0 -1
    outer loop
      vertex 1 0 0
      vertex 3.17898 -0.675713 0
      vertex 0.5 -0.866025 0
    endloop
  endfacet
  facet normal 0 0 -1
    outer loop
      vertex -3.17898 -0.675713 0
      vertex -0.5 -0.866025 0
      vertex 2.96902 -1.32189 0
    endloop
  endfacet
  facet normal 0 0 -1
    outer loop
      vertex -0.5 -0.866025 0
      vertex 0.5 -0.866025 0
      vertex 2.96902 -1.32189 0
    endloop
  endfacet
  facet normal 0 0 -1
    outer loop
      vertex 1 0 0
      vertex 3.25 0 0
      vertex 3.17898 -0.675713 0
    endloop
  endfacet
  facet normal 0 0 -1
    outer loop
      vertex -3.17898 -0.675713 0
      vertex 2.17467 2.41522 0
      vertex -0.5 0.866025 0
    endloop
  endfacet
  facet normal 0 0 -1
    outer loop
      vertex 0.5 0.866025 0
      vertex 2.96902 1.32189 0
      vertex 3.17898 0.675713 0
    endloop
  endfacet
  facet normal 0 0 -1
    outer loop
      vertex -1 0 0
      vertex -3.17898 -0.675713 0
      vertex -0.5 0.866025 0
    endloop
  endfacet
  facet normal 0 0 -1
    outer loop
      vertex -0.5 0.866025 0
      vertex 2.62931 1.9103 0
      vertex 0.5 0.866025 0
    endloop
  endfacet
  facet normal 0 0 -1
    outer loop
      vertex 0.5 0.866025 0
      vertex 3.17898 0.675713 0
      vertex 1 0 0
    endloop
  endfacet
  facet normal -0.994522 0.104528 0
    outer loop
      vertex -3.25 0 0
      vertex -3.25 0 24.5
      vertex -3.17898 0.675713 0
    endloop
  endfacet
  facet normal -0.994522 0.104528 0
    outer loop
      vertex -3.17898 0.675713 0
      vertex -3.25 0 24.5
      vertex -3.17898 0.675713 24.5
    endloop
  endfacet
  facet normal -0.994522 -0.104528 0
    outer loop
      vertex -3.25 0 0
      vertex -3.17898 -0.675713 0
      vertex -3.25 0 24.5
    endloop
  endfacet
  facet normal -0.994522 -0.104528 0
    outer loop
      vertex -3.25 0 24.5
      vertex -3.17898 -0.675713 0
      vertex -3.17898 -0.675713 24.5
    endloop
  endfacet
  facet normal -0.951056 -0.309017 0
    outer loop
      vertex -3.17898 -0.675713 0
      vertex -2.96902 -1.32189 0
      vertex -3.17898 -0.675713 24.5
    endloop
  endfacet
  facet normal -0.951056 -0.309017 0
    outer loop
      vertex -3.17898 -0.675713 24.5
      vertex -2.96902 -1.32189 0
      vertex -2.96902 -1.32189 24.5
    endloop
  endfacet
  facet normal -0.866025 -0.500001 0
    outer loop
      vertex -2.96902 -1.32189 0
      vertex -2.62931 -1.9103 0
      vertex -2.96902 -1.32189 24.5
    endloop
  endfacet
  facet normal -0.866025 -0.500001 0
    outer loop
      vertex -2.96902 -1.32189 24.5
      vertex -2.62931 -1.9103 0
      vertex -2.62931 -1.9103 24.5
    endloop
  endfacet
  facet normal -0.743145 -0.669131 0
    outer loop
      vertex -2.62931 -1.9103 0
      vertex -2.17467 -2.41522 0
      vertex -2.62931 -1.9103 24.5
    endloop
  endfacet
  facet normal -0.743145 -0.669131 0
    outer loop
      vertex -2.62931 -1.9103 24.5
      vertex -2.17467 -2.41522 0
      vertex -2.17467 -2.41522 24.5
    endloop
  endfacet
  facet normal -0.587786 -0.809017 0
    outer loop
      vertex -2.17467 -2.41522 24.5
      vertex -2.17467 -2.41522 0
      vertex -1.625 -2.81458 0
    endloop
  endfacet
  facet normal -0.587786 -0.809017 0
    outer loop
      vertex -1.625 -2.81458 24.5
      vertex -2.17467 -2.41522 24.5
      vertex -1.625 -2.81458 0
    endloop
  endfacet
  facet normal -0.406736 -0.913546 0
    outer loop
      vertex -1.625 -2.81458 24.5
      vertex -1.625 -2.81458 0
      vertex -1.00431 -3.09093 0
    endloop
  endfacet
  facet normal -0.406736 -0.913546 0
    outer loop
      vertex -1.00431 -3.09093 24.5
      vertex -1.625 -2.81458 24.5
      vertex -1.00431 -3.09093 0
    endloop
  endfacet
  facet normal -0.207911 -0.978148 0
    outer loop
      vertex -1 -3.09185 12
      vertex -1.00431 -3.09093 0
      vertex -0.339718 -3.2322 0
    endloop
  endfacet
  facet normal -0.207911 -0.978148 0
    outer loop
      vertex -1 -3.09185 12
      vertex -0.5 -3.19813 12.866
      vertex -1.00431 -3.09093 24.5
    endloop
  endfacet
  facet normal -0.207911 -0.978148 0
    outer loop
      vertex -0.339718 -3.2322 11.134
      vertex -0.5 -3.19813 11.134
      vertex -0.339718 -3.2322 0
    endloop
  endfacet
  facet normal -0.207911 -0.978148 0
    outer loop
      vertex -1.00431 -3.09093 24.5
      vertex -1.00431 -3.09093 0
      vertex -1 -3.09185 12
    endloop
  endfacet
  facet normal -0.207911 -0.978148 0
    outer loop
      vertex -0.339718 -3.2322 24.5
      vertex -1.00431 -3.09093 24.5
      vertex -0.339718 -3.2322 12.866
    endloop
  endfacet
  facet normal -0.207911 -0.978148 0
    outer loop
      vertex -0.5 -3.19813 12.866
      vertex -0.339718 -3.2322 12.866
      vertex -1.00431 -3.09093 24.5
    endloop
  endfacet
  facet normal -0.207911 -0.978148 0
    outer loop
      vertex -0.5 -3.19813 11.134
      vertex -1 -3.09185 12
      vertex -0.339718 -3.2322 0
    endloop
  endfacet
  facet normal 0 -1 0
    outer loop
      vertex -0.339718 -3.2322 11.134
      vertex -0.339718 -3.2322 0
      vertex 0.339718 -3.2322 0
    endloop
  endfacet
  facet normal 0 -1 0
    outer loop
      vertex 0.339718 -3.2322 11.134
      vertex -0.339718 -3.2322 11.134
      vertex 0.339718 -3.2322 0
    endloop
  endfacet
  facet normal 0.207911 -0.978148 0
    outer loop
      vertex 0.339718 -3.2322 11.134
      vertex 0.339718 -3.2322 0
      vertex 1.00431 -3.09093 0
    endloop
  endfacet
  facet normal 0.207911 -0.978148 0
    outer loop
      vertex 1 -3.09185 12
      vertex 0.5 -3.19813 11.134
      vertex 1.00431 -3.09093 0
    endloop
  endfacet
  facet normal 0.207911 -0.978148 0
    outer loop
      vertex 0.5 -3.19813 11.134
      vertex 0.339718 -3.2322 11.134
      vertex 1.00431 -3.09093 0
    endloop
  endfacet
  facet normal 0.207911 -0.978148 0
    outer loop
      vertex 0.339718 -3.2322 24.5
      vertex 0.339718 -3.2322 12.866
      vertex 1.00431 -3.09093 24.5
    endloop
  endfacet
  facet normal 0.207911 -0.978148 0
    outer loop
      vertex 1.00431 -3.09093 24.5
      vertex 1 -3.09185 12
      vertex 1.00431 -3.09093 0
    endloop
  endfacet
  facet normal 0.207911 -0.978148 0
    outer loop
      vertex 1.00431 -3.09093 24.5
      vertex 0.5 -3.19813 12.866
      vertex 1 -3.09185 12
    endloop
  endfacet
  facet normal 0.207911 -0.978148 0
    outer loop
      vertex 0.339718 -3.2322 12.866
      vertex 0.5 -3.19813 12.866
      vertex 1.00431 -3.09093 24.5
    endloop
  endfacet
  facet normal 0.406736 -0.913546 0
    outer loop
      vertex 1.00431 -3.09093 24.5
      vertex 1.00431 -3.09093 0
      vertex 1.625 -2.81458 0
    endloop
  endfacet
  facet normal 0.406736 -0.913546 0
    outer loop
      vertex 1.625 -2.81458 24.5
      vertex 1.00431 -3.09093 24.5
      vertex 1.625 -2.81458 0
    endloop
  endfacet
  facet normal 0.587786 -0.809017 0
    outer loop
      vertex 1.625 -2.81458 24.5
      vertex 1.625 -2.81458 0
      vertex 2.17467 -2.41522 0
    endloop
  endfacet
  facet normal 0.587786 -0.809017 0
    outer loop
      vertex 2.17467 -2.41522 24.5
      vertex 1.625 -2.81458 24.5
      vertex 2.17467 -2.41522 0
    endloop
  endfacet
  facet normal 0.743145 -0.669131 0
    outer loop
      vertex 2.17467 -2.41522 24.5
      vertex 2.17467 -2.41522 0
      vertex 2.62931 -1.9103 0
    endloop
  endfacet
  facet normal 0.743145 -0.669131 0
    outer loop
      vertex 2.62931 -1.9103 24.5
      vertex 2.17467 -2.41522 24.5
      vertex 2.62931 -1.9103 0
    endloop
  endfacet
  facet normal 0.866025 -0.500001 0
    outer loop
      vertex 2.62931 -1.9103 24.5
      vertex 2.62931 -1.9103 0
      vertex 2.96902 -1.32189 0
    endloop
  endfacet
  facet normal 0.866025 -0.500001 0
    outer loop
      vertex 2.96902 -1.32189 24.5
      vertex 2.62931 -1.9103 24.5
      vertex 2.96902 -1.32189 0
    endloop
  endfacet
  facet normal 0.951056 -0.309017 0
    outer loop
      vertex 2.96902 -1.32189 24.5
      vertex 2.96902 -1.32189 0
      vertex 3.17898 -0.675713 0
    endloop
  endfacet
  facet normal 0.951056 -0.309017 0
    outer loop
      vertex 3.17898 -0.675713 24.5
      vertex 2.96902 -1.32189 24.5
      vertex 3.17898 -0.675713 0
    endloop
  endfacet
  facet normal 0.994522 -0.104528 0
    outer loop
      vertex 3.17898 -0.675713 24.5
      vertex 3.17898 -0.675713 0
      vertex 3.25 0 0
    endloop
  endfacet
  facet normal 0.994522 -0.104528 0
    outer loop
      vertex 3.25 0 24.5
      vertex 3.17898 -0.675713 24.5
      vertex 3.25 0 0
    endloop
  endfacet
  facet normal 0.994522 0.104528 0
    outer loop
      vertex 3.25 0 0
      vertex 3.17898 0.675713 0
      vertex 3.17898 0.675713 24.5
    endloop
  endfacet
  facet normal 0.994522 0.104528 0
    outer loop
      vertex 3.25 0 24.5
      vertex 3.25 0 0
      vertex 3.17898 0.675713 24.5
    endloop
  endfacet
  facet normal 0.951056 0.309017 0
    outer loop
      vertex 3.17898 0.675713 0
      vertex 2.96902 1.32189 0
      vertex 2.96902 1.32189 24.5
    endloop
  endfacet
  facet normal 0.951056 0.309017 0
    outer loop
      vertex 3.17898 0.675713 24.5
      vertex 3.17898 0.675713 0
      vertex 2.96902 1.32189 24.5
    endloop
  endfacet
  facet normal 0.866025 0.500001 0
    outer loop
      vertex 2.96902 1.32189 0
      vertex 2.62931 1.9103 0
      vertex 2.62931 1.9103 24.5
    endloop
  endfacet
  facet normal 0.866025 0.500001 0
    outer loop
      vertex 2.96902 1.32189 24.5
      vertex 2.96902 1.32189 0
      vertex 2.62931 1.9103 24.5
    endloop
  endfacet
  facet normal 0.743145 0.669131 0
    outer loop
      vertex 2.62931 1.9103 0
      vertex 2.17467 2.41522 0
      vertex 2.17467 2.41522 24.5
    endloop
  endfacet
  facet normal 0.743145 0.669131 0
    outer loop
      vertex 2.62931 1.9103 24.5
      vertex 2.62931 1.9103 0
      vertex 2.17467 2.41522 24.5
    endloop
  endfacet
  facet normal 0.587786 0.809017 0
    outer loop
      vertex 1.625 2.81458 0
      vertex 1.625 2.81458 24.5
      vertex 2.17467 2.41522 0
    endloop
  endfacet
  facet normal 0.587786 0.809017 0
    outer loop
      vertex 2.17467 2.41522 0
      vertex 1.625 2.81458 24.5
      vertex 2.17467 2.41522 24.5
    endloop
  endfacet
  facet normal 0.406736 0.913546 0
    outer loop
      vertex 1.00431 3.09093 0
      vertex 1.00431 3.09093 24.5
      vertex 1.625 2.81458 0
    endloop
  endfacet
  facet normal 0.406736 0.913546 0
    outer loop
      vertex 1.625 2.81458 0
      vertex 1.00431 3.09093 24.5
      vertex 1.625 2.81458 24.5
    endloop
  endfacet
  facet normal 0.207911 0.978148 0
    outer loop
      vertex 0.339718 3.2322 0
      vertex 0.339718 3.2322 11.134
      vertex 1.00431 3.09093 0
    endloop
  endfacet
  facet normal 0.207911 0.978148 0
    outer loop
      vertex 1.00431 3.09093 0
      vertex 0.339718 3.2322 11.134
      vertex 0.5 3.19813 11.134
    endloop
  endfacet
  facet normal 0.207911 0.978148 0
    outer loop
      vertex 1.00431 3.09093 0
      vertex 0.5 3.19813 11.134
      vertex 1 3.09185 12
    endloop
  endfacet
  facet normal 0.207911 0.978148 0
    outer loop
      vertex 0.5 3.19813 12.866
      vertex 0.339718 3.2322 12.866
      vertex 0.339718 3.2322 24.5
    endloop
  endfacet
  facet normal 0.207911 0.978148 0
    outer loop
      vertex 0.5 3.19813 12.866
      vertex 0.339718 3.2322 24.5
      vertex 1 3.09185 12
    endloop
  endfacet
  facet normal 0.207911 0.978148 0
    outer loop
      vertex 1 3.09185 12
      vertex 0.339718 3.2322 24.5
      vertex 1.00431 3.09093 24.5
    endloop
  endfacet
  facet normal 0.207911 0.978148 0
    outer loop
      vertex 1 3.09185 12
      vertex 1.00431 3.09093 24.5
      vertex 1.00431 3.09093 0
    endloop
  endfacet
  facet normal 0 1 0
    outer loop
      vertex -0.339718 3.2322 0
      vertex -0.339718 3.2322 11.134
      vertex 0.339718 3.2322 0
    endloop
  endfacet
  facet normal 0 1 0
    outer loop
      vertex 0.339718 3.2322 0
      vertex -0.339718 3.2322 11.134
      vertex 0.339718 3.2322 11.134
    endloop
  endfacet
  facet normal -0.207911 0.978148 0
    outer loop
      vertex -0.339718 3.2322 11.134
      vertex -0.339718 3.2322 0
      vertex -0.5 3.19813 11.134
    endloop
  endfacet
  facet normal -0.207911 0.978148 0
    outer loop
      vertex -0.339718 3.2322 12.866
      vertex -1.00431 3.09093 24.5
      vertex -0.339718 3.2322 24.5
    endloop
  endfacet
  facet normal -0.207911 0.978148 0
    outer loop
      vertex -0.5 3.19813 12.866
      vertex -1.00431 3.09093 24.5
      vertex -0.339718 3.2322 12.866
    endloop
  endfacet
  facet normal -0.207911 0.978148 0
    outer loop
      vertex -1.00431 3.09093 0
      vertex -1.00431 3.09093 24.5
      vertex -1 3.09185 12
    endloop
  endfacet
  facet normal -0.207911 0.978148 0
    outer loop
      vertex -1.00431 3.09093 0
      vertex -1 3.09185 12
      vertex -0.339718 3.2322 0
    endloop
  endfacet
  facet normal -0.207911 0.978148 0
    outer loop
      vertex -1 3.09185 12
      vertex -1.00431 3.09093 24.5
      vertex -0.5 3.19813 12.866
    endloop
  endfacet
  facet normal -0.207911 0.978148 0
    outer loop
      vertex -0.5 3.19813 11.134
      vertex -0.339718 3.2322 0
      vertex -1 3.09185 12
    endloop
  endfacet
  facet normal -0.406736 0.913546 0
    outer loop
      vertex -1.625 2.81458 0
      vertex -1.625 2.81458 24.5
      vertex -1.00431 3.09093 0
    endloop
  endfacet
  facet normal -0.406736 0.913546 0
    outer loop
      vertex -1.00431 3.09093 0
      vertex -1.625 2.81458 24.5
      vertex -1.00431 3.09093 24.5
    endloop
  endfacet
  facet normal -0.587786 0.809017 0
    outer loop
      vertex -2.17467 2.41522 0
      vertex -2.17467 2.41522 24.5
      vertex -1.625 2.81458 0
    endloop
  endfacet
  facet normal -0.587786 0.809017 0
    outer loop
      vertex -1.625 2.81458 0
      vertex -2.17467 2.41522 24.5
      vertex -1.625 2.81458 24.5
    endloop
  endfacet
  facet normal -0.743145 0.669131 0
    outer loop
      vertex -2.62931 1.9103 0
      vertex -2.62931 1.9103 24.5
      vertex -2.17467 2.41522 0
    endloop
  endfacet
  facet normal -0.743145 0.669131 0
    outer loop
      vertex -2.17467 2.41522 0
      vertex -2.62931 1.9103 24.5
      vertex -2.17467 2.41522 24.5
    endloop
  endfacet
  facet normal -0.866025 0.500001 0
    outer loop
      vertex -2.96902 1.32189 0
      vertex -2.96902 1.32189 24.5
      vertex -2.62931 1.9103 0
    endloop
  endfacet
  facet normal -0.866025 0.500001 0
    outer loop
      vertex -2.62931 1.9103 0
      vertex -2.96902 1.32189 24.5
      vertex -2.62931 1.9103 24.5
    endloop
  endfacet
  facet normal -0.951056 0.309017 0
    outer loop
      vertex -3.17898 0.675713 0
      vertex -3.17898 0.675713 24.5
      vertex -2.96902 1.32189 0
    endloop
  endfacet
  facet normal -0.951056 0.309017 0
    outer loop
      vertex -2.96902 1.32189 0
      vertex -3.17898 0.675713 24.5
      vertex -2.96902 1.32189 24.5
    endloop
  endfacet
  facet normal 0.866025 -0.5 0
    outer loop
      vertex -0.5 0.866025 0
      vertex -0.5 0.866025 10
      vertex -1 0 10
    endloop
  endfacet
  facet normal 0.866025 -0.5 0
    outer loop
      vertex -1 0 0
      vertex -0.5 0.866025 0
      vertex -1 0 10
    endloop
  endfacet
  facet normal 0.866025 0.5 0
    outer loop
      vertex -1 0 10
      vertex -0.5 -0.866025 10
      vertex -0.5 -0.866025 0
    endloop
  endfacet
  facet normal 0.866025 0.5 0
    outer loop
      vertex -1 0 0
      vertex -1 0 10
      vertex -0.5 -0.866025 0
    endloop
  endfacet
  facet normal 0 -1 0
    outer loop
      vertex 0.5 0.866025 0
      vertex 0.5 0.866025 10
      vertex -0.5 0.866025 10
    endloop
  endfacet
  facet normal 0 -1 0
    outer loop
      vertex -0.5 0.866025 0
      vertex 0.5 0.866025 0
      vertex -0.5 0.866025 10
    endloop
  endfacet
  facet normal -0.866025 -0.5 0
    outer loop
      vertex 1 0 10
      vertex 0.5 0.866025 10
      vertex 1 0 0
    endloop
  endfacet
  facet normal -0.866025 -0.5 0
    outer loop
      vertex 1 0 0
      vertex 0.5 0.866025 10
      vertex 0.5 0.866025 0
    endloop
  endfacet
  facet normal -0.866025 0.5 0
    outer loop
      vertex 1 0 10
      vertex 1 0 0
      vertex 0.5 -0.866025 10
    endloop
  endfacet
  facet normal -0.866025 0.5 0
    outer loop
      vertex 0.5 -0.866025 10
      vertex 1 0 0
      vertex 0.5 -0.866025 0
    endloop
  endfacet
  facet normal 0 1 0
    outer loop
      vertex 0.5 -0.866025 10
      vertex 0.5 -0.866025 0
      vertex -0.5 -0.866025 10
    endloop
  endfacet
  facet normal 0 1 0
    outer loop
      vertex -0.5 -0.866025 10
      vertex 0.5 -0.866025 0
      vertex -0.5 -0.866025 0
    endloop
  endfacet
  facet normal 0 0 1
    outer loop
      vertex -3.17898 0.675713 24.5
      vertex -3.25 0 24.5
      vertex -3.17898 -0.675713 24.5
    endloop
  endfacet
  facet normal 0 0 1
    outer loop
      vertex -2.62931 -1.9103 24.5
      vertex -3.17898 0.675713 24.5
      vertex -2.96902 -1.32189 24.5
    endloop
  endfacet
  facet normal 0 0 1
    outer loop
      vertex -2.96902 -1.32189 24.5
      vertex -3.17898 0.675713 24.5
      vertex -3.17898 -0.675713 24.5
    endloop
  endfacet
  facet normal 0 0 1
    outer loop
      vertex -2.17467 -2.41522 24.5
      vertex -3.17898 0.675713 24.5
      vertex -2.62931 -1.9103 24.5
    endloop
  endfacet
  facet normal 0 0 1
    outer loop
      vertex -1.625 -2.81458 24.5
      vertex -3.17898 0.675713 24.5
      vertex -2.17467 -2.41522 24.5
    endloop
  endfacet
  facet normal 0 0 1
    outer loop
      vertex -1.00431 -3.09093 24.5
      vertex -3.17898 0.675713 24.5
      vertex -1.625 -2.81458 24.5
    endloop
  endfacet
  facet normal 0 0 1
    outer loop
      vertex -0.339718 -3.2322 24.5
      vertex -3.17898 0.675713 24.5
      vertex -1.00431 -3.09093 24.5
    endloop
  endfacet
  facet normal 0 0 1
    outer loop
      vertex 0.339718 -3.2322 24.5
      vertex -3.17898 0.675713 24.5
      vertex -0.339718 -3.2322 24.5
    endloop
  endfacet
  facet normal 0 0 1
    outer loop
      vertex 1.00431 -3.09093 24.5
      vertex -3.17898 0.675713 24.5
      vertex 0.339718 -3.2322 24.5
    endloop
  endfacet
  facet normal 0 0 1
    outer loop
      vertex 1.625 -2.81458 24.5
      vertex -3.17898 0.675713 24.5
      vertex 1.00431 -3.09093 24.5
    endloop
  endfacet
  facet normal 0 0 1
    outer loop
      vertex 2.17467 -2.41522 24.5
      vertex -3.17898 0.675713 24.5
      vertex 1.625 -2.81458 24.5
    endloop
  endfacet
  facet normal 0 0 1
    outer loop
      vertex 2.62931 -1.9103 24.5
      vertex -3.17898 0.675713 24.5
      vertex 2.17467 -2.41522 24.5
    endloop
  endfacet
  facet normal 0 0 1
    outer loop
      vertex 2.96902 -1.32189 24.5
      vertex -3.17898 0.675713 24.5
      vertex 2.62931 -1.9103 24.5
    endloop
  endfacet
  facet normal 0 0 1
    outer loop
      vertex 3.17898 -0.675713 24.5
      vertex -3.17898 0.675713 24.5
      vertex 2.96902 -1.32189 24.5
    endloop
  endfacet
  facet normal 0 0 1
    outer loop
      vertex 3.25 0 24.5
      vertex -3.17898 0.675713 24.5
      vertex 3.17898 -0.675713 24.5
    endloop
  endfacet
  facet normal 0 0 1
    outer loop
      vertex 3.17898 0.675713 24.5
      vertex -3.17898 0.675713 24.5
      vertex 3.25 0 24.5
    endloop
  endfacet
  facet normal 0 0 1
    outer loop
      vertex 2.96902 1.32189 24.5
      vertex -3.17898 0.675713 24.5
      vertex 3.17898 0.675713 24.5
    endloop
  endfacet
  facet normal 0 0 1
    outer loop
      vertex 2.62931 1.9103 24.5
      vertex -3.17898 0.675713 24.5
      vertex 2.96902 1.32189 24.5
    endloop
  endfacet
  facet normal 0 0 1
    outer loop
      vertex 2.17467 2.41522 24.5
      vertex -3.17898 0.675713 24.5
      vertex 2.62931 1.9103 24.5
    endloop
  endfacet
  facet normal 0 0 1
    outer loop
      vertex 1.625 2.81458 24.5
      vertex -3.17898 0.675713 24.5
      vertex 2.17467 2.41522 24.5
    endloop
  endfacet
  facet normal 0 0 1
    outer loop
      vertex 1.00431 3.09093 24.5
      vertex -3.17898 0.675713 24.5
      vertex 1.625 2.81458 24.5
    endloop
  endfacet
  facet normal 0 0 1
    outer loop
      vertex 0.339718 3.2322 24.5
      vertex -3.17898 0.675713 24.5
      vertex 1.00431 3.09093 24.5
    endloop
  endfacet
  facet normal 0 0 1
    outer loop
      vertex -0.339718 3.2322 24.5
      vertex -3.17898 0.675713 24.5
      vertex 0.339718 3.2322 24.5
    endloop
  endfacet
  facet normal 0 0 1
    outer loop
      vertex -1.00431 3.09093 24.5
      vertex -3.17898 0.675713 24.5
      vertex -0.339718 3.2322 24.5
    endloop
  endfacet
  facet normal 0 0 1
    outer loop
      vertex -1.625 2.81458 24.5
      vertex -3.17898 0.675713 24.5
      vertex -1.00431 3.09093 24.5
    endloop
  endfacet
  facet normal 0 0 1
    outer loop
      vertex -2.17467 2.41522 24.5
      vertex -3.17898 0.675713 24.5
      vertex -1.625 2.81458 24.5
    endloop
  endfacet
  facet normal 0 0 1
    outer loop
      vertex -2.62931 1.9103 24.5
      vertex -3.17898 0.675713 24.5
      vertex -2.17467 2.41522 24.5
    endloop
  endfacet
  facet normal 0 0 1
    outer loop
      vertex -2.96902 1.32189 24.5
      vertex -3.17898 0.675713 24.5
      vertex -2.62931 1.9103 24.5
    endloop
  endfacet
  facet normal 0 -1 0
    outer loop
      vertex -0.339718 -3.2322 24.5
      vertex -0.339718 -3.2322 12.866
      vertex 0.339718 -3.2322 12.866
    endloop
  endfacet
  facet normal 0 -1 0
    outer loop
      vertex 0.339718 -3.2322 24.5
      vertex -0.339718 -3.2322 24.5
      vertex 0.339718 -3.2322 12.866
    endloop
  endfacet
  facet normal 0 -2.22045e-016 -1
    outer loop
      vertex -0.339718 3.2322 12.866
      vertex 0.339718 3.2322 12.866
      vertex -0.5 3.19813 12.866
    endloop
  endfacet
  facet normal 0 -2.22045e-016 -1
    outer loop
      vertex -0.5 3.19813 12.866
      vertex 0.339718 3.2322 12.866
      vertex 0.5 3.19813 12.866
    endloop
  endfacet
  facet normal 0 -2.22045e-016 -1
    outer loop
      vertex -0.5 3.19813 12.866
      vertex 0.5 3.19813 12.866
      vertex 0.5 -3.19813 12.866
    endloop
  endfacet
  facet normal 0 -2.22045e-016 -1
    outer loop
      vertex -0.5 3.19813 12.866
      vertex 0.5 -3.19813 12.866
      vertex 0.339718 -3.2322 12.866
    endloop
  endfacet
  facet normal 0 -2.22045e-016 -1
    outer loop
      vertex -0.5 3.19813 12.866
      vertex 0.339718 -3.2322 12.866
      vertex -0.339718 -3.2322 12.866
    endloop
  endfacet
  facet normal 0 -2.22045e-016 -1
    outer loop
      vertex -0.5 3.19813 12.866
      vertex -0.339718 -3.2322 12.866
      vertex -0.5 -3.19813 12.866
    endloop
  endfacet
  facet normal 0.866025 -1.11022e-016 -0.5
    outer loop
      vertex -1 3.09185 12
      vertex -0.5 3.19813 12.866
      vertex -0.5 -3.19813 12.866
    endloop
  endfacet
  facet normal 0.866025 -1.11022e-016 -0.5
    outer loop
      vertex -1 -3.09185 12
      vertex -1 3.09185 12
      vertex -0.5 -3.19813 12.866
    endloop
  endfacet
  facet normal 0.866025 1.11022e-016 0.5
    outer loop
      vertex -0.5 -3.19813 11.134
      vertex -0.5 3.19813 11.134
      vertex -1 3.09185 12
    endloop
  endfacet
  facet normal 0.866025 1.11022e-016 0.5
    outer loop
      vertex -1 -3.09185 12
      vertex -0.5 -3.19813 11.134
      vertex -1 3.09185 12
    endloop
  endfacet
  facet normal 0 2.22045e-016 1
    outer loop
      vertex -0.339718 -3.2322 11.134
      vertex 0.339718 -3.2322 11.134
      vertex 0.5 -3.19813 11.134
    endloop
  endfacet
  facet normal 0 2.22045e-016 1
    outer loop
      vertex 0.339718 3.2322 11.134
      vertex -0.339718 -3.2322 11.134
      vertex 0.5 3.19813 11.134
    endloop
  endfacet
  facet normal 0 2.22045e-016 1
    outer loop
      vertex 0.5 3.19813 11.134
      vertex -0.339718 -3.2322 11.134
      vertex 0.5 -3.19813 11.134
    endloop
  endfacet
  facet normal 0 2.22045e-016 1
    outer loop
      vertex -0.339718 3.2322 11.134
      vertex -0.339718 -3.2322 11.134
      vertex 0.339718 3.2322 11.134
    endloop
  endfacet
  facet normal 0 2.22045e-016 1
    outer loop
      vertex -0.5 3.19813 11.134
      vertex -0.339718 -3.2322 11.134
      vertex -0.339718 3.2322 11.134
    endloop
  endfacet
  facet normal 0 2.22045e-016 1
    outer loop
      vertex -0.5 -3.19813 11.134
      vertex -0.339718 -3.2322 11.134
      vertex -0.5 3.19813 11.134
    endloop
  endfacet
  facet normal -0.866025 1.11022e-016 0.5
    outer loop
      vertex 1 3.09185 12
      vertex 0.5 3.19813 11.134
      vertex 1 -3.09185 12
    endloop
  endfacet
  facet normal -0.866025 1.11022e-016 0.5
    outer loop
      vertex 1 -3.09185 12
      vertex 0.5 3.19813 11.134
      vertex 0.5 -3.19813 11.134
    endloop
  endfacet
  facet normal -0.866025 -1.11022e-016 -0.5
    outer loop
      vertex 1 3.09185 12
      vertex 1 -3.09185 12
      vertex 0.5 3.19813 12.866
    endloop
  endfacet
  facet normal -0.866025 -1.11022e-016 -0.5
    outer loop
      vertex 0.5 3.19813 12.866
      vertex 1 -3.09185 12
      vertex 0.5 -3.19813 12.866
    endloop
  endfacet
  facet normal 0 1 0
    outer loop
      vertex -0.339718 3.2322 12.866
      vertex -0.339718 3.2322 24.5
      vertex 0.339718 3.2322 12.866
    endloop
  endfacet
  facet normal 0 1 0
    outer loop
      vertex 0.339718 3.2322 12.866
      vertex -0.339718 3.2322 24.5
      vertex 0.339718 3.2322 24.5
    endloop
  endfacet
  facet normal 0 0 -1
    outer loop
      vertex 0.5 0.866025 10
      vertex 1 0 10
      vertex -0.5 0.866025 10
    endloop
  endfacet
  facet normal 0 0 -1
    outer loop
      vertex -0.5 0.866025 10
      vertex 1 0 10
      vertex 0.5 -0.866025 10
    endloop
  endfacet
  facet normal 0 0 -1
    outer loop
      vertex -0.5 0.866025 10
      vertex 0.5 -0.866025 10
      vertex -0.5 -0.866025 10
    endloop
  endfacet
  facet normal 0 0 -1
    outer loop
      vertex -0.5 0.866025 10
      vertex -0.5 -0.866025 10
      vertex -1 0 10
    endloop
  endfacet
endsolid OpenSCAD_Model
