solid OpenSCAD_Model
  facet normal 0 0 -1
    outer loop
      vertex 0 58 0
      vertex 117 60.5 0
      vertex 117 -2.5 0
    endloop
  endfacet
  facet normal 0 0 -1
    outer loop
      vertex 0 58 0
      vertex 117 -2.5 0
      vertex 0 0 0
    endloop
  endfacet
  facet normal 0 -0 1
    outer loop
      vertex 117 -2.5 2
      vertex 117 60.5 2
      vertex 0 58 2
    endloop
  endfacet
  facet normal -0 0 1
    outer loop
      vertex 0 0 2
      vertex 117 -2.5 2
      vertex 0 58 2
    endloop
  endfacet
  facet normal -0.0213626 0.999772 0
    outer loop
      vertex 0 58 0
      vertex 117 60.5 2
      vertex 117 60.5 0
    endloop
  endfacet
  facet normal -0.0213626 0.999772 0
    outer loop
      vertex 0 58 0
      vertex 0 58 2
      vertex 117 60.5 2
    endloop
  endfacet
  facet normal -1 0 0
    outer loop
      vertex 0 0 0
      vertex 0 58 2
      vertex 0 58 0
    endloop
  endfacet
  facet normal -1 0 0
    outer loop
      vertex 0 0 0
      vertex 0 0 2
      vertex 0 58 2
    endloop
  endfacet
  facet normal -0.0213626 -0.999772 0
    outer loop
      vertex 117 -2.5 0
      vertex 0 0 2
      vertex 0 0 0
    endloop
  endfacet
  facet normal -0.0213626 -0.999772 0
    outer loop
      vertex 117 -2.5 0
      vertex 117 -2.5 2
      vertex 0 0 2
    endloop
  endfacet
  facet normal 1 0 0
    outer loop
      vertex 117 60.5 0
      vertex 117 -2.5 2
      vertex 117 -2.5 0
    endloop
  endfacet
  facet normal 1 0 -0
    outer loop
      vertex 117 60.5 0
      vertex 117 60.5 2
      vertex 117 -2.5 2
    endloop
  endfacet
endsolid OpenSCAD_Model
