solid OpenSCAD_Model
  facet normal -1 0 0
    outer loop
      vertex -15.8 0 0
      vertex -15.8 4.2 14
      vertex -15.8 4.2 0
    endloop
  endfacet
  facet normal -1 -0 0
    outer loop
      vertex -15.8 4.2 14
      vertex -15.8 0 0
      vertex -15.8 0 14
    endloop
  endfacet
  facet normal 0 0 1
    outer loop
      vertex 0 9.19239 14
      vertex 4.2 20 14
      vertex 0 20 14
    endloop
  endfacet
  facet normal 0 0 1
    outer loop
      vertex 4.2 20 14
      vertex 0 9.19239 14
      vertex 4.2 0 14
    endloop
  endfacet
  facet normal -0 0 1
    outer loop
      vertex -4.99239 4.2 14
      vertex 4.2 0 14
      vertex 0 9.19239 14
    endloop
  endfacet
  facet normal 0 0 1
    outer loop
      vertex -15.8 0 14
      vertex -4.99239 4.2 14
      vertex -15.8 4.2 14
    endloop
  endfacet
  facet normal 0 0 1
    outer loop
      vertex -4.99239 4.2 14
      vertex -15.8 0 14
      vertex 4.2 0 14
    endloop
  endfacet
  facet normal 1 -0 0
    outer loop
      vertex 4.2 0 14
      vertex 4.2 20 0
      vertex 4.2 20 14
    endloop
  endfacet
  facet normal 1 0 0
    outer loop
      vertex 4.2 20 0
      vertex 4.2 0 14
      vertex 4.2 0 0
    endloop
  endfacet
  facet normal 0 1 -0
    outer loop
      vertex -4.99239 4.2 0
      vertex -15.8 4.2 14
      vertex -4.99239 4.2 14
    endloop
  endfacet
  facet normal 0 1 0
    outer loop
      vertex -15.8 4.2 14
      vertex -4.99239 4.2 0
      vertex -15.8 4.2 0
    endloop
  endfacet
  facet normal 0 0 -1
    outer loop
      vertex 4.2 0 0
      vertex 0 9.19239 0
      vertex 4.2 20 0
    endloop
  endfacet
  facet normal 0 0 -1
    outer loop
      vertex 4.2 0 0
      vertex -4.99239 4.2 0
      vertex 0 9.19239 0
    endloop
  endfacet
  facet normal 0 0 -1
    outer loop
      vertex -15.8 0 0
      vertex -4.99239 4.2 0
      vertex 4.2 0 0
    endloop
  endfacet
  facet normal -0 0 -1
    outer loop
      vertex -4.99239 4.2 0
      vertex -15.8 0 0
      vertex -15.8 4.2 0
    endloop
  endfacet
  facet normal -0 0 -1
    outer loop
      vertex 4.2 20 0
      vertex 0 9.19239 0
      vertex 0 20 0
    endloop
  endfacet
  facet normal 0 -1 0
    outer loop
      vertex -15.8 0 0
      vertex 4.2 0 14
      vertex -15.8 0 14
    endloop
  endfacet
  facet normal 0 -1 -0
    outer loop
      vertex 4.2 0 14
      vertex -15.8 0 0
      vertex 4.2 0 0
    endloop
  endfacet
  facet normal -0.707107 0.707107 0
    outer loop
      vertex -4.99239 4.2 0
      vertex 0 9.19239 14
      vertex 0 9.19239 0
    endloop
  endfacet
  facet normal -0.707107 0.707107 0
    outer loop
      vertex 0 9.19239 14
      vertex -4.99239 4.2 0
      vertex -4.99239 4.2 14
    endloop
  endfacet
  facet normal -1 0 0
    outer loop
      vertex 0 9.19239 0
      vertex 0 20 14
      vertex 0 20 0
    endloop
  endfacet
  facet normal -1 -0 0
    outer loop
      vertex 0 20 14
      vertex 0 9.19239 0
      vertex 0 9.19239 14
    endloop
  endfacet
  facet normal 0 1 -0
    outer loop
      vertex 4.2 20 0
      vertex 0 20 14
      vertex 4.2 20 14
    endloop
  endfacet
  facet normal 0 1 0
    outer loop
      vertex 0 20 14
      vertex 4.2 20 0
      vertex 0 20 0
    endloop
  endfacet
endsolid OpenSCAD_Model
