solid OpenSCAD_Model
  facet normal -1 0 0
    outer loop
      vertex 0 0 0
      vertex 0 0 14
      vertex 0 6 0
    endloop
  endfacet
  facet normal -1 0 0
    outer loop
      vertex 0 6 0
      vertex 0 0 14
      vertex 0 6 14
    endloop
  endfacet
  facet normal 0 -1 0
    outer loop
      vertex 0 0 14
      vertex 0 0 0
      vertex 60 0 0
    endloop
  endfacet
  facet normal 0 -1 0
    outer loop
      vertex 60 0 14
      vertex 0 0 14
      vertex 60 0 0
    endloop
  endfacet
  facet normal 0 0 -1
    outer loop
      vertex 0 0 0
      vertex 0 6 0
      vertex 60 0 0
    endloop
  endfacet
  facet normal 0 0 -1
    outer loop
      vertex 60 0 0
      vertex 0 6 0
      vertex 48 6 0
    endloop
  endfacet
  facet normal 0 0 -1
    outer loop
      vertex 60 0 0
      vertex 48 6 0
      vertex 48 7.2 0
    endloop
  endfacet
  facet normal 0 0 -1
    outer loop
      vertex 60 0 0
      vertex 48 7.2 0
      vertex 54 7.2 0
    endloop
  endfacet
  facet normal 0 0 -1
    outer loop
      vertex 60 0 0
      vertex 54 7.2 0
      vertex 54 21 0
    endloop
  endfacet
  facet normal 0 0 -1
    outer loop
      vertex 60 0 0
      vertex 54 21 0
      vertex 60 21 0
    endloop
  endfacet
  facet normal 0 1 0
    outer loop
      vertex 0 6 0
      vertex 0 6 14
      vertex 48 6 0
    endloop
  endfacet
  facet normal 0 1 0
    outer loop
      vertex 48 6 0
      vertex 0 6 14
      vertex 48 6 14
    endloop
  endfacet
  facet normal 0 0 1
    outer loop
      vertex 0 6 14
      vertex 0 0 14
      vertex 60 0 14
    endloop
  endfacet
  facet normal 0 0 1
    outer loop
      vertex 48 6 14
      vertex 0 6 14
      vertex 60 0 14
    endloop
  endfacet
  facet normal 0 0 1
    outer loop
      vertex 60 21 14
      vertex 54 7.2 14
      vertex 60 0 14
    endloop
  endfacet
  facet normal 0 0 1
    outer loop
      vertex 48 7.2 14
      vertex 48 6 14
      vertex 54 7.2 14
    endloop
  endfacet
  facet normal 0 0 1
    outer loop
      vertex 54 7.2 14
      vertex 48 6 14
      vertex 60 0 14
    endloop
  endfacet
  facet normal 0 0 1
    outer loop
      vertex 54 21 14
      vertex 54 7.2 14
      vertex 60 21 14
    endloop
  endfacet
  facet normal 1 0 0
    outer loop
      vertex 60 0 14
      vertex 60 0 0
      vertex 60 21 0
    endloop
  endfacet
  facet normal 1 0 0
    outer loop
      vertex 60 21 14
      vertex 60 0 14
      vertex 60 21 0
    endloop
  endfacet
  facet normal 0 1 0
    outer loop
      vertex 54 21 0
      vertex 54 21 14
      vertex 60 21 0
    endloop
  endfacet
  facet normal 0 1 0
    outer loop
      vertex 60 21 0
      vertex 54 21 14
      vertex 60 21 14
    endloop
  endfacet
  facet normal -1 0 0
    outer loop
      vertex 54 7.2 0
      vertex 54 7.2 14
      vertex 54 21 0
    endloop
  endfacet
  facet normal -1 0 0
    outer loop
      vertex 54 21 0
      vertex 54 7.2 14
      vertex 54 21 14
    endloop
  endfacet
  facet normal 0 1 0
    outer loop
      vertex 48 7.2 0
      vertex 48 7.2 14
      vertex 54 7.2 0
    endloop
  endfacet
  facet normal 0 1 0
    outer loop
      vertex 54 7.2 0
      vertex 48 7.2 14
      vertex 54 7.2 14
    endloop
  endfacet
  facet normal -1 0 0
    outer loop
      vertex 48 6 0
      vertex 48 6 14
      vertex 48 7.2 0
    endloop
  endfacet
  facet normal -1 0 0
    outer loop
      vertex 48 7.2 0
      vertex 48 6 14
      vertex 48 7.2 14
    endloop
  endfacet
endsolid OpenSCAD_Model
