solid OpenSCAD_Model
  facet normal -0.908663 -0.180744 -0.376381
    outer loop
      vertex -3.84089 -1.59095 7.22215
      vertex -4.90393 6.00538e-016 9.02455
      vertex -4.15735 5.09111e-016 7.22215
    endloop
  endfacet
  facet normal -0.908663 0.180744 -0.376381
    outer loop
      vertex -4.15735 5.09111e-016 7.22215
      vertex -4.90393 6.00538e-016 9.02455
      vertex -4.53064 1.87665 9.02455
    endloop
  endfacet
  facet normal -0.980785 0.19509 0
    outer loop
      vertex -4.90393 6.00538e-016 9.02455
      vertex -4.90393 6.00538e-016 10.9755
      vertex -4.53064 1.87665 9.02455
    endloop
  endfacet
  facet normal -0.980785 0.19509 0
    outer loop
      vertex -4.53064 1.87665 9.02455
      vertex -4.90393 6.00538e-016 10.9755
      vertex -4.53064 1.87665 10.9755
    endloop
  endfacet
  facet normal -0.980785 -0.19509 0
    outer loop
      vertex -4.90393 6.00538e-016 9.02455
      vertex -4.53064 -1.87665 9.02455
      vertex -4.90393 6.00538e-016 10.9755
    endloop
  endfacet
  facet normal -0.980785 -0.19509 0
    outer loop
      vertex -4.90393 6.00538e-016 10.9755
      vertex -4.53064 -1.87665 9.02455
      vertex -4.53064 -1.87665 10.9755
    endloop
  endfacet
  facet normal -0.908663 -0.180744 -0.376381
    outer loop
      vertex -4.53064 -1.87665 9.02455
      vertex -4.90393 6.00538e-016 9.02455
      vertex -3.84089 -1.59095 7.22215
    endloop
  endfacet
  facet normal -0.770328 -0.514716 -0.376381
    outer loop
      vertex -3.4676 -3.4676 9.02455
      vertex -3.84089 -1.59095 7.22215
      vertex -2.93969 -2.93969 7.22215
    endloop
  endfacet
  facet normal -0.593613 -0.39664 -0.700215
    outer loop
      vertex -2.93969 -2.93969 7.22215
      vertex -3.84089 -1.59095 7.22215
      vertex -2.5664 -1.06304 5.84265
    endloop
  endfacet
  facet normal -0.700215 -0.139281 -0.700215
    outer loop
      vertex -3.84089 -1.59095 7.22215
      vertex -4.15735 5.09111e-016 7.22215
      vertex -2.5664 -1.06304 5.84265
    endloop
  endfacet
  facet normal -0.770328 -0.514716 -0.376381
    outer loop
      vertex -3.4676 -3.4676 9.02455
      vertex -4.53064 -1.87665 9.02455
      vertex -3.84089 -1.59095 7.22215
    endloop
  endfacet
  facet normal -0.700215 -0.139281 -0.700215
    outer loop
      vertex -2.5664 -1.06304 5.84265
      vertex -4.15735 5.09111e-016 7.22215
      vertex -2.77785 3.40177e-016 5.84265
    endloop
  endfacet
  facet normal -0.700215 0.139281 -0.700215
    outer loop
      vertex -2.77785 3.40177e-016 5.84265
      vertex -4.15735 5.09111e-016 7.22215
      vertex -2.5664 1.06304 5.84265
    endloop
  endfacet
  facet normal -0.700215 0.139281 -0.700215
    outer loop
      vertex -2.5664 1.06304 5.84265
      vertex -4.15735 5.09111e-016 7.22215
      vertex -3.84089 1.59095 7.22215
    endloop
  endfacet
  facet normal -0.908663 0.180744 -0.376381
    outer loop
      vertex -4.15735 5.09111e-016 7.22215
      vertex -4.53064 1.87665 9.02455
      vertex -3.84089 1.59095 7.22215
    endloop
  endfacet
  facet normal -0.770328 0.514716 -0.376381
    outer loop
      vertex -2.93969 2.93969 7.22215
      vertex -4.53064 1.87665 9.02455
      vertex -3.4676 3.4676 9.02455
    endloop
  endfacet
  facet normal -0.83147 0.55557 0
    outer loop
      vertex -4.53064 1.87665 9.02455
      vertex -4.53064 1.87665 10.9755
      vertex -3.4676 3.4676 9.02455
    endloop
  endfacet
  facet normal -0.83147 0.55557 0
    outer loop
      vertex -3.4676 3.4676 9.02455
      vertex -4.53064 1.87665 10.9755
      vertex -3.4676 3.4676 10.9755
    endloop
  endfacet
  facet normal -0.770328 0.514716 -0.376381
    outer loop
      vertex -3.84089 1.59095 7.22215
      vertex -4.53064 1.87665 9.02455
      vertex -2.93969 2.93969 7.22215
    endloop
  endfacet
  facet normal -0.770328 0.514716 0.376381
    outer loop
      vertex -3.4676 3.4676 10.9755
      vertex -4.53064 1.87665 10.9755
      vertex -3.84089 1.59095 12.7779
    endloop
  endfacet
  facet normal -0.908663 0.180744 0.376381
    outer loop
      vertex -3.84089 1.59095 12.7779
      vertex -4.53064 1.87665 10.9755
      vertex -4.15735 5.09111e-016 12.7779
    endloop
  endfacet
  facet normal -0.908663 0.180744 0.376381
    outer loop
      vertex -4.53064 1.87665 10.9755
      vertex -4.90393 6.00538e-016 10.9755
      vertex -4.15735 5.09111e-016 12.7779
    endloop
  endfacet
  facet normal -0.908663 -0.180744 0.376381
    outer loop
      vertex -4.15735 5.09111e-016 12.7779
      vertex -4.90393 6.00538e-016 10.9755
      vertex -3.84089 -1.59095 12.7779
    endloop
  endfacet
  facet normal -0.908663 -0.180744 0.376381
    outer loop
      vertex -3.84089 -1.59095 12.7779
      vertex -4.90393 6.00538e-016 10.9755
      vertex -4.53064 -1.87665 10.9755
    endloop
  endfacet
  facet normal -0.770328 -0.514716 0.376381
    outer loop
      vertex -3.84089 -1.59095 12.7779
      vertex -4.53064 -1.87665 10.9755
      vertex -3.4676 -3.4676 10.9755
    endloop
  endfacet
  facet normal -0.83147 -0.55557 0
    outer loop
      vertex -4.53064 -1.87665 9.02455
      vertex -3.4676 -3.4676 9.02455
      vertex -4.53064 -1.87665 10.9755
    endloop
  endfacet
  facet normal -0.83147 -0.55557 0
    outer loop
      vertex -4.53064 -1.87665 10.9755
      vertex -3.4676 -3.4676 9.02455
      vertex -3.4676 -3.4676 10.9755
    endloop
  endfacet
  facet normal -0.55557 -0.83147 0
    outer loop
      vertex -3.4676 -3.4676 10.9755
      vertex -3.4676 -3.4676 9.02455
      vertex -1.87665 -4.53064 9.02455
    endloop
  endfacet
  facet normal -0.55557 -0.83147 0
    outer loop
      vertex -1.87665 -4.53064 10.9755
      vertex -3.4676 -3.4676 10.9755
      vertex -1.87665 -4.53064 9.02455
    endloop
  endfacet
  facet normal -0.514716 -0.770328 -0.376381
    outer loop
      vertex -1.87665 -4.53064 9.02455
      vertex -3.4676 -3.4676 9.02455
      vertex -2.93969 -2.93969 7.22215
    endloop
  endfacet
  facet normal -0.39664 -0.593613 -0.700215
    outer loop
      vertex -1.59095 -3.84089 7.22215
      vertex -2.93969 -2.93969 7.22215
      vertex -1.06304 -2.5664 5.84265
    endloop
  endfacet
  facet normal -0.39664 -0.593613 -0.700215
    outer loop
      vertex -1.06304 -2.5664 5.84265
      vertex -2.93969 -2.93969 7.22215
      vertex -1.96424 -1.96424 5.84265
    endloop
  endfacet
  facet normal -0.593613 -0.39664 -0.700215
    outer loop
      vertex -1.96424 -1.96424 5.84265
      vertex -2.93969 -2.93969 7.22215
      vertex -2.5664 -1.06304 5.84265
    endloop
  endfacet
  facet normal -0.514716 -0.770328 -0.376381
    outer loop
      vertex -1.87665 -4.53064 9.02455
      vertex -2.93969 -2.93969 7.22215
      vertex -1.59095 -3.84089 7.22215
    endloop
  endfacet
  facet normal -0.38158 -0.0759009 -0.921214
    outer loop
      vertex -2.30415 -0.95441 5.72507
      vertex -2.5664 -1.06304 5.84265
      vertex -2.32193 -0.899688 5.72793
    endloop
  endfacet
  facet normal -0.38158 -0.0759009 -0.921214
    outer loop
      vertex -2.77785 3.40177e-016 5.84265
      vertex -2.5 3.06152e-016 5.72756
      vertex -2.5664 -1.06304 5.84265
    endloop
  endfacet
  facet normal -0.38158 -0.0759009 -0.921214
    outer loop
      vertex -2.5664 -1.06304 5.84265
      vertex -2.5 3.06152e-016 5.72756
      vertex -2.44537 -0.519779 5.74776
    endloop
  endfacet
  facet normal -0.38158 -0.0759009 -0.921214
    outer loop
      vertex -2.5664 -1.06304 5.84265
      vertex -2.44537 -0.519779 5.74776
      vertex -2.32193 -0.899688 5.72793
    endloop
  endfacet
  facet normal -0.323488 -0.216147 -0.921214
    outer loop
      vertex -2.5664 -1.06304 5.84265
      vertex -2.28386 -1.01684 5.7326
      vertex -1.96424 -1.96424 5.84265
    endloop
  endfacet
  facet normal -0.323488 -0.216147 -0.921214
    outer loop
      vertex -2.5664 -1.06304 5.84265
      vertex -2.28692 -1.00744 5.73147
      vertex -2.28386 -1.01684 5.7326
    endloop
  endfacet
  facet normal -0.323488 -0.216147 -0.921214
    outer loop
      vertex -1.96424 -1.96424 5.84265
      vertex -2.02254 -1.46946 5.74704
      vertex -1.7605 -1.7605 5.7233
    endloop
  endfacet
  facet normal -0.323488 -0.216147 -0.921214
    outer loop
      vertex -2.02254 -1.46946 5.74704
      vertex -1.96424 -1.96424 5.84265
      vertex -2.28386 -1.01684 5.7326
    endloop
  endfacet
  facet normal -0.323488 -0.216147 -0.921214
    outer loop
      vertex -2.28692 -1.00744 5.73147
      vertex -2.5664 -1.06304 5.84265
      vertex -2.30415 -0.95441 5.72507
    endloop
  endfacet
  facet normal -0.38158 0.0759009 -0.921214
    outer loop
      vertex -2.77785 3.40177e-016 5.84265
      vertex -2.5 1.41637e-015 5.72756
      vertex -2.5 3.06152e-016 5.72756
    endloop
  endfacet
  facet normal -0.38158 0.0759009 -0.921214
    outer loop
      vertex -2.77785 3.40177e-016 5.84265
      vertex -2.49407 0.0564482 5.72976
      vertex -2.5 1.41637e-015 5.72756
    endloop
  endfacet
  facet normal -0.38158 0.0759009 -0.921214
    outer loop
      vertex -2.77785 3.40177e-016 5.84265
      vertex -2.5664 1.06304 5.84265
      vertex -2.49407 0.0564482 5.72976
    endloop
  endfacet
  facet normal -0.38158 0.0759009 -0.921214
    outer loop
      vertex -2.44537 0.519779 5.74776
      vertex -2.5664 1.06304 5.84265
      vertex -2.30415 0.95441 5.72507
    endloop
  endfacet
  facet normal -0.38158 0.0759009 -0.921214
    outer loop
      vertex -2.49407 0.0564482 5.72976
      vertex -2.5664 1.06304 5.84265
      vertex -2.44537 0.519779 5.74776
    endloop
  endfacet
  facet normal -0.323488 0.216147 -0.921214
    outer loop
      vertex -2.02254 1.46946 5.74704
      vertex -1.96424 1.96424 5.84265
      vertex -1.7993 1.7174 5.72682
    endloop
  endfacet
  facet normal -0.323488 0.216147 -0.921214
    outer loop
      vertex -2.5664 1.06304 5.84265
      vertex -1.96424 1.96424 5.84265
      vertex -2.28386 1.01684 5.7326
    endloop
  endfacet
  facet normal -0.323488 0.216147 -0.921214
    outer loop
      vertex -2.5664 1.06304 5.84265
      vertex -2.28386 1.01684 5.7326
      vertex -2.30415 0.95441 5.72507
    endloop
  endfacet
  facet normal -0.323488 0.216147 -0.921214
    outer loop
      vertex -2.28386 1.01684 5.7326
      vertex -1.96424 1.96424 5.84265
      vertex -2.02254 1.46946 5.74704
    endloop
  endfacet
  facet normal -0.593613 0.39664 -0.700215
    outer loop
      vertex -2.5664 1.06304 5.84265
      vertex -2.93969 2.93969 7.22215
      vertex -1.96424 1.96424 5.84265
    endloop
  endfacet
  facet normal -0.593613 0.39664 -0.700215
    outer loop
      vertex -2.5664 1.06304 5.84265
      vertex -3.84089 1.59095 7.22215
      vertex -2.93969 2.93969 7.22215
    endloop
  endfacet
  facet normal -0.39664 0.593613 -0.700215
    outer loop
      vertex -1.96424 1.96424 5.84265
      vertex -2.93969 2.93969 7.22215
      vertex -1.06304 2.5664 5.84265
    endloop
  endfacet
  facet normal -0.39664 0.593613 -0.700215
    outer loop
      vertex -1.06304 2.5664 5.84265
      vertex -2.93969 2.93969 7.22215
      vertex -1.59095 3.84089 7.22215
    endloop
  endfacet
  facet normal -0.514716 0.770328 -0.376381
    outer loop
      vertex -1.59095 3.84089 7.22215
      vertex -2.93969 2.93969 7.22215
      vertex -1.87665 4.53064 9.02455
    endloop
  endfacet
  facet normal -0.514716 0.770328 -0.376381
    outer loop
      vertex -2.93969 2.93969 7.22215
      vertex -3.4676 3.4676 9.02455
      vertex -1.87665 4.53064 9.02455
    endloop
  endfacet
  facet normal -0.55557 0.83147 0
    outer loop
      vertex -3.4676 3.4676 9.02455
      vertex -3.4676 3.4676 10.9755
      vertex -1.87665 4.53064 9.02455
    endloop
  endfacet
  facet normal -0.55557 0.83147 0
    outer loop
      vertex -1.87665 4.53064 9.02455
      vertex -3.4676 3.4676 10.9755
      vertex -1.87665 4.53064 10.9755
    endloop
  endfacet
  facet normal -0.514716 0.770328 0.376381
    outer loop
      vertex -1.87665 4.53064 10.9755
      vertex -3.4676 3.4676 10.9755
      vertex -1.59095 3.84089 12.7779
    endloop
  endfacet
  facet normal -0.514716 0.770328 0.376381
    outer loop
      vertex -1.59095 3.84089 12.7779
      vertex -3.4676 3.4676 10.9755
      vertex -2.93969 2.93969 12.7779
    endloop
  endfacet
  facet normal -0.770328 0.514716 0.376381
    outer loop
      vertex -3.4676 3.4676 10.9755
      vertex -3.84089 1.59095 12.7779
      vertex -2.93969 2.93969 12.7779
    endloop
  endfacet
  facet normal -0.593613 0.39664 0.700215
    outer loop
      vertex -2.93969 2.93969 12.7779
      vertex -3.84089 1.59095 12.7779
      vertex -2.5664 1.06304 14.1573
    endloop
  endfacet
  facet normal -0.700215 0.139281 0.700215
    outer loop
      vertex -3.84089 1.59095 12.7779
      vertex -4.15735 5.09111e-016 12.7779
      vertex -2.5664 1.06304 14.1573
    endloop
  endfacet
  facet normal -0.700215 -0.139281 0.700215
    outer loop
      vertex -2.5664 -1.06304 14.1573
      vertex -4.15735 5.09111e-016 12.7779
      vertex -3.84089 -1.59095 12.7779
    endloop
  endfacet
  facet normal -0.700215 0.139281 0.700215
    outer loop
      vertex -2.5664 1.06304 14.1573
      vertex -4.15735 5.09111e-016 12.7779
      vertex -2.77785 3.40177e-016 14.1573
    endloop
  endfacet
  facet normal -0.700215 -0.139281 0.700215
    outer loop
      vertex -2.77785 3.40177e-016 14.1573
      vertex -4.15735 5.09111e-016 12.7779
      vertex -2.5664 -1.06304 14.1573
    endloop
  endfacet
  facet normal -0.593613 -0.39664 0.700215
    outer loop
      vertex -2.5664 -1.06304 14.1573
      vertex -3.84089 -1.59095 12.7779
      vertex -2.93969 -2.93969 12.7779
    endloop
  endfacet
  facet normal -0.770328 -0.514716 0.376381
    outer loop
      vertex -2.93969 -2.93969 12.7779
      vertex -3.84089 -1.59095 12.7779
      vertex -3.4676 -3.4676 10.9755
    endloop
  endfacet
  facet normal -0.514716 -0.770328 0.376381
    outer loop
      vertex -2.93969 -2.93969 12.7779
      vertex -3.4676 -3.4676 10.9755
      vertex -1.87665 -4.53064 10.9755
    endloop
  endfacet
  facet normal -0.180744 -0.908663 0.376381
    outer loop
      vertex -7.63667e-016 -4.15735 12.7779
      vertex -1.87665 -4.53064 10.9755
      vertex -9.00807e-016 -4.90393 10.9755
    endloop
  endfacet
  facet normal -0.19509 -0.980785 0
    outer loop
      vertex -1.87665 -4.53064 10.9755
      vertex -1.87665 -4.53064 9.02455
      vertex -9.00807e-016 -4.90393 9.02455
    endloop
  endfacet
  facet normal -0.19509 -0.980785 0
    outer loop
      vertex -9.00807e-016 -4.90393 10.9755
      vertex -1.87665 -4.53064 10.9755
      vertex -9.00807e-016 -4.90393 9.02455
    endloop
  endfacet
  facet normal -0.514716 -0.770328 0.376381
    outer loop
      vertex -1.59095 -3.84089 12.7779
      vertex -2.93969 -2.93969 12.7779
      vertex -1.87665 -4.53064 10.9755
    endloop
  endfacet
  facet normal -0.180744 -0.908663 0.376381
    outer loop
      vertex -1.59095 -3.84089 12.7779
      vertex -1.87665 -4.53064 10.9755
      vertex -7.63667e-016 -4.15735 12.7779
    endloop
  endfacet
  facet normal -0.180744 -0.908663 -0.376381
    outer loop
      vertex -9.00807e-016 -4.90393 9.02455
      vertex -1.87665 -4.53064 9.02455
      vertex -7.63667e-016 -4.15735 7.22215
    endloop
  endfacet
  facet normal -0.180744 -0.908663 -0.376381
    outer loop
      vertex -7.63667e-016 -4.15735 7.22215
      vertex -1.87665 -4.53064 9.02455
      vertex -1.59095 -3.84089 7.22215
    endloop
  endfacet
  facet normal -0.139281 -0.700215 -0.700215
    outer loop
      vertex -7.63667e-016 -4.15735 7.22215
      vertex -1.59095 -3.84089 7.22215
      vertex -1.06304 -2.5664 5.84265
    endloop
  endfacet
  facet normal -0.0759009 -0.38158 -0.921214
    outer loop
      vertex -1.06304 -2.5664 5.84265
      vertex -0.899226 -2.32124 5.72761
      vertex -5.10266e-016 -2.77785 5.84265
    endloop
  endfacet
  facet normal -0.0759009 -0.38158 -0.921214
    outer loop
      vertex -5.10266e-016 -2.77785 5.84265
      vertex -0.899226 -2.32124 5.72761
      vertex -0.772542 -2.37764 5.74053
    endloop
  endfacet
  facet normal -0.0759009 -0.38158 -0.921214
    outer loop
      vertex -5.10266e-016 -2.77785 5.84265
      vertex -0.772542 -2.37764 5.74053
      vertex -0.261321 -2.4863 5.74342
    endloop
  endfacet
  facet normal -0.0759009 -0.38158 -0.921214
    outer loop
      vertex -0.261321 -2.4863 5.74342
      vertex -4.56712e-016 -2.4863 5.72189
      vertex -5.10266e-016 -2.77785 5.84265
    endloop
  endfacet
  facet normal -0.0759009 -0.38158 -0.921214
    outer loop
      vertex -0.899226 -2.32124 5.72761
      vertex -1.06304 -2.5664 5.84265
      vertex -0.951794 -2.29783 5.72224
    endloop
  endfacet
  facet normal -0.216147 -0.323488 -0.921214
    outer loop
      vertex -0.951794 -2.29783 5.72224
      vertex -1.06304 -2.5664 5.84265
      vertex -1.00491 -2.27418 5.7264
    endloop
  endfacet
  facet normal -0.216147 -0.323488 -0.921214
    outer loop
      vertex -1.96424 -1.96424 5.84265
      vertex -1.7605 -1.7605 5.7233
      vertex -1.06304 -2.5664 5.84265
    endloop
  endfacet
  facet normal -0.216147 -0.323488 -0.921214
    outer loop
      vertex -1.06304 -2.5664 5.84265
      vertex -1.7605 -1.7605 5.7233
      vertex -1.67283 -1.85786 5.73692
    endloop
  endfacet
  facet normal -0.216147 -0.323488 -0.921214
    outer loop
      vertex -1.06304 -2.5664 5.84265
      vertex -1.67283 -1.85786 5.73692
      vertex -1.25 -2.16506 5.74559
    endloop
  endfacet
  facet normal -0.216147 -0.323488 -0.921214
    outer loop
      vertex -1.25 -2.16506 5.74559
      vertex -1.00491 -2.27418 5.7264
      vertex -1.06304 -2.5664 5.84265
    endloop
  endfacet
  facet normal -0.139281 -0.700215 -0.700215
    outer loop
      vertex -7.63667e-016 -4.15735 7.22215
      vertex -1.06304 -2.5664 5.84265
      vertex -5.10266e-016 -2.77785 5.84265
    endloop
  endfacet
  facet normal -0.951057 -0.309017 0
    outer loop
      vertex -2.44537 -0.519779 0
      vertex -2.28386 -1.01684 0
      vertex -2.44537 -0.519779 5.74776
    endloop
  endfacet
  facet normal -0.951057 -0.309017 0
    outer loop
      vertex -2.28692 -1.00744 5.73147
      vertex -2.28386 -1.01684 0
      vertex -2.28386 -1.01684 5.7326
    endloop
  endfacet
  facet normal -0.951057 -0.309017 0
    outer loop
      vertex -2.30415 -0.95441 5.72507
      vertex -2.28386 -1.01684 0
      vertex -2.28692 -1.00744 5.73147
    endloop
  endfacet
  facet normal -0.951057 -0.309017 0
    outer loop
      vertex -2.32193 -0.899688 5.72793
      vertex -2.28386 -1.01684 0
      vertex -2.30415 -0.95441 5.72507
    endloop
  endfacet
  facet normal -0.951057 -0.309017 0
    outer loop
      vertex -2.44537 -0.519779 5.74776
      vertex -2.28386 -1.01684 0
      vertex -2.32193 -0.899688 5.72793
    endloop
  endfacet
  facet normal -0.994522 -0.104528 0
    outer loop
      vertex -2.5 1.41637e-015 0
      vertex -2.44537 -0.519779 0
      vertex -2.5 1.41637e-015 5.72756
    endloop
  endfacet
  facet normal -0.994522 -0.104528 0
    outer loop
      vertex -2.5 3.06152e-016 5.72756
      vertex -2.44537 -0.519779 0
      vertex -2.44537 -0.519779 5.74776
    endloop
  endfacet
  facet normal -0.994522 -0.104528 0
    outer loop
      vertex -2.5 1.41637e-015 5.72756
      vertex -2.44537 -0.519779 0
      vertex -2.5 3.06152e-016 5.72756
    endloop
  endfacet
  facet normal -0.743145 -0.669131 0
    outer loop
      vertex -2.02254 -1.46946 0
      vertex -1.67283 -1.85786 0
      vertex -2.02254 -1.46946 5.74704
    endloop
  endfacet
  facet normal -0.743145 -0.669131 0
    outer loop
      vertex -1.7605 -1.7605 5.7233
      vertex -1.67283 -1.85786 0
      vertex -1.67283 -1.85786 5.73692
    endloop
  endfacet
  facet normal -0.743145 -0.669131 0
    outer loop
      vertex -2.02254 -1.46946 5.74704
      vertex -1.67283 -1.85786 0
      vertex -1.7605 -1.7605 5.7233
    endloop
  endfacet
  facet normal -0.866025 -0.5 0
    outer loop
      vertex -2.28386 -1.01684 0
      vertex -2.02254 -1.46946 0
      vertex -2.28386 -1.01684 5.7326
    endloop
  endfacet
  facet normal -0.866025 -0.5 0
    outer loop
      vertex -2.28386 -1.01684 5.7326
      vertex -2.02254 -1.46946 0
      vertex -2.02254 -1.46946 5.74704
    endloop
  endfacet
  facet normal -0.994522 0.104528 0
    outer loop
      vertex -2.5 1.41637e-015 0
      vertex -2.5 1.41637e-015 5.72756
      vertex -2.44537 0.519779 0
    endloop
  endfacet
  facet normal -0.994522 0.104528 0
    outer loop
      vertex -2.44537 0.519779 0
      vertex -2.5 1.41637e-015 5.72756
      vertex -2.49407 0.0564482 5.72976
    endloop
  endfacet
  facet normal -0.994522 0.104528 0
    outer loop
      vertex -2.44537 0.519779 0
      vertex -2.49407 0.0564482 5.72976
      vertex -2.44537 0.519779 5.74776
    endloop
  endfacet
  facet normal -0.951057 0.309017 0
    outer loop
      vertex -2.44537 0.519779 0
      vertex -2.44537 0.519779 5.74776
      vertex -2.28386 1.01684 0
    endloop
  endfacet
  facet normal -0.951057 0.309017 0
    outer loop
      vertex -2.28386 1.01684 0
      vertex -2.44537 0.519779 5.74776
      vertex -2.30415 0.95441 5.72507
    endloop
  endfacet
  facet normal -0.951057 0.309017 0
    outer loop
      vertex -2.28386 1.01684 0
      vertex -2.30415 0.95441 5.72507
      vertex -2.28386 1.01684 5.7326
    endloop
  endfacet
  facet normal -0.866025 0.5 0
    outer loop
      vertex -2.28386 1.01684 0
      vertex -2.28386 1.01684 5.7326
      vertex -2.02254 1.46946 0
    endloop
  endfacet
  facet normal -0.866025 0.5 0
    outer loop
      vertex -2.02254 1.46946 0
      vertex -2.28386 1.01684 5.7326
      vertex -2.02254 1.46946 5.74704
    endloop
  endfacet
  facet normal -0.743145 0.669131 0
    outer loop
      vertex -2.02254 1.46946 0
      vertex -2.02254 1.46946 5.74704
      vertex -1.67283 1.85786 0
    endloop
  endfacet
  facet normal -0.743145 0.669131 0
    outer loop
      vertex -1.67283 1.85786 0
      vertex -2.02254 1.46946 5.74704
      vertex -1.7993 1.7174 5.72682
    endloop
  endfacet
  facet normal -0.743145 0.669131 0
    outer loop
      vertex -1.67283 1.85786 0
      vertex -1.7993 1.7174 5.72682
      vertex -1.7605 1.7605 5.7233
    endloop
  endfacet
  facet normal -0.743145 0.669131 0
    outer loop
      vertex -1.7605 1.7605 5.7233
      vertex -1.72249 1.80271 5.72921
      vertex -1.67283 1.85786 0
    endloop
  endfacet
  facet normal -0.743145 0.669131 0
    outer loop
      vertex -1.72249 1.80271 5.72921
      vertex -1.67283 1.85786 5.73692
      vertex -1.67283 1.85786 0
    endloop
  endfacet
  facet normal -0.323488 0.216147 -0.921214
    outer loop
      vertex -1.7993 1.7174 5.72682
      vertex -1.96424 1.96424 5.84265
      vertex -1.7605 1.7605 5.7233
    endloop
  endfacet
  facet normal -0.216147 0.323488 -0.921214
    outer loop
      vertex -1.7605 1.7605 5.7233
      vertex -1.96424 1.96424 5.84265
      vertex -1.72249 1.80271 5.72921
    endloop
  endfacet
  facet normal -0.216147 0.323488 -0.921214
    outer loop
      vertex -1.96424 1.96424 5.84265
      vertex -1.06304 2.5664 5.84265
      vertex -1.72249 1.80271 5.72921
    endloop
  endfacet
  facet normal -0.216147 0.323488 -0.921214
    outer loop
      vertex -1.25 2.16506 5.74559
      vertex -1.06304 2.5664 5.84265
      vertex -0.951794 2.29783 5.72224
    endloop
  endfacet
  facet normal -0.216147 0.323488 -0.921214
    outer loop
      vertex -1.67283 1.85786 5.73692
      vertex -1.06304 2.5664 5.84265
      vertex -1.25 2.16506 5.74559
    endloop
  endfacet
  facet normal -0.216147 0.323488 -0.921214
    outer loop
      vertex -1.72249 1.80271 5.72921
      vertex -1.06304 2.5664 5.84265
      vertex -1.67283 1.85786 5.73692
    endloop
  endfacet
  facet normal -0.0759009 0.38158 -0.921214
    outer loop
      vertex -1.06304 2.5664 5.84265
      vertex 1.70089e-016 2.77785 5.84265
      vertex -0.951794 2.29783 5.72224
    endloop
  endfacet
  facet normal -0.0759009 0.38158 -0.921214
    outer loop
      vertex -0.261321 2.4863 5.74342
      vertex 1.70089e-016 2.77785 5.84265
      vertex -0.0579922 2.4863 5.72667
    endloop
  endfacet
  facet normal -0.0759009 0.38158 -0.921214
    outer loop
      vertex -0.772542 2.37764 5.74053
      vertex 1.70089e-016 2.77785 5.84265
      vertex -0.261321 2.4863 5.74342
    endloop
  endfacet
  facet normal -0.0759009 0.38158 -0.921214
    outer loop
      vertex -0.951794 2.29783 5.72224
      vertex 1.70089e-016 2.77785 5.84265
      vertex -0.772542 2.37764 5.74053
    endloop
  endfacet
  facet normal -0.139281 0.700215 -0.700215
    outer loop
      vertex 1.70089e-016 2.77785 5.84265
      vertex -1.06304 2.5664 5.84265
      vertex 2.54556e-016 4.15735 7.22215
    endloop
  endfacet
  facet normal -0.139281 0.700215 -0.700215
    outer loop
      vertex -1.06304 2.5664 5.84265
      vertex -1.59095 3.84089 7.22215
      vertex 2.54556e-016 4.15735 7.22215
    endloop
  endfacet
  facet normal -0.180744 0.908663 -0.376381
    outer loop
      vertex -1.59095 3.84089 7.22215
      vertex -1.87665 4.53064 9.02455
      vertex 2.54556e-016 4.15735 7.22215
    endloop
  endfacet
  facet normal -0.180744 0.908663 -0.376381
    outer loop
      vertex 2.54556e-016 4.15735 7.22215
      vertex -1.87665 4.53064 9.02455
      vertex 3.00269e-016 4.90393 9.02455
    endloop
  endfacet
  facet normal -0.19509 0.980785 0
    outer loop
      vertex -1.87665 4.53064 9.02455
      vertex -1.87665 4.53064 10.9755
      vertex 3.00269e-016 4.90393 9.02455
    endloop
  endfacet
  facet normal -0.19509 0.980785 0
    outer loop
      vertex 3.00269e-016 4.90393 9.02455
      vertex -1.87665 4.53064 10.9755
      vertex 3.00269e-016 4.90393 10.9755
    endloop
  endfacet
  facet normal -0.180744 0.908663 0.376381
    outer loop
      vertex 2.54556e-016 4.15735 12.7779
      vertex -1.87665 4.53064 10.9755
      vertex -1.59095 3.84089 12.7779
    endloop
  endfacet
  facet normal -0.180744 0.908663 0.376381
    outer loop
      vertex 3.00269e-016 4.90393 10.9755
      vertex -1.87665 4.53064 10.9755
      vertex 2.54556e-016 4.15735 12.7779
    endloop
  endfacet
  facet normal -0.139281 0.700215 0.700215
    outer loop
      vertex 2.54556e-016 4.15735 12.7779
      vertex -1.59095 3.84089 12.7779
      vertex -1.06304 2.5664 14.1573
    endloop
  endfacet
  facet normal -0.39664 0.593613 0.700215
    outer loop
      vertex -1.59095 3.84089 12.7779
      vertex -1.96424 1.96424 14.1573
      vertex -1.06304 2.5664 14.1573
    endloop
  endfacet
  facet normal -0.39664 0.593613 0.700215
    outer loop
      vertex -1.59095 3.84089 12.7779
      vertex -2.93969 2.93969 12.7779
      vertex -1.96424 1.96424 14.1573
    endloop
  endfacet
  facet normal -0.593613 0.39664 0.700215
    outer loop
      vertex -1.96424 1.96424 14.1573
      vertex -2.93969 2.93969 12.7779
      vertex -2.5664 1.06304 14.1573
    endloop
  endfacet
  facet normal -0.323488 0.216147 0.921214
    outer loop
      vertex -0.689748 0.689748 14.9039
      vertex -2.5664 1.06304 14.1573
      vertex -0.9012 0.373289 14.9039
    endloop
  endfacet
  facet normal -0.38158 0.0759009 0.921214
    outer loop
      vertex -0.9012 0.373289 14.9039
      vertex -2.5664 1.06304 14.1573
      vertex -0.975452 1.19454e-016 14.9039
    endloop
  endfacet
  facet normal -0.38158 0.0759009 0.921214
    outer loop
      vertex -2.5664 1.06304 14.1573
      vertex -2.77785 3.40177e-016 14.1573
      vertex -0.975452 1.19454e-016 14.9039
    endloop
  endfacet
  facet normal -0.323488 0.216147 0.921214
    outer loop
      vertex -1.96424 1.96424 14.1573
      vertex -2.5664 1.06304 14.1573
      vertex -0.689748 0.689748 14.9039
    endloop
  endfacet
  facet normal -0.593613 -0.39664 0.700215
    outer loop
      vertex -2.5664 -1.06304 14.1573
      vertex -2.93969 -2.93969 12.7779
      vertex -1.96424 -1.96424 14.1573
    endloop
  endfacet
  facet normal -0.38158 -0.0759009 0.921214
    outer loop
      vertex -0.975452 1.19454e-016 14.9039
      vertex -2.77785 3.40177e-016 14.1573
      vertex -2.5664 -1.06304 14.1573
    endloop
  endfacet
  facet normal -0.38158 -0.0759009 0.921214
    outer loop
      vertex -0.975452 1.19454e-016 14.9039
      vertex -2.5664 -1.06304 14.1573
      vertex -0.9012 -0.373289 14.9039
    endloop
  endfacet
  facet normal -0.323488 -0.216147 0.921214
    outer loop
      vertex -0.9012 -0.373289 14.9039
      vertex -2.5664 -1.06304 14.1573
      vertex -0.689748 -0.689748 14.9039
    endloop
  endfacet
  facet normal -0.323488 -0.216147 0.921214
    outer loop
      vertex -0.689748 -0.689748 14.9039
      vertex -2.5664 -1.06304 14.1573
      vertex -1.96424 -1.96424 14.1573
    endloop
  endfacet
  facet normal -0.39664 -0.593613 0.700215
    outer loop
      vertex -1.96424 -1.96424 14.1573
      vertex -2.93969 -2.93969 12.7779
      vertex -1.06304 -2.5664 14.1573
    endloop
  endfacet
  facet normal -0.39664 -0.593613 0.700215
    outer loop
      vertex -1.06304 -2.5664 14.1573
      vertex -2.93969 -2.93969 12.7779
      vertex -1.59095 -3.84089 12.7779
    endloop
  endfacet
  facet normal 0.139281 -0.700215 0.700215
    outer loop
      vertex -5.10266e-016 -2.77785 14.1573
      vertex -7.63667e-016 -4.15735 12.7779
      vertex 1.59095 -3.84089 12.7779
    endloop
  endfacet
  facet normal 0.180744 -0.908663 0.376381
    outer loop
      vertex 1.59095 -3.84089 12.7779
      vertex -7.63667e-016 -4.15735 12.7779
      vertex 1.87665 -4.53064 10.9755
    endloop
  endfacet
  facet normal 0.180744 -0.908663 0.376381
    outer loop
      vertex -7.63667e-016 -4.15735 12.7779
      vertex -9.00807e-016 -4.90393 10.9755
      vertex 1.87665 -4.53064 10.9755
    endloop
  endfacet
  facet normal -0.139281 -0.700215 0.700215
    outer loop
      vertex -1.06304 -2.5664 14.1573
      vertex -1.59095 -3.84089 12.7779
      vertex -7.63667e-016 -4.15735 12.7779
    endloop
  endfacet
  facet normal -0.139281 -0.700215 0.700215
    outer loop
      vertex -5.10266e-016 -2.77785 14.1573
      vertex -1.06304 -2.5664 14.1573
      vertex -7.63667e-016 -4.15735 12.7779
    endloop
  endfacet
  facet normal 0.19509 -0.980785 0
    outer loop
      vertex -9.00807e-016 -4.90393 10.9755
      vertex -9.00807e-016 -4.90393 9.02455
      vertex 1.87665 -4.53064 9.02455
    endloop
  endfacet
  facet normal 0.19509 -0.980785 0
    outer loop
      vertex 1.87665 -4.53064 10.9755
      vertex -9.00807e-016 -4.90393 10.9755
      vertex 1.87665 -4.53064 9.02455
    endloop
  endfacet
  facet normal 0.180744 -0.908663 -0.376381
    outer loop
      vertex 1.59095 -3.84089 7.22215
      vertex -9.00807e-016 -4.90393 9.02455
      vertex -7.63667e-016 -4.15735 7.22215
    endloop
  endfacet
  facet normal 0.180744 -0.908663 -0.376381
    outer loop
      vertex 1.87665 -4.53064 9.02455
      vertex -9.00807e-016 -4.90393 9.02455
      vertex 1.59095 -3.84089 7.22215
    endloop
  endfacet
  facet normal 0.139281 -0.700215 -0.700215
    outer loop
      vertex 1.59095 -3.84089 7.22215
      vertex -7.63667e-016 -4.15735 7.22215
      vertex -5.10266e-016 -2.77785 5.84265
    endloop
  endfacet
  facet normal 0.139281 -0.700215 -0.700215
    outer loop
      vertex 1.59095 -3.84089 7.22215
      vertex -5.10266e-016 -2.77785 5.84265
      vertex 1.06304 -2.5664 5.84265
    endloop
  endfacet
  facet normal 0.0759009 -0.38158 -0.921214
    outer loop
      vertex -5.10266e-016 -2.77785 5.84265
      vertex 0.0579922 -2.4863 5.72667
      vertex 1.06304 -2.5664 5.84265
    endloop
  endfacet
  facet normal 0.0759009 -0.38158 -0.921214
    outer loop
      vertex 1.06304 -2.5664 5.84265
      vertex 0.0579922 -2.4863 5.72667
      vertex 0.261321 -2.4863 5.74342
    endloop
  endfacet
  facet normal 0.0759009 -0.38158 -0.921214
    outer loop
      vertex 1.06304 -2.5664 5.84265
      vertex 0.261321 -2.4863 5.74342
      vertex 0.772542 -2.37764 5.74053
    endloop
  endfacet
  facet normal 0.0759009 -0.38158 -0.921214
    outer loop
      vertex 0.772542 -2.37764 5.74053
      vertex 0.951794 -2.29783 5.72224
      vertex 1.06304 -2.5664 5.84265
    endloop
  endfacet
  facet normal 0.0759009 -0.38158 -0.921214
    outer loop
      vertex 0.0579922 -2.4863 5.72667
      vertex -5.10266e-016 -2.77785 5.84265
      vertex -4.56712e-016 -2.4863 5.72189
    endloop
  endfacet
  facet normal 0 -1 0
    outer loop
      vertex -0.261321 -2.4863 5.74342
      vertex -0.261321 -2.4863 0
      vertex 0.261321 -2.4863 0
    endloop
  endfacet
  facet normal 0 -1 0
    outer loop
      vertex -4.56712e-016 -2.4863 5.72189
      vertex -0.261321 -2.4863 5.74342
      vertex 0.261321 -2.4863 0
    endloop
  endfacet
  facet normal 0 -1 0
    outer loop
      vertex 0.261321 -2.4863 5.74342
      vertex 0.0579922 -2.4863 5.72667
      vertex 0.261321 -2.4863 0
    endloop
  endfacet
  facet normal 0 -1 0
    outer loop
      vertex 0.0579922 -2.4863 5.72667
      vertex -4.56712e-016 -2.4863 5.72189
      vertex 0.261321 -2.4863 0
    endloop
  endfacet
  facet normal -0.207912 -0.978148 0
    outer loop
      vertex -0.772542 -2.37764 5.74053
      vertex -0.772542 -2.37764 0
      vertex -0.261321 -2.4863 0
    endloop
  endfacet
  facet normal -0.207912 -0.978148 0
    outer loop
      vertex -0.261321 -2.4863 5.74342
      vertex -0.772542 -2.37764 5.74053
      vertex -0.261321 -2.4863 0
    endloop
  endfacet
  facet normal -0.406737 -0.913545 0
    outer loop
      vertex -1.25 -2.16506 5.74559
      vertex -1.25 -2.16506 0
      vertex -0.772542 -2.37764 0
    endloop
  endfacet
  facet normal -0.406737 -0.913545 0
    outer loop
      vertex -1.00491 -2.27418 5.7264
      vertex -1.25 -2.16506 5.74559
      vertex -0.772542 -2.37764 0
    endloop
  endfacet
  facet normal -0.406737 -0.913545 0
    outer loop
      vertex -0.772542 -2.37764 5.74053
      vertex -0.899226 -2.32124 5.72761
      vertex -0.772542 -2.37764 0
    endloop
  endfacet
  facet normal -0.406737 -0.913545 0
    outer loop
      vertex -0.899226 -2.32124 5.72761
      vertex -0.951794 -2.29783 5.72224
      vertex -0.772542 -2.37764 0
    endloop
  endfacet
  facet normal -0.406737 -0.913545 0
    outer loop
      vertex -0.951794 -2.29783 5.72224
      vertex -1.00491 -2.27418 5.7264
      vertex -0.772542 -2.37764 0
    endloop
  endfacet
  facet normal -0.587785 -0.809017 0
    outer loop
      vertex -1.67283 -1.85786 5.73692
      vertex -1.67283 -1.85786 0
      vertex -1.25 -2.16506 0
    endloop
  endfacet
  facet normal -0.587785 -0.809017 0
    outer loop
      vertex -1.25 -2.16506 5.74559
      vertex -1.67283 -1.85786 5.73692
      vertex -1.25 -2.16506 0
    endloop
  endfacet
  facet normal 0 0 -1
    outer loop
      vertex -2.5 1.41637e-015 0
      vertex -2.44537 0.519779 0
      vertex -2.44537 -0.519779 0
    endloop
  endfacet
  facet normal 0 0 -1
    outer loop
      vertex -2.44537 -0.519779 0
      vertex -2.44537 0.519779 0
      vertex -2.28386 1.01684 0
    endloop
  endfacet
  facet normal 0 0 -1
    outer loop
      vertex -2.44537 -0.519779 0
      vertex -2.28386 1.01684 0
      vertex -2.02254 1.46946 0
    endloop
  endfacet
  facet normal 0 0 -1
    outer loop
      vertex -2.44537 -0.519779 0
      vertex -2.02254 1.46946 0
      vertex -1.67283 1.85786 0
    endloop
  endfacet
  facet normal 0 0 -1
    outer loop
      vertex -2.44537 -0.519779 0
      vertex -1.67283 1.85786 0
      vertex -1.25 2.16506 0
    endloop
  endfacet
  facet normal 0 0 -1
    outer loop
      vertex -2.44537 -0.519779 0
      vertex -1.25 2.16506 0
      vertex -0.772542 2.37764 0
    endloop
  endfacet
  facet normal 0 0 -1
    outer loop
      vertex -2.44537 -0.519779 0
      vertex -0.772542 2.37764 0
      vertex -0.261321 2.4863 0
    endloop
  endfacet
  facet normal 0 0 -1
    outer loop
      vertex -2.44537 -0.519779 0
      vertex -0.261321 2.4863 0
      vertex 0.261321 2.4863 0
    endloop
  endfacet
  facet normal 0 0 -1
    outer loop
      vertex -2.44537 -0.519779 0
      vertex 0.261321 2.4863 0
      vertex 0.772542 2.37764 0
    endloop
  endfacet
  facet normal 0 0 -1
    outer loop
      vertex -0.130661 1.24315 0
      vertex 0.772542 2.37764 0
      vertex 1.25 2.16506 0
    endloop
  endfacet
  facet normal 0 0 -1
    outer loop
      vertex 0.386271 1.18882 0
      vertex 1.25 2.16506 0
      vertex 1.67283 1.85786 0
    endloop
  endfacet
  facet normal 0 0 -1
    outer loop
      vertex 0.625 1.08253 0
      vertex 1.67283 1.85786 0
      vertex 2.02254 1.46946 0
    endloop
  endfacet
  facet normal 0 0 -1
    outer loop
      vertex 1.01127 0.734732 0
      vertex 2.02254 1.46946 0
      vertex 2.28386 1.01684 0
    endloop
  endfacet
  facet normal 0 0 -1
    outer loop
      vertex 1.14193 0.508421 0
      vertex 2.28386 1.01684 0
      vertex 2.44537 0.519779 0
    endloop
  endfacet
  facet normal 0 0 -1
    outer loop
      vertex 1.25 0 0
      vertex 2.44537 0.519779 0
      vertex 2.5 0 0
    endloop
  endfacet
  facet normal 0 0 -1
    outer loop
      vertex 1.14193 -0.508421 0
      vertex 2.5 0 0
      vertex 2.44537 -0.519779 0
    endloop
  endfacet
  facet normal 0 0 -1
    outer loop
      vertex 1.01127 -0.734732 0
      vertex 2.44537 -0.519779 0
      vertex 2.28386 -1.01684 0
    endloop
  endfacet
  facet normal 0 0 -1
    outer loop
      vertex 0.625 -1.08253 0
      vertex 2.28386 -1.01684 0
      vertex 2.02254 -1.46946 0
    endloop
  endfacet
  facet normal 0 0 -1
    outer loop
      vertex 0.130661 -1.24315 0
      vertex 2.02254 -1.46946 0
      vertex 1.67283 -1.85786 0
    endloop
  endfacet
  facet normal 0 0 -1
    outer loop
      vertex -0.386271 -1.18882 0
      vertex 1.67283 -1.85786 0
      vertex 1.25 -2.16506 0
    endloop
  endfacet
  facet normal 0 0 -1
    outer loop
      vertex -2.44537 -0.519779 0
      vertex 1.25 -2.16506 0
      vertex 0.772542 -2.37764 0
    endloop
  endfacet
  facet normal 0 0 -1
    outer loop
      vertex -2.44537 -0.519779 0
      vertex 0.772542 -2.37764 0
      vertex 0.261321 -2.4863 0
    endloop
  endfacet
  facet normal 0 0 -1
    outer loop
      vertex -2.44537 -0.519779 0
      vertex 0.261321 -2.4863 0
      vertex -0.261321 -2.4863 0
    endloop
  endfacet
  facet normal 0 0 -1
    outer loop
      vertex -2.44537 -0.519779 0
      vertex -0.261321 -2.4863 0
      vertex -0.772542 -2.37764 0
    endloop
  endfacet
  facet normal 0 0 -1
    outer loop
      vertex -2.44537 -0.519779 0
      vertex -0.772542 -2.37764 0
      vertex -1.25 -2.16506 0
    endloop
  endfacet
  facet normal 0 0 -1
    outer loop
      vertex -2.44537 -0.519779 0
      vertex -1.25 -2.16506 0
      vertex -1.67283 -1.85786 0
    endloop
  endfacet
  facet normal 0 0 -1
    outer loop
      vertex -2.44537 -0.519779 0
      vertex -1.67283 -1.85786 0
      vertex -2.02254 -1.46946 0
    endloop
  endfacet
  facet normal 0 0 -1
    outer loop
      vertex -2.44537 -0.519779 0
      vertex -2.02254 -1.46946 0
      vertex -2.28386 -1.01684 0
    endloop
  endfacet
  facet normal 0 0 -1
    outer loop
      vertex -1.22268 -0.25989 0
      vertex -2.44537 -0.519779 0
      vertex -1.25 7.08187e-016 0
    endloop
  endfacet
  facet normal 0 0 -1
    outer loop
      vertex -1.14193 -0.508421 0
      vertex -2.44537 -0.519779 0
      vertex -1.22268 -0.25989 0
    endloop
  endfacet
  facet normal 0 0 -1
    outer loop
      vertex -1.01127 -0.734732 0
      vertex -2.44537 -0.519779 0
      vertex -1.14193 -0.508421 0
    endloop
  endfacet
  facet normal 0 0 -1
    outer loop
      vertex -0.836413 -0.928931 0
      vertex -2.44537 -0.519779 0
      vertex -1.01127 -0.734732 0
    endloop
  endfacet
  facet normal 0 0 -1
    outer loop
      vertex -0.386271 -1.18882 0
      vertex -2.44537 -0.519779 0
      vertex -0.625 -1.08253 0
    endloop
  endfacet
  facet normal 0 0 -1
    outer loop
      vertex -2.44537 -0.519779 0
      vertex -0.836413 -0.928931 0
      vertex -0.625 -1.08253 0
    endloop
  endfacet
  facet normal 0 0 -1
    outer loop
      vertex -0.130661 -1.24315 0
      vertex 1.67283 -1.85786 0
      vertex -0.386271 -1.18882 0
    endloop
  endfacet
  facet normal 0 0 -1
    outer loop
      vertex -2.44537 -0.519779 0
      vertex -0.386271 -1.18882 0
      vertex 1.25 -2.16506 0
    endloop
  endfacet
  facet normal 0 0 -1
    outer loop
      vertex 0.130661 -1.24315 0
      vertex 1.67283 -1.85786 0
      vertex -0.130661 -1.24315 0
    endloop
  endfacet
  facet normal 0 0 -1
    outer loop
      vertex 0.386271 -1.18882 0
      vertex 2.02254 -1.46946 0
      vertex 0.130661 -1.24315 0
    endloop
  endfacet
  facet normal 0 0 -1
    outer loop
      vertex 0.625 -1.08253 0
      vertex 2.02254 -1.46946 0
      vertex 0.386271 -1.18882 0
    endloop
  endfacet
  facet normal 0 0 -1
    outer loop
      vertex 0.836413 -0.928931 0
      vertex 2.28386 -1.01684 0
      vertex 0.625 -1.08253 0
    endloop
  endfacet
  facet normal 0 0 -1
    outer loop
      vertex 1.01127 -0.734732 0
      vertex 2.28386 -1.01684 0
      vertex 0.836413 -0.928931 0
    endloop
  endfacet
  facet normal 0 0 -1
    outer loop
      vertex 1.22268 -0.25989 0
      vertex 2.5 0 0
      vertex 1.14193 -0.508421 0
    endloop
  endfacet
  facet normal 0 0 -1
    outer loop
      vertex 1.25 0 0
      vertex 2.5 0 0
      vertex 1.22268 -0.25989 0
    endloop
  endfacet
  facet normal 0 0 -1
    outer loop
      vertex 1.22268 0.25989 0
      vertex 2.44537 0.519779 0
      vertex 1.25 0 0
    endloop
  endfacet
  facet normal 0 0 -1
    outer loop
      vertex 1.14193 0.508421 0
      vertex 2.44537 0.519779 0
      vertex 1.22268 0.25989 0
    endloop
  endfacet
  facet normal 0 0 -1
    outer loop
      vertex 1.14193 -0.508421 0
      vertex 2.44537 -0.519779 0
      vertex 1.01127 -0.734732 0
    endloop
  endfacet
  facet normal 0 0 -1
    outer loop
      vertex 0.836413 0.928931 0
      vertex 2.02254 1.46946 0
      vertex 1.01127 0.734732 0
    endloop
  endfacet
  facet normal 0 0 -1
    outer loop
      vertex 0.625 1.08253 0
      vertex 2.02254 1.46946 0
      vertex 0.836413 0.928931 0
    endloop
  endfacet
  facet normal 0 0 -1
    outer loop
      vertex 1.01127 0.734732 0
      vertex 2.28386 1.01684 0
      vertex 1.14193 0.508421 0
    endloop
  endfacet
  facet normal 0 0 -1
    outer loop
      vertex 0.130661 1.24315 0
      vertex 1.25 2.16506 0
      vertex 0.386271 1.18882 0
    endloop
  endfacet
  facet normal 0 0 -1
    outer loop
      vertex -0.386271 1.18882 0
      vertex 0.772542 2.37764 0
      vertex -0.130661 1.24315 0
    endloop
  endfacet
  facet normal 0 0 -1
    outer loop
      vertex -1.01127 0.734732 0
      vertex -2.44537 -0.519779 0
      vertex -0.836413 0.928931 0
    endloop
  endfacet
  facet normal 0 0 -1
    outer loop
      vertex -0.625 1.08253 0
      vertex 0.772542 2.37764 0
      vertex -0.386271 1.18882 0
    endloop
  endfacet
  facet normal 0 0 -1
    outer loop
      vertex -0.836413 0.928931 0
      vertex 0.772542 2.37764 0
      vertex -0.625 1.08253 0
    endloop
  endfacet
  facet normal 0 0 -1
    outer loop
      vertex -2.44537 -0.519779 0
      vertex 0.772542 2.37764 0
      vertex -0.836413 0.928931 0
    endloop
  endfacet
  facet normal 0 0 -1
    outer loop
      vertex -1.14193 0.508421 0
      vertex -2.44537 -0.519779 0
      vertex -1.01127 0.734732 0
    endloop
  endfacet
  facet normal 0 0 -1
    outer loop
      vertex -1.22268 0.25989 0
      vertex -2.44537 -0.519779 0
      vertex -1.14193 0.508421 0
    endloop
  endfacet
  facet normal 0 0 -1
    outer loop
      vertex -1.25 7.08187e-016 0
      vertex -2.44537 -0.519779 0
      vertex -1.22268 0.25989 0
    endloop
  endfacet
  facet normal 0 0 -1
    outer loop
      vertex -0.130661 1.24315 0
      vertex 1.25 2.16506 0
      vertex 0.130661 1.24315 0
    endloop
  endfacet
  facet normal 0 0 -1
    outer loop
      vertex 0.386271 1.18882 0
      vertex 1.67283 1.85786 0
      vertex 0.625 1.08253 0
    endloop
  endfacet
  facet normal -0.587785 0.809017 0
    outer loop
      vertex -1.67283 1.85786 0
      vertex -1.67283 1.85786 5.73692
      vertex -1.25 2.16506 0
    endloop
  endfacet
  facet normal -0.587785 0.809017 0
    outer loop
      vertex -1.25 2.16506 0
      vertex -1.67283 1.85786 5.73692
      vertex -1.25 2.16506 5.74559
    endloop
  endfacet
  facet normal -0.406737 0.913545 0
    outer loop
      vertex -1.25 2.16506 0
      vertex -1.25 2.16506 5.74559
      vertex -0.772542 2.37764 0
    endloop
  endfacet
  facet normal -0.406737 0.913545 0
    outer loop
      vertex -0.772542 2.37764 0
      vertex -1.25 2.16506 5.74559
      vertex -0.951794 2.29783 5.72224
    endloop
  endfacet
  facet normal -0.406737 0.913545 0
    outer loop
      vertex -0.772542 2.37764 0
      vertex -0.951794 2.29783 5.72224
      vertex -0.772542 2.37764 5.74053
    endloop
  endfacet
  facet normal -0.207912 0.978148 0
    outer loop
      vertex -0.772542 2.37764 0
      vertex -0.772542 2.37764 5.74053
      vertex -0.261321 2.4863 0
    endloop
  endfacet
  facet normal -0.207912 0.978148 0
    outer loop
      vertex -0.261321 2.4863 0
      vertex -0.772542 2.37764 5.74053
      vertex -0.261321 2.4863 5.74342
    endloop
  endfacet
  facet normal 0 1 0
    outer loop
      vertex -0.261321 2.4863 0
      vertex -0.261321 2.4863 5.74342
      vertex 0.261321 2.4863 0
    endloop
  endfacet
  facet normal 0 1 0
    outer loop
      vertex 0.261321 2.4863 0
      vertex -0.261321 2.4863 5.74342
      vertex -0.0579922 2.4863 5.72667
    endloop
  endfacet
  facet normal 0 1 0
    outer loop
      vertex 0.261321 2.4863 0
      vertex -0.0579922 2.4863 5.72667
      vertex 1.52237e-016 2.4863 5.72189
    endloop
  endfacet
  facet normal 0 1 0
    outer loop
      vertex 1.52237e-016 2.4863 5.72189
      vertex 0.0579922 2.4863 5.72667
      vertex 0.261321 2.4863 0
    endloop
  endfacet
  facet normal 0 1 0
    outer loop
      vertex 0.0579922 2.4863 5.72667
      vertex 0.261321 2.4863 5.74342
      vertex 0.261321 2.4863 0
    endloop
  endfacet
  facet normal -0.0759009 0.38158 -0.921214
    outer loop
      vertex 1.52237e-016 2.4863 5.72189
      vertex -0.0579922 2.4863 5.72667
      vertex 1.70089e-016 2.77785 5.84265
    endloop
  endfacet
  facet normal 0.0759009 0.38158 -0.921214
    outer loop
      vertex 0.0579922 2.4863 5.72667
      vertex 1.52237e-016 2.4863 5.72189
      vertex 1.70089e-016 2.77785 5.84265
    endloop
  endfacet
  facet normal 0.0759009 0.38158 -0.921214
    outer loop
      vertex 1.70089e-016 2.77785 5.84265
      vertex 1.06304 2.5664 5.84265
      vertex 0.0579922 2.4863 5.72667
    endloop
  endfacet
  facet normal 0.0759009 0.38158 -0.921214
    outer loop
      vertex 0.772542 2.37764 5.74053
      vertex 1.06304 2.5664 5.84265
      vertex 0.951794 2.29783 5.72224
    endloop
  endfacet
  facet normal 0.0759009 0.38158 -0.921214
    outer loop
      vertex 0.261321 2.4863 5.74342
      vertex 1.06304 2.5664 5.84265
      vertex 0.772542 2.37764 5.74053
    endloop
  endfacet
  facet normal 0.0759009 0.38158 -0.921214
    outer loop
      vertex 0.0579922 2.4863 5.72667
      vertex 1.06304 2.5664 5.84265
      vertex 0.261321 2.4863 5.74342
    endloop
  endfacet
  facet normal 0.139281 0.700215 -0.700215
    outer loop
      vertex 1.06304 2.5664 5.84265
      vertex 1.70089e-016 2.77785 5.84265
      vertex 2.54556e-016 4.15735 7.22215
    endloop
  endfacet
  facet normal 0.139281 0.700215 -0.700215
    outer loop
      vertex 1.06304 2.5664 5.84265
      vertex 2.54556e-016 4.15735 7.22215
      vertex 1.59095 3.84089 7.22215
    endloop
  endfacet
  facet normal 0.180744 0.908663 -0.376381
    outer loop
      vertex 1.59095 3.84089 7.22215
      vertex 2.54556e-016 4.15735 7.22215
      vertex 1.87665 4.53064 9.02455
    endloop
  endfacet
  facet normal 0.180744 0.908663 -0.376381
    outer loop
      vertex 1.87665 4.53064 9.02455
      vertex 2.54556e-016 4.15735 7.22215
      vertex 3.00269e-016 4.90393 9.02455
    endloop
  endfacet
  facet normal 0.19509 0.980785 0
    outer loop
      vertex 3.00269e-016 4.90393 9.02455
      vertex 3.00269e-016 4.90393 10.9755
      vertex 1.87665 4.53064 9.02455
    endloop
  endfacet
  facet normal 0.19509 0.980785 0
    outer loop
      vertex 1.87665 4.53064 9.02455
      vertex 3.00269e-016 4.90393 10.9755
      vertex 1.87665 4.53064 10.9755
    endloop
  endfacet
  facet normal 0.180744 0.908663 0.376381
    outer loop
      vertex 3.00269e-016 4.90393 10.9755
      vertex 2.54556e-016 4.15735 12.7779
      vertex 1.87665 4.53064 10.9755
    endloop
  endfacet
  facet normal 0.139281 0.700215 0.700215
    outer loop
      vertex 2.54556e-016 4.15735 12.7779
      vertex 1.70089e-016 2.77785 14.1573
      vertex 1.06304 2.5664 14.1573
    endloop
  endfacet
  facet normal -0.139281 0.700215 0.700215
    outer loop
      vertex 2.54556e-016 4.15735 12.7779
      vertex -1.06304 2.5664 14.1573
      vertex 1.70089e-016 2.77785 14.1573
    endloop
  endfacet
  facet normal 0.180744 0.908663 0.376381
    outer loop
      vertex 1.87665 4.53064 10.9755
      vertex 2.54556e-016 4.15735 12.7779
      vertex 1.59095 3.84089 12.7779
    endloop
  endfacet
  facet normal 0.139281 0.700215 0.700215
    outer loop
      vertex 1.59095 3.84089 12.7779
      vertex 2.54556e-016 4.15735 12.7779
      vertex 1.06304 2.5664 14.1573
    endloop
  endfacet
  facet normal -0.0759009 0.38158 0.921214
    outer loop
      vertex 5.97272e-017 0.975452 14.9039
      vertex -1.06304 2.5664 14.1573
      vertex -0.373289 0.9012 14.9039
    endloop
  endfacet
  facet normal -0.216147 0.323488 0.921214
    outer loop
      vertex -0.373289 0.9012 14.9039
      vertex -1.06304 2.5664 14.1573
      vertex -0.689748 0.689748 14.9039
    endloop
  endfacet
  facet normal -0.216147 0.323488 0.921214
    outer loop
      vertex -1.06304 2.5664 14.1573
      vertex -1.96424 1.96424 14.1573
      vertex -0.689748 0.689748 14.9039
    endloop
  endfacet
  facet normal -0.0759009 0.38158 0.921214
    outer loop
      vertex 1.70089e-016 2.77785 14.1573
      vertex -1.06304 2.5664 14.1573
      vertex 5.97272e-017 0.975452 14.9039
    endloop
  endfacet
  facet normal 0 0 1
    outer loop
      vertex -0.9012 0.373289 14.9039
      vertex -0.975452 1.19454e-016 14.9039
      vertex -0.9012 -0.373289 14.9039
    endloop
  endfacet
  facet normal 0 0 1
    outer loop
      vertex -0.373289 -0.9012 14.9039
      vertex -0.9012 0.373289 14.9039
      vertex -0.689748 -0.689748 14.9039
    endloop
  endfacet
  facet normal 0 0 1
    outer loop
      vertex -0.689748 -0.689748 14.9039
      vertex -0.9012 0.373289 14.9039
      vertex -0.9012 -0.373289 14.9039
    endloop
  endfacet
  facet normal 0 0 1
    outer loop
      vertex -1.79182e-016 -0.975452 14.9039
      vertex -0.9012 0.373289 14.9039
      vertex -0.373289 -0.9012 14.9039
    endloop
  endfacet
  facet normal 0 0 1
    outer loop
      vertex 0.373289 -0.9012 14.9039
      vertex -0.9012 0.373289 14.9039
      vertex -1.79182e-016 -0.975452 14.9039
    endloop
  endfacet
  facet normal 0 0 1
    outer loop
      vertex 0.689748 -0.689748 14.9039
      vertex -0.9012 0.373289 14.9039
      vertex 0.373289 -0.9012 14.9039
    endloop
  endfacet
  facet normal 0 0 1
    outer loop
      vertex 0.9012 -0.373289 14.9039
      vertex -0.9012 0.373289 14.9039
      vertex 0.689748 -0.689748 14.9039
    endloop
  endfacet
  facet normal 0 0 1
    outer loop
      vertex 0.975452 0 14.9039
      vertex -0.9012 0.373289 14.9039
      vertex 0.9012 -0.373289 14.9039
    endloop
  endfacet
  facet normal 0 0 1
    outer loop
      vertex 0.9012 0.373289 14.9039
      vertex -0.9012 0.373289 14.9039
      vertex 0.975452 0 14.9039
    endloop
  endfacet
  facet normal 0 0 1
    outer loop
      vertex 0.689748 0.689748 14.9039
      vertex -0.9012 0.373289 14.9039
      vertex 0.9012 0.373289 14.9039
    endloop
  endfacet
  facet normal 0 0 1
    outer loop
      vertex 0.373289 0.9012 14.9039
      vertex -0.9012 0.373289 14.9039
      vertex 0.689748 0.689748 14.9039
    endloop
  endfacet
  facet normal 0 0 1
    outer loop
      vertex 5.97272e-017 0.975452 14.9039
      vertex -0.9012 0.373289 14.9039
      vertex 0.373289 0.9012 14.9039
    endloop
  endfacet
  facet normal 0 0 1
    outer loop
      vertex -0.373289 0.9012 14.9039
      vertex -0.9012 0.373289 14.9039
      vertex 5.97272e-017 0.975452 14.9039
    endloop
  endfacet
  facet normal 0 0 1
    outer loop
      vertex -0.689748 0.689748 14.9039
      vertex -0.9012 0.373289 14.9039
      vertex -0.373289 0.9012 14.9039
    endloop
  endfacet
  facet normal -0.216147 -0.323488 0.921214
    outer loop
      vertex -0.689748 -0.689748 14.9039
      vertex -1.96424 -1.96424 14.1573
      vertex -1.06304 -2.5664 14.1573
    endloop
  endfacet
  facet normal -0.216147 -0.323488 0.921214
    outer loop
      vertex -0.689748 -0.689748 14.9039
      vertex -1.06304 -2.5664 14.1573
      vertex -0.373289 -0.9012 14.9039
    endloop
  endfacet
  facet normal -0.0759009 -0.38158 0.921214
    outer loop
      vertex -0.373289 -0.9012 14.9039
      vertex -1.06304 -2.5664 14.1573
      vertex -1.79182e-016 -0.975452 14.9039
    endloop
  endfacet
  facet normal -0.0759009 -0.38158 0.921214
    outer loop
      vertex -1.79182e-016 -0.975452 14.9039
      vertex -1.06304 -2.5664 14.1573
      vertex -5.10266e-016 -2.77785 14.1573
    endloop
  endfacet
  facet normal 0.0759009 -0.38158 0.921214
    outer loop
      vertex 0.373289 -0.9012 14.9039
      vertex -5.10266e-016 -2.77785 14.1573
      vertex 1.06304 -2.5664 14.1573
    endloop
  endfacet
  facet normal 0.139281 -0.700215 0.700215
    outer loop
      vertex 1.06304 -2.5664 14.1573
      vertex -5.10266e-016 -2.77785 14.1573
      vertex 1.59095 -3.84089 12.7779
    endloop
  endfacet
  facet normal 0.0759009 -0.38158 0.921214
    outer loop
      vertex -1.79182e-016 -0.975452 14.9039
      vertex -5.10266e-016 -2.77785 14.1573
      vertex 0.373289 -0.9012 14.9039
    endloop
  endfacet
  facet normal 0.39664 -0.593613 0.700215
    outer loop
      vertex 1.96424 -1.96424 14.1573
      vertex 1.06304 -2.5664 14.1573
      vertex 1.59095 -3.84089 12.7779
    endloop
  endfacet
  facet normal 0.39664 -0.593613 0.700215
    outer loop
      vertex 1.96424 -1.96424 14.1573
      vertex 1.59095 -3.84089 12.7779
      vertex 2.93969 -2.93969 12.7779
    endloop
  endfacet
  facet normal 0.514716 -0.770328 0.376381
    outer loop
      vertex 2.93969 -2.93969 12.7779
      vertex 1.59095 -3.84089 12.7779
      vertex 3.4676 -3.4676 10.9755
    endloop
  endfacet
  facet normal 0.514716 -0.770328 0.376381
    outer loop
      vertex 3.4676 -3.4676 10.9755
      vertex 1.59095 -3.84089 12.7779
      vertex 1.87665 -4.53064 10.9755
    endloop
  endfacet
  facet normal 0.55557 -0.83147 0
    outer loop
      vertex 1.87665 -4.53064 10.9755
      vertex 1.87665 -4.53064 9.02455
      vertex 3.4676 -3.4676 9.02455
    endloop
  endfacet
  facet normal 0.55557 -0.83147 0
    outer loop
      vertex 3.4676 -3.4676 10.9755
      vertex 1.87665 -4.53064 10.9755
      vertex 3.4676 -3.4676 9.02455
    endloop
  endfacet
  facet normal 0.514716 -0.770328 -0.376381
    outer loop
      vertex 3.4676 -3.4676 9.02455
      vertex 1.87665 -4.53064 9.02455
      vertex 2.93969 -2.93969 7.22215
    endloop
  endfacet
  facet normal 0.514716 -0.770328 -0.376381
    outer loop
      vertex 1.87665 -4.53064 9.02455
      vertex 1.59095 -3.84089 7.22215
      vertex 2.93969 -2.93969 7.22215
    endloop
  endfacet
  facet normal 0.39664 -0.593613 -0.700215
    outer loop
      vertex 1.59095 -3.84089 7.22215
      vertex 1.06304 -2.5664 5.84265
      vertex 2.93969 -2.93969 7.22215
    endloop
  endfacet
  facet normal 0.216147 -0.323488 -0.921214
    outer loop
      vertex 0.951794 -2.29783 5.72224
      vertex 1.25 -2.16506 5.74559
      vertex 1.06304 -2.5664 5.84265
    endloop
  endfacet
  facet normal 0.216147 -0.323488 -0.921214
    outer loop
      vertex 1.06304 -2.5664 5.84265
      vertex 1.25 -2.16506 5.74559
      vertex 1.67283 -1.85786 5.73692
    endloop
  endfacet
  facet normal 0.216147 -0.323488 -0.921214
    outer loop
      vertex 1.67283 -1.85786 5.73692
      vertex 1.72249 -1.80271 5.72921
      vertex 1.06304 -2.5664 5.84265
    endloop
  endfacet
  facet normal 0.216147 -0.323488 -0.921214
    outer loop
      vertex 1.06304 -2.5664 5.84265
      vertex 1.72249 -1.80271 5.72921
      vertex 1.96424 -1.96424 5.84265
    endloop
  endfacet
  facet normal 0.39664 -0.593613 -0.700215
    outer loop
      vertex 2.93969 -2.93969 7.22215
      vertex 1.06304 -2.5664 5.84265
      vertex 1.96424 -1.96424 5.84265
    endloop
  endfacet
  facet normal 0.406737 -0.913545 0
    outer loop
      vertex 0.772542 -2.37764 5.74053
      vertex 0.772542 -2.37764 0
      vertex 1.25 -2.16506 0
    endloop
  endfacet
  facet normal 0.406737 -0.913545 0
    outer loop
      vertex 0.951794 -2.29783 5.72224
      vertex 0.772542 -2.37764 5.74053
      vertex 1.25 -2.16506 0
    endloop
  endfacet
  facet normal 0.406737 -0.913545 0
    outer loop
      vertex 1.25 -2.16506 5.74559
      vertex 0.951794 -2.29783 5.72224
      vertex 1.25 -2.16506 0
    endloop
  endfacet
  facet normal 0.207912 -0.978148 0
    outer loop
      vertex 0.261321 -2.4863 5.74342
      vertex 0.261321 -2.4863 0
      vertex 0.772542 -2.37764 0
    endloop
  endfacet
  facet normal 0.207912 -0.978148 0
    outer loop
      vertex 0.772542 -2.37764 5.74053
      vertex 0.261321 -2.4863 5.74342
      vertex 0.772542 -2.37764 0
    endloop
  endfacet
  facet normal 0.587785 -0.809017 0
    outer loop
      vertex 1.25 -2.16506 5.74559
      vertex 1.25 -2.16506 0
      vertex 1.67283 -1.85786 0
    endloop
  endfacet
  facet normal 0.587785 -0.809017 0
    outer loop
      vertex 1.67283 -1.85786 5.73692
      vertex 1.25 -2.16506 5.74559
      vertex 1.67283 -1.85786 0
    endloop
  endfacet
  facet normal 0.743145 -0.669131 0
    outer loop
      vertex 1.67283 -1.85786 5.73692
      vertex 1.67283 -1.85786 0
      vertex 2.02254 -1.46946 0
    endloop
  endfacet
  facet normal 0.743145 -0.669131 0
    outer loop
      vertex 1.72249 -1.80271 5.72921
      vertex 1.67283 -1.85786 5.73692
      vertex 2.02254 -1.46946 0
    endloop
  endfacet
  facet normal 0.743145 -0.669131 0
    outer loop
      vertex 2.02254 -1.46946 5.74704
      vertex 1.7605 -1.7605 5.7233
      vertex 2.02254 -1.46946 0
    endloop
  endfacet
  facet normal 0.743145 -0.669131 0
    outer loop
      vertex 1.7605 -1.7605 5.7233
      vertex 1.72249 -1.80271 5.72921
      vertex 2.02254 -1.46946 0
    endloop
  endfacet
  facet normal 0.866025 -0.5 0
    outer loop
      vertex 2.02254 -1.46946 5.74704
      vertex 2.02254 -1.46946 0
      vertex 2.28386 -1.01684 0
    endloop
  endfacet
  facet normal 0.866025 -0.5 0
    outer loop
      vertex 2.28386 -1.01684 5.7326
      vertex 2.02254 -1.46946 5.74704
      vertex 2.28386 -1.01684 0
    endloop
  endfacet
  facet normal 0.951057 -0.309017 0
    outer loop
      vertex 2.28386 -1.01684 5.7326
      vertex 2.28386 -1.01684 0
      vertex 2.44537 -0.519779 0
    endloop
  endfacet
  facet normal 0.951057 -0.309017 0
    outer loop
      vertex 2.28692 -1.00744 5.73147
      vertex 2.28386 -1.01684 5.7326
      vertex 2.44537 -0.519779 0
    endloop
  endfacet
  facet normal 0.951057 -0.309017 0
    outer loop
      vertex 2.44537 -0.519779 5.74776
      vertex 2.32193 -0.899688 5.72793
      vertex 2.44537 -0.519779 0
    endloop
  endfacet
  facet normal 0.951057 -0.309017 0
    outer loop
      vertex 2.32193 -0.899688 5.72793
      vertex 2.30415 -0.95441 5.72507
      vertex 2.44537 -0.519779 0
    endloop
  endfacet
  facet normal 0.951057 -0.309017 0
    outer loop
      vertex 2.30415 -0.95441 5.72507
      vertex 2.28692 -1.00744 5.73147
      vertex 2.44537 -0.519779 0
    endloop
  endfacet
  facet normal 0.994522 -0.104528 0
    outer loop
      vertex 2.44537 -0.519779 5.74776
      vertex 2.44537 -0.519779 0
      vertex 2.5 0 0
    endloop
  endfacet
  facet normal 0.994522 -0.104528 0
    outer loop
      vertex 2.5 0 5.72756
      vertex 2.44537 -0.519779 5.74776
      vertex 2.5 0 0
    endloop
  endfacet
  facet normal 0.994522 0.104528 0
    outer loop
      vertex 2.5 0 0
      vertex 2.44537 0.519779 0
      vertex 2.44537 0.519779 5.74776
    endloop
  endfacet
  facet normal 0.994522 0.104528 0
    outer loop
      vertex 2.5 0 5.72756
      vertex 2.5 0 0
      vertex 2.49407 0.0564482 5.72976
    endloop
  endfacet
  facet normal 0.994522 0.104528 0
    outer loop
      vertex 2.49407 0.0564482 5.72976
      vertex 2.5 0 0
      vertex 2.44537 0.519779 5.74776
    endloop
  endfacet
  facet normal 0.951057 0.309017 0
    outer loop
      vertex 2.44537 0.519779 0
      vertex 2.28386 1.01684 0
      vertex 2.28386 1.01684 5.7326
    endloop
  endfacet
  facet normal 0.951057 0.309017 0
    outer loop
      vertex 2.44537 0.519779 5.74776
      vertex 2.44537 0.519779 0
      vertex 2.30415 0.95441 5.72507
    endloop
  endfacet
  facet normal 0.951057 0.309017 0
    outer loop
      vertex 2.30415 0.95441 5.72507
      vertex 2.44537 0.519779 0
      vertex 2.28386 1.01684 5.7326
    endloop
  endfacet
  facet normal 0.866025 0.5 0
    outer loop
      vertex 2.28386 1.01684 0
      vertex 2.02254 1.46946 0
      vertex 2.02254 1.46946 5.74704
    endloop
  endfacet
  facet normal 0.866025 0.5 0
    outer loop
      vertex 2.28386 1.01684 5.7326
      vertex 2.28386 1.01684 0
      vertex 2.02254 1.46946 5.74704
    endloop
  endfacet
  facet normal 0.743145 0.669131 0
    outer loop
      vertex 2.02254 1.46946 0
      vertex 1.67283 1.85786 0
      vertex 1.67283 1.85786 5.73692
    endloop
  endfacet
  facet normal 0.743145 0.669131 0
    outer loop
      vertex 1.7605 1.7605 5.7233
      vertex 2.02254 1.46946 0
      vertex 1.72249 1.80271 5.72921
    endloop
  endfacet
  facet normal 0.743145 0.669131 0
    outer loop
      vertex 1.72249 1.80271 5.72921
      vertex 2.02254 1.46946 0
      vertex 1.67283 1.85786 5.73692
    endloop
  endfacet
  facet normal 0.743145 0.669131 0
    outer loop
      vertex 1.7993 1.7174 5.72682
      vertex 2.02254 1.46946 0
      vertex 1.7605 1.7605 5.7233
    endloop
  endfacet
  facet normal 0.743145 0.669131 0
    outer loop
      vertex 2.02254 1.46946 5.74704
      vertex 2.02254 1.46946 0
      vertex 1.7993 1.7174 5.72682
    endloop
  endfacet
  facet normal 0.587785 0.809017 0
    outer loop
      vertex 1.25 2.16506 0
      vertex 1.25 2.16506 5.74559
      vertex 1.67283 1.85786 0
    endloop
  endfacet
  facet normal 0.587785 0.809017 0
    outer loop
      vertex 1.67283 1.85786 0
      vertex 1.25 2.16506 5.74559
      vertex 1.67283 1.85786 5.73692
    endloop
  endfacet
  facet normal 0.406737 0.913545 0
    outer loop
      vertex 0.772542 2.37764 0
      vertex 0.772542 2.37764 5.74053
      vertex 1.25 2.16506 0
    endloop
  endfacet
  facet normal 0.406737 0.913545 0
    outer loop
      vertex 1.25 2.16506 0
      vertex 0.772542 2.37764 5.74053
      vertex 0.951794 2.29783 5.72224
    endloop
  endfacet
  facet normal 0.406737 0.913545 0
    outer loop
      vertex 1.25 2.16506 0
      vertex 0.951794 2.29783 5.72224
      vertex 1.25 2.16506 5.74559
    endloop
  endfacet
  facet normal 0.207912 0.978148 0
    outer loop
      vertex 0.261321 2.4863 0
      vertex 0.261321 2.4863 5.74342
      vertex 0.772542 2.37764 0
    endloop
  endfacet
  facet normal 0.207912 0.978148 0
    outer loop
      vertex 0.772542 2.37764 0
      vertex 0.261321 2.4863 5.74342
      vertex 0.772542 2.37764 5.74053
    endloop
  endfacet
  facet normal 0.994522 0.104528 0
    outer loop
      vertex -1.25 7.08187e-016 9
      vertex -1.22268 -0.25989 9
      vertex -1.22268 -0.25989 0
    endloop
  endfacet
  facet normal 0.994522 0.104528 0
    outer loop
      vertex -1.25 7.08187e-016 0
      vertex -1.25 7.08187e-016 9
      vertex -1.22268 -0.25989 0
    endloop
  endfacet
  facet normal 0.994522 -0.104528 0
    outer loop
      vertex -1.22268 0.25989 0
      vertex -1.22268 0.25989 9
      vertex -1.25 7.08187e-016 9
    endloop
  endfacet
  facet normal 0.994522 -0.104528 0
    outer loop
      vertex -1.25 7.08187e-016 0
      vertex -1.22268 0.25989 0
      vertex -1.25 7.08187e-016 9
    endloop
  endfacet
  facet normal 0.951057 -0.309017 0
    outer loop
      vertex -1.14193 0.508421 0
      vertex -1.14193 0.508421 9
      vertex -1.22268 0.25989 9
    endloop
  endfacet
  facet normal 0.951057 -0.309017 0
    outer loop
      vertex -1.22268 0.25989 0
      vertex -1.14193 0.508421 0
      vertex -1.22268 0.25989 9
    endloop
  endfacet
  facet normal 0.866025 -0.5 0
    outer loop
      vertex -1.01127 0.734732 0
      vertex -1.01127 0.734732 9
      vertex -1.14193 0.508421 9
    endloop
  endfacet
  facet normal 0.866025 -0.5 0
    outer loop
      vertex -1.14193 0.508421 0
      vertex -1.01127 0.734732 0
      vertex -1.14193 0.508421 9
    endloop
  endfacet
  facet normal 0.743145 -0.669131 0
    outer loop
      vertex -0.836413 0.928931 0
      vertex -0.836413 0.928931 9
      vertex -1.01127 0.734732 9
    endloop
  endfacet
  facet normal 0.743145 -0.669131 0
    outer loop
      vertex -1.01127 0.734732 0
      vertex -0.836413 0.928931 0
      vertex -1.01127 0.734732 9
    endloop
  endfacet
  facet normal 0.587785 -0.809017 0
    outer loop
      vertex -0.625 1.08253 0
      vertex -0.625 1.08253 9
      vertex -0.836413 0.928931 9
    endloop
  endfacet
  facet normal 0.587785 -0.809017 0
    outer loop
      vertex -0.836413 0.928931 0
      vertex -0.625 1.08253 0
      vertex -0.836413 0.928931 9
    endloop
  endfacet
  facet normal 0.406737 -0.913545 0
    outer loop
      vertex -0.386271 1.18882 0
      vertex -0.386271 1.18882 9
      vertex -0.625 1.08253 9
    endloop
  endfacet
  facet normal 0.406737 -0.913545 0
    outer loop
      vertex -0.625 1.08253 0
      vertex -0.386271 1.18882 0
      vertex -0.625 1.08253 9
    endloop
  endfacet
  facet normal 0.207912 -0.978148 0
    outer loop
      vertex -0.130661 1.24315 0
      vertex -0.130661 1.24315 9
      vertex -0.386271 1.18882 9
    endloop
  endfacet
  facet normal 0.207912 -0.978148 0
    outer loop
      vertex -0.386271 1.18882 0
      vertex -0.130661 1.24315 0
      vertex -0.386271 1.18882 9
    endloop
  endfacet
  facet normal 0 -1 0
    outer loop
      vertex 0.130661 1.24315 0
      vertex 0.130661 1.24315 9
      vertex -0.130661 1.24315 9
    endloop
  endfacet
  facet normal 0 -1 0
    outer loop
      vertex -0.130661 1.24315 0
      vertex 0.130661 1.24315 0
      vertex -0.130661 1.24315 9
    endloop
  endfacet
  facet normal -0.207912 -0.978148 0
    outer loop
      vertex 0.386271 1.18882 0
      vertex 0.386271 1.18882 9
      vertex 0.130661 1.24315 9
    endloop
  endfacet
  facet normal -0.207912 -0.978148 0
    outer loop
      vertex 0.130661 1.24315 0
      vertex 0.386271 1.18882 0
      vertex 0.130661 1.24315 9
    endloop
  endfacet
  facet normal -0.406737 -0.913545 0
    outer loop
      vertex 0.625 1.08253 0
      vertex 0.625 1.08253 9
      vertex 0.386271 1.18882 9
    endloop
  endfacet
  facet normal -0.406737 -0.913545 0
    outer loop
      vertex 0.386271 1.18882 0
      vertex 0.625 1.08253 0
      vertex 0.386271 1.18882 9
    endloop
  endfacet
  facet normal -0.587785 -0.809017 0
    outer loop
      vertex 0.836413 0.928931 0
      vertex 0.836413 0.928931 9
      vertex 0.625 1.08253 9
    endloop
  endfacet
  facet normal -0.587785 -0.809017 0
    outer loop
      vertex 0.625 1.08253 0
      vertex 0.836413 0.928931 0
      vertex 0.625 1.08253 9
    endloop
  endfacet
  facet normal -0.743145 -0.669131 0
    outer loop
      vertex 1.01127 0.734732 9
      vertex 0.836413 0.928931 9
      vertex 1.01127 0.734732 0
    endloop
  endfacet
  facet normal -0.743145 -0.669131 0
    outer loop
      vertex 1.01127 0.734732 0
      vertex 0.836413 0.928931 9
      vertex 0.836413 0.928931 0
    endloop
  endfacet
  facet normal -0.866025 -0.5 0
    outer loop
      vertex 1.14193 0.508421 9
      vertex 1.01127 0.734732 9
      vertex 1.14193 0.508421 0
    endloop
  endfacet
  facet normal -0.866025 -0.5 0
    outer loop
      vertex 1.14193 0.508421 0
      vertex 1.01127 0.734732 9
      vertex 1.01127 0.734732 0
    endloop
  endfacet
  facet normal -0.951057 -0.309017 0
    outer loop
      vertex 1.22268 0.25989 9
      vertex 1.14193 0.508421 9
      vertex 1.22268 0.25989 0
    endloop
  endfacet
  facet normal -0.951057 -0.309017 0
    outer loop
      vertex 1.22268 0.25989 0
      vertex 1.14193 0.508421 9
      vertex 1.14193 0.508421 0
    endloop
  endfacet
  facet normal -0.994522 -0.104528 0
    outer loop
      vertex 1.25 0 9
      vertex 1.22268 0.25989 9
      vertex 1.25 0 0
    endloop
  endfacet
  facet normal -0.994522 -0.104528 0
    outer loop
      vertex 1.25 0 0
      vertex 1.22268 0.25989 9
      vertex 1.22268 0.25989 0
    endloop
  endfacet
  facet normal -0.994522 0.104528 0
    outer loop
      vertex 1.25 0 9
      vertex 1.25 0 0
      vertex 1.22268 -0.25989 9
    endloop
  endfacet
  facet normal -0.994522 0.104528 0
    outer loop
      vertex 1.22268 -0.25989 9
      vertex 1.25 0 0
      vertex 1.22268 -0.25989 0
    endloop
  endfacet
  facet normal -0.951057 0.309017 0
    outer loop
      vertex 1.22268 -0.25989 9
      vertex 1.22268 -0.25989 0
      vertex 1.14193 -0.508421 9
    endloop
  endfacet
  facet normal -0.951057 0.309017 0
    outer loop
      vertex 1.14193 -0.508421 9
      vertex 1.22268 -0.25989 0
      vertex 1.14193 -0.508421 0
    endloop
  endfacet
  facet normal -0.866025 0.5 0
    outer loop
      vertex 1.14193 -0.508421 9
      vertex 1.14193 -0.508421 0
      vertex 1.01127 -0.734732 9
    endloop
  endfacet
  facet normal -0.866025 0.5 0
    outer loop
      vertex 1.01127 -0.734732 9
      vertex 1.14193 -0.508421 0
      vertex 1.01127 -0.734732 0
    endloop
  endfacet
  facet normal -0.743145 0.669131 0
    outer loop
      vertex 1.01127 -0.734732 9
      vertex 1.01127 -0.734732 0
      vertex 0.836413 -0.928931 9
    endloop
  endfacet
  facet normal -0.743145 0.669131 0
    outer loop
      vertex 0.836413 -0.928931 9
      vertex 1.01127 -0.734732 0
      vertex 0.836413 -0.928931 0
    endloop
  endfacet
  facet normal -0.587785 0.809017 0
    outer loop
      vertex 0.836413 -0.928931 9
      vertex 0.836413 -0.928931 0
      vertex 0.625 -1.08253 9
    endloop
  endfacet
  facet normal -0.587785 0.809017 0
    outer loop
      vertex 0.625 -1.08253 9
      vertex 0.836413 -0.928931 0
      vertex 0.625 -1.08253 0
    endloop
  endfacet
  facet normal -0.406737 0.913545 0
    outer loop
      vertex 0.625 -1.08253 9
      vertex 0.625 -1.08253 0
      vertex 0.386271 -1.18882 9
    endloop
  endfacet
  facet normal -0.406737 0.913545 0
    outer loop
      vertex 0.386271 -1.18882 9
      vertex 0.625 -1.08253 0
      vertex 0.386271 -1.18882 0
    endloop
  endfacet
  facet normal -0.207912 0.978148 0
    outer loop
      vertex 0.386271 -1.18882 9
      vertex 0.386271 -1.18882 0
      vertex 0.130661 -1.24315 9
    endloop
  endfacet
  facet normal -0.207912 0.978148 0
    outer loop
      vertex 0.130661 -1.24315 9
      vertex 0.386271 -1.18882 0
      vertex 0.130661 -1.24315 0
    endloop
  endfacet
  facet normal 0 1 0
    outer loop
      vertex 0.130661 -1.24315 9
      vertex 0.130661 -1.24315 0
      vertex -0.130661 -1.24315 9
    endloop
  endfacet
  facet normal 0 1 0
    outer loop
      vertex -0.130661 -1.24315 9
      vertex 0.130661 -1.24315 0
      vertex -0.130661 -1.24315 0
    endloop
  endfacet
  facet normal 0.207912 0.978148 0
    outer loop
      vertex -0.130661 -1.24315 9
      vertex -0.130661 -1.24315 0
      vertex -0.386271 -1.18882 9
    endloop
  endfacet
  facet normal 0.207912 0.978148 0
    outer loop
      vertex -0.386271 -1.18882 9
      vertex -0.130661 -1.24315 0
      vertex -0.386271 -1.18882 0
    endloop
  endfacet
  facet normal 0.406737 0.913545 0
    outer loop
      vertex -0.386271 -1.18882 9
      vertex -0.386271 -1.18882 0
      vertex -0.625 -1.08253 9
    endloop
  endfacet
  facet normal 0.406737 0.913545 0
    outer loop
      vertex -0.625 -1.08253 9
      vertex -0.386271 -1.18882 0
      vertex -0.625 -1.08253 0
    endloop
  endfacet
  facet normal 0.587785 0.809017 0
    outer loop
      vertex -0.625 -1.08253 9
      vertex -0.625 -1.08253 0
      vertex -0.836413 -0.928931 9
    endloop
  endfacet
  facet normal 0.587785 0.809017 0
    outer loop
      vertex -0.836413 -0.928931 9
      vertex -0.625 -1.08253 0
      vertex -0.836413 -0.928931 0
    endloop
  endfacet
  facet normal 0.743145 0.669131 0
    outer loop
      vertex -1.01127 -0.734732 9
      vertex -0.836413 -0.928931 9
      vertex -0.836413 -0.928931 0
    endloop
  endfacet
  facet normal 0.743145 0.669131 0
    outer loop
      vertex -1.01127 -0.734732 0
      vertex -1.01127 -0.734732 9
      vertex -0.836413 -0.928931 0
    endloop
  endfacet
  facet normal 0.866025 0.5 0
    outer loop
      vertex -1.14193 -0.508421 9
      vertex -1.01127 -0.734732 9
      vertex -1.01127 -0.734732 0
    endloop
  endfacet
  facet normal 0.866025 0.5 0
    outer loop
      vertex -1.14193 -0.508421 0
      vertex -1.14193 -0.508421 9
      vertex -1.01127 -0.734732 0
    endloop
  endfacet
  facet normal 0.951057 0.309017 0
    outer loop
      vertex -1.22268 -0.25989 9
      vertex -1.14193 -0.508421 9
      vertex -1.14193 -0.508421 0
    endloop
  endfacet
  facet normal 0.951057 0.309017 0
    outer loop
      vertex -1.22268 -0.25989 0
      vertex -1.22268 -0.25989 9
      vertex -1.14193 -0.508421 0
    endloop
  endfacet
  facet normal 0.216147 0.323488 -0.921214
    outer loop
      vertex 0.951794 2.29783 5.72224
      vertex 1.06304 2.5664 5.84265
      vertex 1.25 2.16506 5.74559
    endloop
  endfacet
  facet normal 0.216147 0.323488 -0.921214
    outer loop
      vertex 1.25 2.16506 5.74559
      vertex 1.06304 2.5664 5.84265
      vertex 1.96424 1.96424 5.84265
    endloop
  endfacet
  facet normal 0.216147 0.323488 -0.921214
    outer loop
      vertex 1.67283 1.85786 5.73692
      vertex 1.96424 1.96424 5.84265
      vertex 1.72249 1.80271 5.72921
    endloop
  endfacet
  facet normal 0.216147 0.323488 -0.921214
    outer loop
      vertex 1.25 2.16506 5.74559
      vertex 1.96424 1.96424 5.84265
      vertex 1.67283 1.85786 5.73692
    endloop
  endfacet
  facet normal 0.39664 0.593613 -0.700215
    outer loop
      vertex 1.96424 1.96424 5.84265
      vertex 1.06304 2.5664 5.84265
      vertex 2.93969 2.93969 7.22215
    endloop
  endfacet
  facet normal 0.39664 0.593613 -0.700215
    outer loop
      vertex 2.93969 2.93969 7.22215
      vertex 1.06304 2.5664 5.84265
      vertex 1.59095 3.84089 7.22215
    endloop
  endfacet
  facet normal 0.514716 0.770328 -0.376381
    outer loop
      vertex 2.93969 2.93969 7.22215
      vertex 1.59095 3.84089 7.22215
      vertex 1.87665 4.53064 9.02455
    endloop
  endfacet
  facet normal 0.514716 0.770328 -0.376381
    outer loop
      vertex 2.93969 2.93969 7.22215
      vertex 1.87665 4.53064 9.02455
      vertex 3.4676 3.4676 9.02455
    endloop
  endfacet
  facet normal 0.55557 0.83147 0
    outer loop
      vertex 1.87665 4.53064 9.02455
      vertex 1.87665 4.53064 10.9755
      vertex 3.4676 3.4676 9.02455
    endloop
  endfacet
  facet normal 0.55557 0.83147 0
    outer loop
      vertex 3.4676 3.4676 9.02455
      vertex 1.87665 4.53064 10.9755
      vertex 3.4676 3.4676 10.9755
    endloop
  endfacet
  facet normal 0.514716 0.770328 0.376381
    outer loop
      vertex 3.4676 3.4676 10.9755
      vertex 1.87665 4.53064 10.9755
      vertex 2.93969 2.93969 12.7779
    endloop
  endfacet
  facet normal 0.514716 0.770328 0.376381
    outer loop
      vertex 1.87665 4.53064 10.9755
      vertex 1.59095 3.84089 12.7779
      vertex 2.93969 2.93969 12.7779
    endloop
  endfacet
  facet normal 0.216147 0.323488 0.921214
    outer loop
      vertex 1.06304 2.5664 14.1573
      vertex 0.373289 0.9012 14.9039
      vertex 0.689748 0.689748 14.9039
    endloop
  endfacet
  facet normal 0.0759009 0.38158 0.921214
    outer loop
      vertex 1.06304 2.5664 14.1573
      vertex 1.70089e-016 2.77785 14.1573
      vertex 0.373289 0.9012 14.9039
    endloop
  endfacet
  facet normal 0.39664 0.593613 0.700215
    outer loop
      vertex 1.59095 3.84089 12.7779
      vertex 1.06304 2.5664 14.1573
      vertex 1.96424 1.96424 14.1573
    endloop
  endfacet
  facet normal 0.216147 0.323488 0.921214
    outer loop
      vertex 1.06304 2.5664 14.1573
      vertex 0.689748 0.689748 14.9039
      vertex 1.96424 1.96424 14.1573
    endloop
  endfacet
  facet normal 0.0759009 0.38158 0.921214
    outer loop
      vertex 1.70089e-016 2.77785 14.1573
      vertex 5.97272e-017 0.975452 14.9039
      vertex 0.373289 0.9012 14.9039
    endloop
  endfacet
  facet normal 0.39664 0.593613 0.700215
    outer loop
      vertex 2.93969 2.93969 12.7779
      vertex 1.59095 3.84089 12.7779
      vertex 1.96424 1.96424 14.1573
    endloop
  endfacet
  facet normal 0.323488 0.216147 0.921214
    outer loop
      vertex 1.96424 1.96424 14.1573
      vertex 0.689748 0.689748 14.9039
      vertex 0.9012 0.373289 14.9039
    endloop
  endfacet
  facet normal 0.323488 0.216147 0.921214
    outer loop
      vertex 1.96424 1.96424 14.1573
      vertex 0.9012 0.373289 14.9039
      vertex 2.5664 1.06304 14.1573
    endloop
  endfacet
  facet normal 0.38158 0.0759009 0.921214
    outer loop
      vertex 2.5664 1.06304 14.1573
      vertex 0.9012 0.373289 14.9039
      vertex 2.77785 0 14.1573
    endloop
  endfacet
  facet normal 0.38158 0.0759009 0.921214
    outer loop
      vertex 2.77785 0 14.1573
      vertex 0.9012 0.373289 14.9039
      vertex 0.975452 0 14.9039
    endloop
  endfacet
  facet normal 0.38158 -0.0759009 0.921214
    outer loop
      vertex 2.77785 0 14.1573
      vertex 0.975452 0 14.9039
      vertex 2.5664 -1.06304 14.1573
    endloop
  endfacet
  facet normal 0.38158 -0.0759009 0.921214
    outer loop
      vertex 0.975452 0 14.9039
      vertex 0.9012 -0.373289 14.9039
      vertex 2.5664 -1.06304 14.1573
    endloop
  endfacet
  facet normal 0.323488 -0.216147 0.921214
    outer loop
      vertex 0.9012 -0.373289 14.9039
      vertex 0.689748 -0.689748 14.9039
      vertex 2.5664 -1.06304 14.1573
    endloop
  endfacet
  facet normal 0.323488 -0.216147 0.921214
    outer loop
      vertex 2.5664 -1.06304 14.1573
      vertex 0.689748 -0.689748 14.9039
      vertex 1.96424 -1.96424 14.1573
    endloop
  endfacet
  facet normal 0.216147 -0.323488 0.921214
    outer loop
      vertex 0.689748 -0.689748 14.9039
      vertex 0.373289 -0.9012 14.9039
      vertex 1.96424 -1.96424 14.1573
    endloop
  endfacet
  facet normal 0.216147 -0.323488 0.921214
    outer loop
      vertex 1.96424 -1.96424 14.1573
      vertex 0.373289 -0.9012 14.9039
      vertex 1.06304 -2.5664 14.1573
    endloop
  endfacet
  facet normal 0.593613 -0.39664 0.700215
    outer loop
      vertex 2.5664 -1.06304 14.1573
      vertex 1.96424 -1.96424 14.1573
      vertex 2.93969 -2.93969 12.7779
    endloop
  endfacet
  facet normal 0.593613 -0.39664 0.700215
    outer loop
      vertex 3.84089 -1.59095 12.7779
      vertex 2.5664 -1.06304 14.1573
      vertex 2.93969 -2.93969 12.7779
    endloop
  endfacet
  facet normal 0.770328 -0.514716 0.376381
    outer loop
      vertex 3.84089 -1.59095 12.7779
      vertex 2.93969 -2.93969 12.7779
      vertex 4.53064 -1.87665 10.9755
    endloop
  endfacet
  facet normal 0.770328 -0.514716 0.376381
    outer loop
      vertex 4.53064 -1.87665 10.9755
      vertex 2.93969 -2.93969 12.7779
      vertex 3.4676 -3.4676 10.9755
    endloop
  endfacet
  facet normal 0.83147 -0.55557 0
    outer loop
      vertex 3.4676 -3.4676 10.9755
      vertex 3.4676 -3.4676 9.02455
      vertex 4.53064 -1.87665 9.02455
    endloop
  endfacet
  facet normal 0.83147 -0.55557 0
    outer loop
      vertex 4.53064 -1.87665 10.9755
      vertex 3.4676 -3.4676 10.9755
      vertex 4.53064 -1.87665 9.02455
    endloop
  endfacet
  facet normal 0.770328 -0.514716 -0.376381
    outer loop
      vertex 3.4676 -3.4676 9.02455
      vertex 2.93969 -2.93969 7.22215
      vertex 4.53064 -1.87665 9.02455
    endloop
  endfacet
  facet normal 0.770328 -0.514716 -0.376381
    outer loop
      vertex 4.53064 -1.87665 9.02455
      vertex 2.93969 -2.93969 7.22215
      vertex 3.84089 -1.59095 7.22215
    endloop
  endfacet
  facet normal 0.593613 -0.39664 -0.700215
    outer loop
      vertex 2.93969 -2.93969 7.22215
      vertex 2.5664 -1.06304 5.84265
      vertex 3.84089 -1.59095 7.22215
    endloop
  endfacet
  facet normal 0.593613 -0.39664 -0.700215
    outer loop
      vertex 2.93969 -2.93969 7.22215
      vertex 1.96424 -1.96424 5.84265
      vertex 2.5664 -1.06304 5.84265
    endloop
  endfacet
  facet normal 0.323488 -0.216147 -0.921214
    outer loop
      vertex 1.7605 -1.7605 5.7233
      vertex 2.02254 -1.46946 5.74704
      vertex 1.96424 -1.96424 5.84265
    endloop
  endfacet
  facet normal 0.323488 -0.216147 -0.921214
    outer loop
      vertex 1.96424 -1.96424 5.84265
      vertex 2.02254 -1.46946 5.74704
      vertex 2.28386 -1.01684 5.7326
    endloop
  endfacet
  facet normal 0.323488 -0.216147 -0.921214
    outer loop
      vertex 2.28386 -1.01684 5.7326
      vertex 2.28692 -1.00744 5.73147
      vertex 2.5664 -1.06304 5.84265
    endloop
  endfacet
  facet normal 0.323488 -0.216147 -0.921214
    outer loop
      vertex 2.28386 -1.01684 5.7326
      vertex 2.5664 -1.06304 5.84265
      vertex 1.96424 -1.96424 5.84265
    endloop
  endfacet
  facet normal 0.216147 -0.323488 -0.921214
    outer loop
      vertex 1.96424 -1.96424 5.84265
      vertex 1.72249 -1.80271 5.72921
      vertex 1.7605 -1.7605 5.7233
    endloop
  endfacet
  facet normal 0.323488 -0.216147 -0.921214
    outer loop
      vertex 2.5664 -1.06304 5.84265
      vertex 2.28692 -1.00744 5.73147
      vertex 2.30415 -0.95441 5.72507
    endloop
  endfacet
  facet normal 0.38158 -0.0759009 -0.921214
    outer loop
      vertex 2.5664 -1.06304 5.84265
      vertex 2.30415 -0.95441 5.72507
      vertex 2.32193 -0.899688 5.72793
    endloop
  endfacet
  facet normal 0.38158 -0.0759009 -0.921214
    outer loop
      vertex 2.32193 -0.899688 5.72793
      vertex 2.44537 -0.519779 5.74776
      vertex 2.5664 -1.06304 5.84265
    endloop
  endfacet
  facet normal 0.38158 -0.0759009 -0.921214
    outer loop
      vertex 2.5664 -1.06304 5.84265
      vertex 2.44537 -0.519779 5.74776
      vertex 2.5 0 5.72756
    endloop
  endfacet
  facet normal 0.38158 -0.0759009 -0.921214
    outer loop
      vertex 2.5664 -1.06304 5.84265
      vertex 2.5 0 5.72756
      vertex 2.77785 0 5.84265
    endloop
  endfacet
  facet normal 0.38158 0.0759009 -0.921214
    outer loop
      vertex 2.5 0 5.72756
      vertex 2.49407 0.0564482 5.72976
      vertex 2.77785 0 5.84265
    endloop
  endfacet
  facet normal 0.38158 0.0759009 -0.921214
    outer loop
      vertex 2.30415 0.95441 5.72507
      vertex 2.5664 1.06304 5.84265
      vertex 2.44537 0.519779 5.74776
    endloop
  endfacet
  facet normal 0.38158 0.0759009 -0.921214
    outer loop
      vertex 2.44537 0.519779 5.74776
      vertex 2.5664 1.06304 5.84265
      vertex 2.77785 0 5.84265
    endloop
  endfacet
  facet normal 0.38158 0.0759009 -0.921214
    outer loop
      vertex 2.44537 0.519779 5.74776
      vertex 2.77785 0 5.84265
      vertex 2.49407 0.0564482 5.72976
    endloop
  endfacet
  facet normal 0.323488 0.216147 -0.921214
    outer loop
      vertex 1.7993 1.7174 5.72682
      vertex 1.96424 1.96424 5.84265
      vertex 2.02254 1.46946 5.74704
    endloop
  endfacet
  facet normal 0.323488 0.216147 -0.921214
    outer loop
      vertex 2.02254 1.46946 5.74704
      vertex 1.96424 1.96424 5.84265
      vertex 2.5664 1.06304 5.84265
    endloop
  endfacet
  facet normal 0.323488 0.216147 -0.921214
    outer loop
      vertex 2.28386 1.01684 5.7326
      vertex 2.5664 1.06304 5.84265
      vertex 2.30415 0.95441 5.72507
    endloop
  endfacet
  facet normal 0.323488 0.216147 -0.921214
    outer loop
      vertex 2.02254 1.46946 5.74704
      vertex 2.5664 1.06304 5.84265
      vertex 2.28386 1.01684 5.7326
    endloop
  endfacet
  facet normal 0.323488 0.216147 -0.921214
    outer loop
      vertex 1.7993 1.7174 5.72682
      vertex 1.7605 1.7605 5.7233
      vertex 1.96424 1.96424 5.84265
    endloop
  endfacet
  facet normal 0.216147 0.323488 -0.921214
    outer loop
      vertex 1.7605 1.7605 5.7233
      vertex 1.72249 1.80271 5.72921
      vertex 1.96424 1.96424 5.84265
    endloop
  endfacet
  facet normal 0 0 -1
    outer loop
      vertex -1.14193 0.508421 9
      vertex -1.01127 0.734732 9
      vertex -1.22268 0.25989 9
    endloop
  endfacet
  facet normal 0 0 -1
    outer loop
      vertex -1.22268 0.25989 9
      vertex -1.01127 0.734732 9
      vertex -0.836413 0.928931 9
    endloop
  endfacet
  facet normal 0 0 -1
    outer loop
      vertex -1.22268 0.25989 9
      vertex -0.836413 0.928931 9
      vertex -0.625 1.08253 9
    endloop
  endfacet
  facet normal 0 0 -1
    outer loop
      vertex -1.22268 0.25989 9
      vertex -0.625 1.08253 9
      vertex -0.386271 1.18882 9
    endloop
  endfacet
  facet normal 0 0 -1
    outer loop
      vertex -1.22268 0.25989 9
      vertex -0.386271 1.18882 9
      vertex -0.130661 1.24315 9
    endloop
  endfacet
  facet normal 0 0 -1
    outer loop
      vertex -1.22268 0.25989 9
      vertex -0.130661 1.24315 9
      vertex 0.130661 1.24315 9
    endloop
  endfacet
  facet normal 0 0 -1
    outer loop
      vertex -1.22268 0.25989 9
      vertex 0.130661 1.24315 9
      vertex 0.386271 1.18882 9
    endloop
  endfacet
  facet normal 0 0 -1
    outer loop
      vertex -1.22268 0.25989 9
      vertex 0.386271 1.18882 9
      vertex 0.625 1.08253 9
    endloop
  endfacet
  facet normal 0 0 -1
    outer loop
      vertex -1.22268 0.25989 9
      vertex 0.625 1.08253 9
      vertex 0.836413 0.928931 9
    endloop
  endfacet
  facet normal 0 0 -1
    outer loop
      vertex -1.22268 0.25989 9
      vertex 0.836413 0.928931 9
      vertex 1.01127 0.734732 9
    endloop
  endfacet
  facet normal 0 0 -1
    outer loop
      vertex -1.22268 0.25989 9
      vertex 1.01127 0.734732 9
      vertex 1.14193 0.508421 9
    endloop
  endfacet
  facet normal 0 0 -1
    outer loop
      vertex -1.22268 0.25989 9
      vertex 1.14193 0.508421 9
      vertex 1.22268 0.25989 9
    endloop
  endfacet
  facet normal 0 0 -1
    outer loop
      vertex -1.22268 0.25989 9
      vertex 1.22268 0.25989 9
      vertex 1.25 0 9
    endloop
  endfacet
  facet normal 0 0 -1
    outer loop
      vertex -1.22268 0.25989 9
      vertex 1.25 0 9
      vertex 1.22268 -0.25989 9
    endloop
  endfacet
  facet normal 0 0 -1
    outer loop
      vertex -1.22268 0.25989 9
      vertex 1.22268 -0.25989 9
      vertex 1.14193 -0.508421 9
    endloop
  endfacet
  facet normal 0 0 -1
    outer loop
      vertex -1.22268 0.25989 9
      vertex 1.14193 -0.508421 9
      vertex 1.01127 -0.734732 9
    endloop
  endfacet
  facet normal 0 0 -1
    outer loop
      vertex -1.22268 0.25989 9
      vertex 1.01127 -0.734732 9
      vertex 0.836413 -0.928931 9
    endloop
  endfacet
  facet normal 0 0 -1
    outer loop
      vertex -1.22268 0.25989 9
      vertex 0.836413 -0.928931 9
      vertex 0.625 -1.08253 9
    endloop
  endfacet
  facet normal 0 0 -1
    outer loop
      vertex -1.22268 0.25989 9
      vertex 0.625 -1.08253 9
      vertex 0.386271 -1.18882 9
    endloop
  endfacet
  facet normal 0 0 -1
    outer loop
      vertex -1.22268 0.25989 9
      vertex 0.386271 -1.18882 9
      vertex 0.130661 -1.24315 9
    endloop
  endfacet
  facet normal 0 0 -1
    outer loop
      vertex -1.22268 0.25989 9
      vertex 0.130661 -1.24315 9
      vertex -0.130661 -1.24315 9
    endloop
  endfacet
  facet normal 0 0 -1
    outer loop
      vertex -1.22268 0.25989 9
      vertex -0.130661 -1.24315 9
      vertex -0.386271 -1.18882 9
    endloop
  endfacet
  facet normal 0 0 -1
    outer loop
      vertex -1.22268 0.25989 9
      vertex -0.386271 -1.18882 9
      vertex -0.625 -1.08253 9
    endloop
  endfacet
  facet normal 0 0 -1
    outer loop
      vertex -1.22268 0.25989 9
      vertex -0.625 -1.08253 9
      vertex -0.836413 -0.928931 9
    endloop
  endfacet
  facet normal 0 0 -1
    outer loop
      vertex -1.22268 0.25989 9
      vertex -0.836413 -0.928931 9
      vertex -1.01127 -0.734732 9
    endloop
  endfacet
  facet normal 0 0 -1
    outer loop
      vertex -1.22268 0.25989 9
      vertex -1.01127 -0.734732 9
      vertex -1.14193 -0.508421 9
    endloop
  endfacet
  facet normal 0 0 -1
    outer loop
      vertex -1.22268 0.25989 9
      vertex -1.14193 -0.508421 9
      vertex -1.22268 -0.25989 9
    endloop
  endfacet
  facet normal 0 0 -1
    outer loop
      vertex -1.22268 0.25989 9
      vertex -1.22268 -0.25989 9
      vertex -1.25 7.08187e-016 9
    endloop
  endfacet
  facet normal 0.593613 0.39664 -0.700215
    outer loop
      vertex 2.5664 1.06304 5.84265
      vertex 1.96424 1.96424 5.84265
      vertex 2.93969 2.93969 7.22215
    endloop
  endfacet
  facet normal 0.593613 0.39664 -0.700215
    outer loop
      vertex 3.84089 1.59095 7.22215
      vertex 2.5664 1.06304 5.84265
      vertex 2.93969 2.93969 7.22215
    endloop
  endfacet
  facet normal 0.770328 0.514716 -0.376381
    outer loop
      vertex 3.84089 1.59095 7.22215
      vertex 2.93969 2.93969 7.22215
      vertex 4.53064 1.87665 9.02455
    endloop
  endfacet
  facet normal 0.770328 0.514716 -0.376381
    outer loop
      vertex 4.53064 1.87665 9.02455
      vertex 2.93969 2.93969 7.22215
      vertex 3.4676 3.4676 9.02455
    endloop
  endfacet
  facet normal 0.83147 0.55557 0
    outer loop
      vertex 4.53064 1.87665 9.02455
      vertex 3.4676 3.4676 9.02455
      vertex 3.4676 3.4676 10.9755
    endloop
  endfacet
  facet normal 0.83147 0.55557 0
    outer loop
      vertex 4.53064 1.87665 10.9755
      vertex 4.53064 1.87665 9.02455
      vertex 3.4676 3.4676 10.9755
    endloop
  endfacet
  facet normal 0.770328 0.514716 0.376381
    outer loop
      vertex 3.4676 3.4676 10.9755
      vertex 2.93969 2.93969 12.7779
      vertex 3.84089 1.59095 12.7779
    endloop
  endfacet
  facet normal 0.770328 0.514716 0.376381
    outer loop
      vertex 4.53064 1.87665 10.9755
      vertex 3.4676 3.4676 10.9755
      vertex 3.84089 1.59095 12.7779
    endloop
  endfacet
  facet normal 0.593613 0.39664 0.700215
    outer loop
      vertex 2.93969 2.93969 12.7779
      vertex 1.96424 1.96424 14.1573
      vertex 3.84089 1.59095 12.7779
    endloop
  endfacet
  facet normal 0.593613 0.39664 0.700215
    outer loop
      vertex 3.84089 1.59095 12.7779
      vertex 1.96424 1.96424 14.1573
      vertex 2.5664 1.06304 14.1573
    endloop
  endfacet
  facet normal 0.700215 0.139281 0.700215
    outer loop
      vertex 3.84089 1.59095 12.7779
      vertex 2.5664 1.06304 14.1573
      vertex 4.15735 0 12.7779
    endloop
  endfacet
  facet normal 0.700215 0.139281 0.700215
    outer loop
      vertex 4.15735 0 12.7779
      vertex 2.5664 1.06304 14.1573
      vertex 2.77785 0 14.1573
    endloop
  endfacet
  facet normal 0.700215 -0.139281 0.700215
    outer loop
      vertex 2.77785 0 14.1573
      vertex 2.5664 -1.06304 14.1573
      vertex 4.15735 0 12.7779
    endloop
  endfacet
  facet normal 0.700215 -0.139281 0.700215
    outer loop
      vertex 4.15735 0 12.7779
      vertex 2.5664 -1.06304 14.1573
      vertex 3.84089 -1.59095 12.7779
    endloop
  endfacet
  facet normal 0.908663 -0.180744 0.376381
    outer loop
      vertex 4.15735 0 12.7779
      vertex 3.84089 -1.59095 12.7779
      vertex 4.53064 -1.87665 10.9755
    endloop
  endfacet
  facet normal 0.908663 -0.180744 0.376381
    outer loop
      vertex 4.90393 0 10.9755
      vertex 4.15735 0 12.7779
      vertex 4.53064 -1.87665 10.9755
    endloop
  endfacet
  facet normal 0.980785 -0.19509 0
    outer loop
      vertex 4.53064 -1.87665 10.9755
      vertex 4.53064 -1.87665 9.02455
      vertex 4.90393 0 9.02455
    endloop
  endfacet
  facet normal 0.980785 -0.19509 0
    outer loop
      vertex 4.90393 0 10.9755
      vertex 4.53064 -1.87665 10.9755
      vertex 4.90393 0 9.02455
    endloop
  endfacet
  facet normal 0.908663 -0.180744 -0.376381
    outer loop
      vertex 4.53064 -1.87665 9.02455
      vertex 4.15735 0 7.22215
      vertex 4.90393 0 9.02455
    endloop
  endfacet
  facet normal 0.908663 -0.180744 -0.376381
    outer loop
      vertex 4.53064 -1.87665 9.02455
      vertex 3.84089 -1.59095 7.22215
      vertex 4.15735 0 7.22215
    endloop
  endfacet
  facet normal 0.700215 -0.139281 -0.700215
    outer loop
      vertex 3.84089 -1.59095 7.22215
      vertex 2.5664 -1.06304 5.84265
      vertex 4.15735 0 7.22215
    endloop
  endfacet
  facet normal 0.700215 -0.139281 -0.700215
    outer loop
      vertex 4.15735 0 7.22215
      vertex 2.5664 -1.06304 5.84265
      vertex 2.77785 0 5.84265
    endloop
  endfacet
  facet normal 0.700215 0.139281 -0.700215
    outer loop
      vertex 2.77785 0 5.84265
      vertex 2.5664 1.06304 5.84265
      vertex 4.15735 0 7.22215
    endloop
  endfacet
  facet normal 0.700215 0.139281 -0.700215
    outer loop
      vertex 4.15735 0 7.22215
      vertex 2.5664 1.06304 5.84265
      vertex 3.84089 1.59095 7.22215
    endloop
  endfacet
  facet normal 0.908663 0.180744 -0.376381
    outer loop
      vertex 4.15735 0 7.22215
      vertex 3.84089 1.59095 7.22215
      vertex 4.53064 1.87665 9.02455
    endloop
  endfacet
  facet normal 0.980785 0.19509 0
    outer loop
      vertex 4.90393 0 9.02455
      vertex 4.53064 1.87665 9.02455
      vertex 4.53064 1.87665 10.9755
    endloop
  endfacet
  facet normal 0.980785 0.19509 0
    outer loop
      vertex 4.90393 0 10.9755
      vertex 4.90393 0 9.02455
      vertex 4.53064 1.87665 10.9755
    endloop
  endfacet
  facet normal 0.908663 0.180744 -0.376381
    outer loop
      vertex 4.90393 0 9.02455
      vertex 4.15735 0 7.22215
      vertex 4.53064 1.87665 9.02455
    endloop
  endfacet
  facet normal 0.908663 0.180744 0.376381
    outer loop
      vertex 4.53064 1.87665 10.9755
      vertex 4.15735 0 12.7779
      vertex 4.90393 0 10.9755
    endloop
  endfacet
  facet normal 0.908663 0.180744 0.376381
    outer loop
      vertex 4.53064 1.87665 10.9755
      vertex 3.84089 1.59095 12.7779
      vertex 4.15735 0 12.7779
    endloop
  endfacet
endsolid OpenSCAD_Model
