solid OpenSCAD_Model
  facet normal -1 0 0
    outer loop
      vertex 0 12.4315 0
      vertex 0 87.5685 2.5
      vertex 0 87.5685 0
    endloop
  endfacet
  facet normal -1 -0 0
    outer loop
      vertex 0 87.5685 2.5
      vertex 0 12.4315 0
      vertex 0 12.4315 2.5
    endloop
  endfacet
  facet normal 0 0 1
    outer loop
      vertex 12.2268 97.4011 2.5
      vertex 55 100 2.5
      vertex 12.5 100 2.5
    endloop
  endfacet
  facet normal 0 0 1
    outer loop
      vertex 180 75 2.5
      vertex 178.693 12.4315 2.5
      vertex 180 12.4315 2.5
    endloop
  endfacet
  facet normal 0 0 1
    outer loop
      vertex 180 75 2.5
      vertex 176.137 11.8882 2.5
      vertex 178.693 12.4315 2.5
    endloop
  endfacet
  facet normal 0 0 1
    outer loop
      vertex 180 75 2.5
      vertex 173.75 10.8253 2.5
      vertex 176.137 11.8882 2.5
    endloop
  endfacet
  facet normal 0 0 1
    outer loop
      vertex 180 75 2.5
      vertex 171.636 9.28931 2.5
      vertex 173.75 10.8253 2.5
    endloop
  endfacet
  facet normal 0 0 1
    outer loop
      vertex 180 75 2.5
      vertex 169.887 7.34731 2.5
      vertex 171.636 9.28931 2.5
    endloop
  endfacet
  facet normal -0 0 1
    outer loop
      vertex 55 75 2.5
      vertex 169.887 7.34731 2.5
      vertex 180 75 2.5
    endloop
  endfacet
  facet normal 0 0 1
    outer loop
      vertex 169.887 7.34731 2.5
      vertex 55 75 2.5
      vertex 168.581 5.08421 2.5
    endloop
  endfacet
  facet normal 0 0 1
    outer loop
      vertex 168.581 5.08421 2.5
      vertex 55 75 2.5
      vertex 167.773 2.5989 2.5
    endloop
  endfacet
  facet normal 0 0 1
    outer loop
      vertex 55 75 2.5
      vertex 167.5 0 2.5
      vertex 167.773 2.5989 2.5
    endloop
  endfacet
  facet normal 0 0 1
    outer loop
      vertex 11.4193 94.9158 2.5
      vertex 55 100 2.5
      vertex 12.2268 97.4011 2.5
    endloop
  endfacet
  facet normal 0 0 1
    outer loop
      vertex 55 100 2.5
      vertex 11.4193 94.9158 2.5
      vertex 55 75 2.5
    endloop
  endfacet
  facet normal -0 0 1
    outer loop
      vertex 10.1127 92.6527 2.5
      vertex 55 75 2.5
      vertex 11.4193 94.9158 2.5
    endloop
  endfacet
  facet normal 0 0 1
    outer loop
      vertex 55 75 2.5
      vertex 12.5 0 2.5
      vertex 167.5 0 2.5
    endloop
  endfacet
  facet normal 0 -0 1
    outer loop
      vertex 12.2268 2.5989 2.5
      vertex 55 75 2.5
      vertex 11.4193 5.08421 2.5
    endloop
  endfacet
  facet normal 0 -0 1
    outer loop
      vertex 12.5 0 2.5
      vertex 55 75 2.5
      vertex 12.2268 2.5989 2.5
    endloop
  endfacet
  facet normal -0 0 1
    outer loop
      vertex 8.36413 90.7107 2.5
      vertex 55 75 2.5
      vertex 10.1127 92.6527 2.5
    endloop
  endfacet
  facet normal 0 0 1
    outer loop
      vertex 55 75 2.5
      vertex 10.1127 7.34731 2.5
      vertex 11.4193 5.08421 2.5
    endloop
  endfacet
  facet normal -0 0 1
    outer loop
      vertex 6.25 89.1747 2.5
      vertex 55 75 2.5
      vertex 8.36413 90.7107 2.5
    endloop
  endfacet
  facet normal 0 0 1
    outer loop
      vertex 55 75 2.5
      vertex 8.36413 9.28931 2.5
      vertex 10.1127 7.34731 2.5
    endloop
  endfacet
  facet normal -0 0 1
    outer loop
      vertex 3.86271 88.1118 2.5
      vertex 55 75 2.5
      vertex 6.25 89.1747 2.5
    endloop
  endfacet
  facet normal 0 0 1
    outer loop
      vertex 55 75 2.5
      vertex 6.25 10.8253 2.5
      vertex 8.36413 9.28931 2.5
    endloop
  endfacet
  facet normal 0 0 1
    outer loop
      vertex 3.86271 11.8882 2.5
      vertex 55 75 2.5
      vertex 3.86271 88.1118 2.5
    endloop
  endfacet
  facet normal 0 0 1
    outer loop
      vertex 55 75 2.5
      vertex 3.86271 11.8882 2.5
      vertex 6.25 10.8253 2.5
    endloop
  endfacet
  facet normal -0 0 1
    outer loop
      vertex 1.30661 87.5685 2.5
      vertex 3.86271 11.8882 2.5
      vertex 3.86271 88.1118 2.5
    endloop
  endfacet
  facet normal 0 0 1
    outer loop
      vertex 1.30661 87.5685 2.5
      vertex 1.30661 12.4315 2.5
      vertex 3.86271 11.8882 2.5
    endloop
  endfacet
  facet normal -0 0 1
    outer loop
      vertex 0 87.5685 2.5
      vertex 1.30661 12.4315 2.5
      vertex 1.30661 87.5685 2.5
    endloop
  endfacet
  facet normal 0 0 1
    outer loop
      vertex 1.30661 12.4315 2.5
      vertex 0 87.5685 2.5
      vertex 0 12.4315 2.5
    endloop
  endfacet
  facet normal 1 -0 0
    outer loop
      vertex 180 12.4315 2.5
      vertex 180 75 0
      vertex 180 75 2.5
    endloop
  endfacet
  facet normal 1 0 0
    outer loop
      vertex 180 75 0
      vertex 180 12.4315 2.5
      vertex 180 12.4315 0
    endloop
  endfacet
  facet normal 0 1 -0
    outer loop
      vertex 180 75 0
      vertex 55 75 2.5
      vertex 180 75 2.5
    endloop
  endfacet
  facet normal 0 1 0
    outer loop
      vertex 55 75 2.5
      vertex 180 75 0
      vertex 55 75 0
    endloop
  endfacet
  facet normal 0 0 -1
    outer loop
      vertex 178.693 12.4315 0
      vertex 180 75 0
      vertex 180 12.4315 0
    endloop
  endfacet
  facet normal 0 0 -1
    outer loop
      vertex 176.137 11.8882 0
      vertex 180 75 0
      vertex 178.693 12.4315 0
    endloop
  endfacet
  facet normal 0 0 -1
    outer loop
      vertex 173.75 10.8253 0
      vertex 180 75 0
      vertex 176.137 11.8882 0
    endloop
  endfacet
  facet normal 0 0 -1
    outer loop
      vertex 171.636 9.28931 0
      vertex 180 75 0
      vertex 173.75 10.8253 0
    endloop
  endfacet
  facet normal 0 0 -1
    outer loop
      vertex 169.887 7.34731 0
      vertex 180 75 0
      vertex 171.636 9.28931 0
    endloop
  endfacet
  facet normal 0 0 -1
    outer loop
      vertex 55 75 0
      vertex 169.887 7.34731 0
      vertex 168.581 5.08421 0
    endloop
  endfacet
  facet normal 0 0 -1
    outer loop
      vertex 55 75 0
      vertex 168.581 5.08421 0
      vertex 167.773 2.5989 0
    endloop
  endfacet
  facet normal 0 0 -1
    outer loop
      vertex 169.887 7.34731 0
      vertex 55 75 0
      vertex 180 75 0
    endloop
  endfacet
  facet normal 0 0 -1
    outer loop
      vertex 167.5 0 0
      vertex 55 75 0
      vertex 167.773 2.5989 0
    endloop
  endfacet
  facet normal 0 0 -1
    outer loop
      vertex 12.5 0 0
      vertex 55 75 0
      vertex 167.5 0 0
    endloop
  endfacet
  facet normal 0 0 -1
    outer loop
      vertex 12.2268 2.5989 0
      vertex 55 75 0
      vertex 12.5 0 0
    endloop
  endfacet
  facet normal 0 0 -1
    outer loop
      vertex 11.4193 5.08421 0
      vertex 55 75 0
      vertex 12.2268 2.5989 0
    endloop
  endfacet
  facet normal 0 0 -1
    outer loop
      vertex 10.1127 7.34731 0
      vertex 55 75 0
      vertex 11.4193 5.08421 0
    endloop
  endfacet
  facet normal -0 0 -1
    outer loop
      vertex 55 100 0
      vertex 12.2268 97.4011 0
      vertex 12.5 100 0
    endloop
  endfacet
  facet normal 0 0 -1
    outer loop
      vertex 8.36413 9.28931 0
      vertex 55 75 0
      vertex 10.1127 7.34731 0
    endloop
  endfacet
  facet normal 0 0 -1
    outer loop
      vertex 55 100 0
      vertex 11.4193 94.9158 0
      vertex 12.2268 97.4011 0
    endloop
  endfacet
  facet normal 0 0 -1
    outer loop
      vertex 6.25 10.8253 0
      vertex 55 75 0
      vertex 8.36413 9.28931 0
    endloop
  endfacet
  facet normal 0 0 -1
    outer loop
      vertex 55 75 0
      vertex 11.4193 94.9158 0
      vertex 55 100 0
    endloop
  endfacet
  facet normal 0 -0 -1
    outer loop
      vertex 10.1127 92.6527 0
      vertex 55 75 0
      vertex 8.36413 90.7107 0
    endloop
  endfacet
  facet normal 0 -0 -1
    outer loop
      vertex 11.4193 94.9158 0
      vertex 55 75 0
      vertex 10.1127 92.6527 0
    endloop
  endfacet
  facet normal 0 0 -1
    outer loop
      vertex 3.86271 11.8882 0
      vertex 55 75 0
      vertex 6.25 10.8253 0
    endloop
  endfacet
  facet normal 0 0 -1
    outer loop
      vertex 55 75 0
      vertex 6.25 89.1747 0
      vertex 8.36413 90.7107 0
    endloop
  endfacet
  facet normal 0 0 -1
    outer loop
      vertex 3.86271 88.1118 0
      vertex 55 75 0
      vertex 3.86271 11.8882 0
    endloop
  endfacet
  facet normal 0 0 -1
    outer loop
      vertex 55 75 0
      vertex 3.86271 88.1118 0
      vertex 6.25 89.1747 0
    endloop
  endfacet
  facet normal 0 0 -1
    outer loop
      vertex 1.30661 12.4315 0
      vertex 3.86271 88.1118 0
      vertex 3.86271 11.8882 0
    endloop
  endfacet
  facet normal 0 0 -1
    outer loop
      vertex 1.30661 12.4315 0
      vertex 1.30661 87.5685 0
      vertex 3.86271 88.1118 0
    endloop
  endfacet
  facet normal 0 0 -1
    outer loop
      vertex 0 12.4315 0
      vertex 1.30661 87.5685 0
      vertex 1.30661 12.4315 0
    endloop
  endfacet
  facet normal -0 0 -1
    outer loop
      vertex 1.30661 87.5685 0
      vertex 0 12.4315 0
      vertex 0 87.5685 0
    endloop
  endfacet
  facet normal 0 -1 0
    outer loop
      vertex 12.5 0 0
      vertex 167.5 0 2.5
      vertex 12.5 0 2.5
    endloop
  endfacet
  facet normal 0 -1 -0
    outer loop
      vertex 167.5 0 2.5
      vertex 12.5 0 0
      vertex 167.5 0 0
    endloop
  endfacet
  facet normal 0 -1 0
    outer loop
      vertex 178.693 12.4315 0
      vertex 180 12.4315 2.5
      vertex 178.693 12.4315 2.5
    endloop
  endfacet
  facet normal 0 -1 -0
    outer loop
      vertex 180 12.4315 2.5
      vertex 178.693 12.4315 0
      vertex 180 12.4315 0
    endloop
  endfacet
  facet normal 0.743066 -0.669218 0
    outer loop
      vertex 169.887 7.34731 2.5
      vertex 171.636 9.28931 0
      vertex 171.636 9.28931 2.5
    endloop
  endfacet
  facet normal 0.743066 -0.669218 0
    outer loop
      vertex 171.636 9.28931 0
      vertex 169.887 7.34731 2.5
      vertex 169.887 7.34731 0
    endloop
  endfacet
  facet normal 0.406781 -0.913526 0
    outer loop
      vertex 173.75 10.8253 0
      vertex 176.137 11.8882 2.5
      vertex 173.75 10.8253 2.5
    endloop
  endfacet
  facet normal 0.406781 -0.913526 0
    outer loop
      vertex 176.137 11.8882 2.5
      vertex 173.75 10.8253 0
      vertex 176.137 11.8882 0
    endloop
  endfacet
  facet normal 0.951003 -0.309181 0
    outer loop
      vertex 167.773 2.5989 2.5
      vertex 168.581 5.08421 0
      vertex 168.581 5.08421 2.5
    endloop
  endfacet
  facet normal 0.951003 -0.309181 0
    outer loop
      vertex 168.581 5.08421 0
      vertex 167.773 2.5989 2.5
      vertex 167.773 2.5989 0
    endloop
  endfacet
  facet normal 0.866125 -0.499827 0
    outer loop
      vertex 168.581 5.08421 2.5
      vertex 169.887 7.34731 0
      vertex 169.887 7.34731 2.5
    endloop
  endfacet
  facet normal 0.866125 -0.499827 0
    outer loop
      vertex 169.887 7.34731 0
      vertex 168.581 5.08421 2.5
      vertex 168.581 5.08421 0
    endloop
  endfacet
  facet normal 0.994528 -0.10447 0
    outer loop
      vertex 167.5 0 2.5
      vertex 167.773 2.5989 0
      vertex 167.773 2.5989 2.5
    endloop
  endfacet
  facet normal 0.994528 -0.10447 0
    outer loop
      vertex 167.773 2.5989 0
      vertex 167.5 0 2.5
      vertex 167.5 0 0
    endloop
  endfacet
  facet normal 0.587805 -0.809003 0
    outer loop
      vertex 171.636 9.28931 0
      vertex 173.75 10.8253 2.5
      vertex 171.636 9.28931 2.5
    endloop
  endfacet
  facet normal 0.587805 -0.809003 0
    outer loop
      vertex 173.75 10.8253 2.5
      vertex 171.636 9.28931 0
      vertex 173.75 10.8253 0
    endloop
  endfacet
  facet normal 0.207914 -0.978147 0
    outer loop
      vertex 176.137 11.8882 0
      vertex 178.693 12.4315 2.5
      vertex 176.137 11.8882 2.5
    endloop
  endfacet
  facet normal 0.207914 -0.978147 0
    outer loop
      vertex 178.693 12.4315 2.5
      vertex 176.137 11.8882 0
      vertex 178.693 12.4315 0
    endloop
  endfacet
  facet normal 1 -0 0
    outer loop
      vertex 55 75 2.5
      vertex 55 100 0
      vertex 55 100 2.5
    endloop
  endfacet
  facet normal 1 0 0
    outer loop
      vertex 55 100 0
      vertex 55 75 2.5
      vertex 55 75 0
    endloop
  endfacet
  facet normal 0 1 -0
    outer loop
      vertex 55 100 0
      vertex 12.5 100 2.5
      vertex 55 100 2.5
    endloop
  endfacet
  facet normal 0 1 0
    outer loop
      vertex 12.5 100 2.5
      vertex 55 100 0
      vertex 12.5 100 0
    endloop
  endfacet
  facet normal -0.743148 0.669128 0
    outer loop
      vertex 8.36413 90.7107 0
      vertex 10.1127 92.6527 2.5
      vertex 10.1127 92.6527 0
    endloop
  endfacet
  facet normal -0.743148 0.669128 0
    outer loop
      vertex 10.1127 92.6527 2.5
      vertex 8.36413 90.7107 0
      vertex 8.36413 90.7107 2.5
    endloop
  endfacet
  facet normal -0.866026 0.5 0
    outer loop
      vertex 10.1127 92.6527 0
      vertex 11.4193 94.9158 2.5
      vertex 11.4193 94.9158 0
    endloop
  endfacet
  facet normal -0.866026 0.5 0
    outer loop
      vertex 11.4193 94.9158 2.5
      vertex 10.1127 92.6527 0
      vertex 10.1127 92.6527 2.5
    endloop
  endfacet
  facet normal -0.99452 0.104545 0
    outer loop
      vertex 12.2268 97.4011 0
      vertex 12.5 100 2.5
      vertex 12.5 100 0
    endloop
  endfacet
  facet normal -0.99452 0.104545 0
    outer loop
      vertex 12.5 100 2.5
      vertex 12.2268 97.4011 0
      vertex 12.2268 97.4011 2.5
    endloop
  endfacet
  facet normal -0.207906 0.978149 0
    outer loop
      vertex 3.86271 88.1118 0
      vertex 1.30661 87.5685 2.5
      vertex 3.86271 88.1118 2.5
    endloop
  endfacet
  facet normal -0.207906 0.978149 0
    outer loop
      vertex 1.30661 87.5685 2.5
      vertex 3.86271 88.1118 0
      vertex 1.30661 87.5685 0
    endloop
  endfacet
  facet normal -0.587784 0.809018 0
    outer loop
      vertex 8.36413 90.7107 0
      vertex 6.25 89.1747 2.5
      vertex 8.36413 90.7107 2.5
    endloop
  endfacet
  facet normal -0.587784 0.809018 0
    outer loop
      vertex 6.25 89.1747 2.5
      vertex 8.36413 90.7107 0
      vertex 6.25 89.1747 0
    endloop
  endfacet
  facet normal 0 1 -0
    outer loop
      vertex 1.30661 87.5685 0
      vertex 0 87.5685 2.5
      vertex 1.30661 87.5685 2.5
    endloop
  endfacet
  facet normal 0 1 0
    outer loop
      vertex 0 87.5685 2.5
      vertex 1.30661 87.5685 0
      vertex 0 87.5685 0
    endloop
  endfacet
  facet normal -0.40674 0.913544 0
    outer loop
      vertex 6.25 89.1747 0
      vertex 3.86271 88.1118 2.5
      vertex 6.25 89.1747 2.5
    endloop
  endfacet
  facet normal -0.40674 0.913544 0
    outer loop
      vertex 3.86271 88.1118 2.5
      vertex 6.25 89.1747 0
      vertex 3.86271 88.1118 0
    endloop
  endfacet
  facet normal -0.951059 0.309009 0
    outer loop
      vertex 11.4193 94.9158 0
      vertex 12.2268 97.4011 2.5
      vertex 12.2268 97.4011 0
    endloop
  endfacet
  facet normal -0.951059 0.309009 0
    outer loop
      vertex 12.2268 97.4011 2.5
      vertex 11.4193 94.9158 0
      vertex 11.4193 94.9158 2.5
    endloop
  endfacet
  facet normal -0.99452 -0.104545 0
    outer loop
      vertex 12.5 0 0
      vertex 12.2268 2.5989 2.5
      vertex 12.2268 2.5989 0
    endloop
  endfacet
  facet normal -0.99452 -0.104545 0
    outer loop
      vertex 12.2268 2.5989 2.5
      vertex 12.5 0 0
      vertex 12.5 0 2.5
    endloop
  endfacet
  facet normal 0 -1 0
    outer loop
      vertex 0 12.4315 0
      vertex 1.30661 12.4315 2.5
      vertex 0 12.4315 2.5
    endloop
  endfacet
  facet normal 0 -1 -0
    outer loop
      vertex 1.30661 12.4315 2.5
      vertex 0 12.4315 0
      vertex 1.30661 12.4315 0
    endloop
  endfacet
  facet normal -0.587781 -0.80902 0
    outer loop
      vertex 6.25 10.8253 0
      vertex 8.36413 9.28931 2.5
      vertex 6.25 10.8253 2.5
    endloop
  endfacet
  facet normal -0.587781 -0.80902 -0
    outer loop
      vertex 8.36413 9.28931 2.5
      vertex 6.25 10.8253 0
      vertex 8.36413 9.28931 0
    endloop
  endfacet
  facet normal -0.866026 -0.5 0
    outer loop
      vertex 11.4193 5.08421 0
      vertex 10.1127 7.34731 2.5
      vertex 10.1127 7.34731 0
    endloop
  endfacet
  facet normal -0.866026 -0.5 0
    outer loop
      vertex 10.1127 7.34731 2.5
      vertex 11.4193 5.08421 0
      vertex 11.4193 5.08421 2.5
    endloop
  endfacet
  facet normal -0.951059 -0.309008 0
    outer loop
      vertex 12.2268 2.5989 0
      vertex 11.4193 5.08421 2.5
      vertex 11.4193 5.08421 0
    endloop
  endfacet
  facet normal -0.951059 -0.309008 0
    outer loop
      vertex 11.4193 5.08421 2.5
      vertex 12.2268 2.5989 0
      vertex 12.2268 2.5989 2.5
    endloop
  endfacet
  facet normal -0.743148 -0.669128 0
    outer loop
      vertex 10.1127 7.34731 0
      vertex 8.36413 9.28931 2.5
      vertex 8.36413 9.28931 0
    endloop
  endfacet
  facet normal -0.743148 -0.669128 0
    outer loop
      vertex 8.36413 9.28931 2.5
      vertex 10.1127 7.34731 0
      vertex 10.1127 7.34731 2.5
    endloop
  endfacet
  facet normal -0.207906 -0.978149 0
    outer loop
      vertex 1.30661 12.4315 0
      vertex 3.86271 11.8882 2.5
      vertex 1.30661 12.4315 2.5
    endloop
  endfacet
  facet normal -0.207906 -0.978149 -0
    outer loop
      vertex 3.86271 11.8882 2.5
      vertex 1.30661 12.4315 0
      vertex 3.86271 11.8882 0
    endloop
  endfacet
  facet normal -0.40674 -0.913544 0
    outer loop
      vertex 3.86271 11.8882 0
      vertex 6.25 10.8253 2.5
      vertex 3.86271 11.8882 2.5
    endloop
  endfacet
  facet normal -0.40674 -0.913544 -0
    outer loop
      vertex 6.25 10.8253 2.5
      vertex 3.86271 11.8882 0
      vertex 6.25 10.8253 0
    endloop
  endfacet
endsolid OpenSCAD_Model
