solid OpenSCAD_Model
  facet normal -1 0 0
    outer loop
      vertex -52.2 -26.14 -1.5
      vertex -52.2 26.14 1.5
      vertex -52.2 26.14 -1.5
    endloop
  endfacet
  facet normal -1 -0 0
    outer loop
      vertex -52.2 26.14 1.5
      vertex -52.2 -26.14 -1.5
      vertex -52.2 -26.14 1.5
    endloop
  endfacet
  facet normal 0 0 1
    outer loop
      vertex 52.2 26.14 1.5
      vertex 48.7 22.14 1.5
      vertex 52.2 -26.14 1.5
    endloop
  endfacet
  facet normal 0 0 1
    outer loop
      vertex 52.2 26.14 1.5
      vertex -48.7 22.14 1.5
      vertex 48.7 22.14 1.5
    endloop
  endfacet
  facet normal 0 0 1
    outer loop
      vertex -48.7 22.14 1.5
      vertex -52.2 26.14 1.5
      vertex -48.7 -22.14 1.5
    endloop
  endfacet
  facet normal -0 0 1
    outer loop
      vertex -52.2 26.14 1.5
      vertex -48.7 22.14 1.5
      vertex 52.2 26.14 1.5
    endloop
  endfacet
  facet normal -0 0 1
    outer loop
      vertex 48.7 -22.14 1.5
      vertex 52.2 -26.14 1.5
      vertex 48.7 22.14 1.5
    endloop
  endfacet
  facet normal -0 0 1
    outer loop
      vertex -48.7 -22.14 1.5
      vertex 52.2 -26.14 1.5
      vertex 48.7 -22.14 1.5
    endloop
  endfacet
  facet normal 0 0 1
    outer loop
      vertex -48.7 -22.14 1.5
      vertex -52.2 -26.14 1.5
      vertex 52.2 -26.14 1.5
    endloop
  endfacet
  facet normal 0 0 1
    outer loop
      vertex -52.2 -26.14 1.5
      vertex -48.7 -22.14 1.5
      vertex -52.2 26.14 1.5
    endloop
  endfacet
  facet normal 1 -0 0
    outer loop
      vertex 52.2 -26.14 1.5
      vertex 52.2 26.14 -1.5
      vertex 52.2 26.14 1.5
    endloop
  endfacet
  facet normal 1 0 0
    outer loop
      vertex 52.2 26.14 -1.5
      vertex 52.2 -26.14 1.5
      vertex 52.2 -26.14 -1.5
    endloop
  endfacet
  facet normal 0 0 -1
    outer loop
      vertex 52.2 -26.14 -1.5
      vertex 48.7 -22.14 -1.5
      vertex 52.2 26.14 -1.5
    endloop
  endfacet
  facet normal 0 0 -1
    outer loop
      vertex 52.2 -26.14 -1.5
      vertex -48.7 -22.14 -1.5
      vertex 48.7 -22.14 -1.5
    endloop
  endfacet
  facet normal -0 0 -1
    outer loop
      vertex -48.7 -22.14 -1.5
      vertex -52.2 -26.14 -1.5
      vertex -48.7 22.14 -1.5
    endloop
  endfacet
  facet normal 0 0 -1
    outer loop
      vertex -52.2 -26.14 -1.5
      vertex -48.7 -22.14 -1.5
      vertex 52.2 -26.14 -1.5
    endloop
  endfacet
  facet normal 0 0 -1
    outer loop
      vertex 48.7 22.14 -1.5
      vertex 52.2 26.14 -1.5
      vertex 48.7 -22.14 -1.5
    endloop
  endfacet
  facet normal 0 0 -1
    outer loop
      vertex -48.7 22.14 -1.5
      vertex 52.2 26.14 -1.5
      vertex 48.7 22.14 -1.5
    endloop
  endfacet
  facet normal 0 0 -1
    outer loop
      vertex -48.7 22.14 -1.5
      vertex -52.2 26.14 -1.5
      vertex 52.2 26.14 -1.5
    endloop
  endfacet
  facet normal 0 0 -1
    outer loop
      vertex -52.2 26.14 -1.5
      vertex -48.7 22.14 -1.5
      vertex -52.2 -26.14 -1.5
    endloop
  endfacet
  facet normal 0 -1 0
    outer loop
      vertex -52.2 -26.14 -1.5
      vertex 52.2 -26.14 1.5
      vertex -52.2 -26.14 1.5
    endloop
  endfacet
  facet normal 0 -1 -0
    outer loop
      vertex 52.2 -26.14 1.5
      vertex -52.2 -26.14 -1.5
      vertex 52.2 -26.14 -1.5
    endloop
  endfacet
  facet normal 0 1 -0
    outer loop
      vertex 52.2 26.14 -1.5
      vertex -52.2 26.14 1.5
      vertex 52.2 26.14 1.5
    endloop
  endfacet
  facet normal 0 1 0
    outer loop
      vertex -52.2 26.14 1.5
      vertex 52.2 26.14 -1.5
      vertex -52.2 26.14 -1.5
    endloop
  endfacet
  facet normal 1 -0 0
    outer loop
      vertex -48.7 -22.14 1.5
      vertex -48.7 22.14 -1.5
      vertex -48.7 22.14 1.5
    endloop
  endfacet
  facet normal 1 0 0
    outer loop
      vertex -48.7 22.14 -1.5
      vertex -48.7 -22.14 1.5
      vertex -48.7 -22.14 -1.5
    endloop
  endfacet
  facet normal -1 0 0
    outer loop
      vertex 48.7 -22.14 -1.5
      vertex 48.7 22.14 1.5
      vertex 48.7 22.14 -1.5
    endloop
  endfacet
  facet normal -1 -0 0
    outer loop
      vertex 48.7 22.14 1.5
      vertex 48.7 -22.14 -1.5
      vertex 48.7 -22.14 1.5
    endloop
  endfacet
  facet normal 0 -1 0
    outer loop
      vertex -48.7 22.14 -1.5
      vertex 48.7 22.14 1.5
      vertex -48.7 22.14 1.5
    endloop
  endfacet
  facet normal 0 -1 -0
    outer loop
      vertex 48.7 22.14 1.5
      vertex -48.7 22.14 -1.5
      vertex 48.7 22.14 -1.5
    endloop
  endfacet
  facet normal 0 1 -0
    outer loop
      vertex 48.7 -22.14 -1.5
      vertex -48.7 -22.14 1.5
      vertex 48.7 -22.14 1.5
    endloop
  endfacet
  facet normal 0 1 0
    outer loop
      vertex -48.7 -22.14 1.5
      vertex 48.7 -22.14 -1.5
      vertex -48.7 -22.14 -1.5
    endloop
  endfacet
endsolid OpenSCAD_Model
