solid OpenSCAD_Model
  facet normal -1 0 0
    outer loop
      vertex 3.5 3.5 0
      vertex 3.5 54.78 3
      vertex 3.5 54.78 0
    endloop
  endfacet
  facet normal -1 -0 0
    outer loop
      vertex 3.5 54.78 3
      vertex 3.5 3.5 0
      vertex 3.5 3.5 3
    endloop
  endfacet
  facet normal 0 0 1
    outer loop
      vertex 109.9 54.78 3
      vertex 105.2 51.08 3
      vertex 109.9 3.5 3
    endloop
  endfacet
  facet normal -0 0 1
    outer loop
      vertex 3.5 54.78 3
      vertex 105.2 51.08 3
      vertex 109.9 54.78 3
    endloop
  endfacet
  facet normal 0 0 1
    outer loop
      vertex 3.5 3.5 3
      vertex 7.8 51.08 3
      vertex 3.5 54.78 3
    endloop
  endfacet
  facet normal 0 0 1
    outer loop
      vertex 105.2 51.08 3
      vertex 3.5 54.78 3
      vertex 7.8 51.08 3
    endloop
  endfacet
  facet normal -0 0 1
    outer loop
      vertex 105.2 6.8 3
      vertex 109.9 3.5 3
      vertex 105.2 51.08 3
    endloop
  endfacet
  facet normal 0 0 1
    outer loop
      vertex 3.5 3.5 3
      vertex 105.2 6.8 3
      vertex 7.8 6.8 3
    endloop
  endfacet
  facet normal 0 0 1
    outer loop
      vertex 105.2 6.8 3
      vertex 3.5 3.5 3
      vertex 109.9 3.5 3
    endloop
  endfacet
  facet normal 0 0 1
    outer loop
      vertex 7.8 51.08 3
      vertex 3.5 3.5 3
      vertex 7.8 6.8 3
    endloop
  endfacet
  facet normal 1 -0 0
    outer loop
      vertex 109.9 3.5 3
      vertex 109.9 54.78 0
      vertex 109.9 54.78 3
    endloop
  endfacet
  facet normal 1 0 0
    outer loop
      vertex 109.9 54.78 0
      vertex 109.9 3.5 3
      vertex 109.9 3.5 0
    endloop
  endfacet
  facet normal 0 1 -0
    outer loop
      vertex 109.9 54.78 0
      vertex 3.5 54.78 3
      vertex 109.9 54.78 3
    endloop
  endfacet
  facet normal 0 1 0
    outer loop
      vertex 3.5 54.78 3
      vertex 109.9 54.78 0
      vertex 3.5 54.78 0
    endloop
  endfacet
  facet normal 0 0 -1
    outer loop
      vertex 105.2 51.08 0
      vertex 109.9 3.5 0
      vertex 105.2 6.8 0
    endloop
  endfacet
  facet normal 0 0 -1
    outer loop
      vertex 3.5 3.5 0
      vertex 105.2 6.8 0
      vertex 109.9 3.5 0
    endloop
  endfacet
  facet normal -0 0 -1
    outer loop
      vertex 7.8 6.8 0
      vertex 3.5 3.5 0
      vertex 7.8 51.08 0
    endloop
  endfacet
  facet normal -0 0 -1
    outer loop
      vertex 105.2 6.8 0
      vertex 3.5 3.5 0
      vertex 7.8 6.8 0
    endloop
  endfacet
  facet normal 0 0 -1
    outer loop
      vertex 109.9 3.5 0
      vertex 105.2 51.08 0
      vertex 109.9 54.78 0
    endloop
  endfacet
  facet normal 0 0 -1
    outer loop
      vertex 3.5 54.78 0
      vertex 105.2 51.08 0
      vertex 7.8 51.08 0
    endloop
  endfacet
  facet normal 0 0 -1
    outer loop
      vertex 105.2 51.08 0
      vertex 3.5 54.78 0
      vertex 109.9 54.78 0
    endloop
  endfacet
  facet normal 0 0 -1
    outer loop
      vertex 3.5 54.78 0
      vertex 7.8 51.08 0
      vertex 3.5 3.5 0
    endloop
  endfacet
  facet normal 0 -1 0
    outer loop
      vertex 3.5 3.5 0
      vertex 109.9 3.5 3
      vertex 3.5 3.5 3
    endloop
  endfacet
  facet normal 0 -1 -0
    outer loop
      vertex 109.9 3.5 3
      vertex 3.5 3.5 0
      vertex 109.9 3.5 0
    endloop
  endfacet
  facet normal 1 -0 0
    outer loop
      vertex 7.8 6.8 3
      vertex 7.8 51.08 0
      vertex 7.8 51.08 3
    endloop
  endfacet
  facet normal 1 0 0
    outer loop
      vertex 7.8 51.08 0
      vertex 7.8 6.8 3
      vertex 7.8 6.8 0
    endloop
  endfacet
  facet normal -1 0 0
    outer loop
      vertex 105.2 6.8 0
      vertex 105.2 51.08 3
      vertex 105.2 51.08 0
    endloop
  endfacet
  facet normal -1 -0 0
    outer loop
      vertex 105.2 51.08 3
      vertex 105.2 6.8 0
      vertex 105.2 6.8 3
    endloop
  endfacet
  facet normal 0 1 -0
    outer loop
      vertex 105.2 6.8 0
      vertex 7.8 6.8 3
      vertex 105.2 6.8 3
    endloop
  endfacet
  facet normal 0 1 0
    outer loop
      vertex 7.8 6.8 3
      vertex 105.2 6.8 0
      vertex 7.8 6.8 0
    endloop
  endfacet
  facet normal 0 -1 0
    outer loop
      vertex 7.8 51.08 0
      vertex 105.2 51.08 3
      vertex 7.8 51.08 3
    endloop
  endfacet
  facet normal 0 -1 -0
    outer loop
      vertex 105.2 51.08 3
      vertex 7.8 51.08 0
      vertex 105.2 51.08 0
    endloop
  endfacet
endsolid OpenSCAD_Model
